<svg width="300" height="300" viewBox="0 0 300 300" fill="none" xmlns="http://www.w3.org/2000/svg">
<path d="M64.7574 232.538C61.2426 232.598 52.3806 232.748 48.984 232.786L43.6632 232.812L43.3908 232.813L43.3896 232.538L43.3632 225.824L43.362 225.524L43.6626 225.525L54.21 225.566C56.8356 225.589 62.1312 225.645 64.7574 225.682L64.9032 225.684L64.9002 225.824L64.7574 232.538ZM64.7574 232.538L64.6152 225.824L64.7574 225.966C62.1258 226.004 56.8404 226.06 54.21 226.083L43.6626 226.124L43.962 225.824L43.9356 232.538L43.662 232.265L48.8886 232.29C52.2324 232.329 61.299 232.479 64.7574 232.538Z" fill="#EBEBEB"/>
<path d="M98.7606 160.881C95.2458 160.941 86.3838 161.091 82.9872 161.129L77.6664 161.155L77.394 161.156L77.3928 160.881L77.3664 154.167L77.3652 153.866L77.6658 153.868L88.2132 153.908C90.8394 153.932 96.1344 153.988 98.7606 154.025L98.9064 154.027L98.9034 154.167L98.7606 160.881ZM98.7606 160.881L98.6184 154.167L98.7606 154.309C96.129 154.346 90.8436 154.403 88.2132 154.426L77.6658 154.466L77.9652 154.167L77.9388 160.881L77.6652 160.607L82.8918 160.633C86.2356 160.672 95.3022 160.822 98.7606 160.881Z" fill="#EBEBEB"/>
<path d="M52.9902 241.004C49.4754 241.064 40.6134 241.214 37.2168 241.252L31.896 241.278L31.6236 241.279L31.6224 241.004L31.596 234.29L31.5948 233.99L31.8954 233.991L42.4428 234.032C45.0684 234.055 50.364 234.112 52.9902 234.148L53.136 234.15L53.133 234.29L52.9902 241.004ZM52.9902 241.004L52.848 234.29L52.9902 234.433C50.3586 234.47 45.0732 234.526 42.4428 234.549L31.8954 234.59L32.1948 234.29L32.1684 241.004L31.8948 240.731L37.1214 240.757C40.4652 240.795 49.5318 240.946 52.9902 241.004Z" fill="#EBEBEB"/>
<path d="M205.634 90.0983C202.119 90.1583 193.257 90.3083 189.86 90.3461L184.54 90.3719L184.267 90.3731L184.266 90.0983L184.24 83.3843L184.238 83.0837L184.539 83.0849L195.086 83.1257C197.713 83.1491 203.008 83.2049 205.634 83.2421L205.779 83.2439L205.776 83.3843L205.634 90.0983ZM205.634 90.0983L205.492 83.3843L205.634 83.5265C203.002 83.5637 197.717 83.6201 195.086 83.6429L184.539 83.6837L184.838 83.3843L184.812 90.0983L184.538 89.8247L189.765 89.8505C193.109 89.8889 202.175 90.0395 205.634 90.0983Z" fill="#EBEBEB"/>
<path d="M193.867 98.5644C190.352 98.6244 181.49 98.7744 178.093 98.8122L172.772 98.838L172.5 98.8392L172.499 98.5644L172.472 91.8504L172.471 91.5498L172.772 91.551L183.319 91.5918C185.945 91.6152 191.24 91.671 193.867 91.7082L194.012 91.71L194.009 91.8504L193.867 98.5644ZM193.867 98.5644L193.724 91.8504L193.867 91.9926C191.235 92.0298 185.95 92.0862 183.319 92.109L172.772 92.1498L173.071 91.8504L173.045 98.5644L172.771 98.2908L177.998 98.3166C181.342 98.355 190.408 98.5056 193.867 98.5644Z" fill="#EBEBEB"/>
<path d="M182.146 90.0983C178.631 90.1583 169.769 90.3083 166.372 90.3461L161.051 90.3719L160.779 90.3731L160.778 90.0983L160.751 83.3843L160.75 83.0837L161.051 83.0849L171.598 83.1257C174.224 83.1491 179.519 83.2049 182.146 83.2421L182.291 83.2439L182.288 83.3843L182.146 90.0983ZM182.146 90.0983L182.003 83.3843L182.146 83.5265C179.514 83.5637 174.229 83.6201 171.598 83.6429L161.051 83.6837L161.35 83.3843L161.324 90.0983L161.05 89.8247L166.277 89.8505C169.621 89.8889 178.687 90.0395 182.146 90.0983Z" fill="#EBEBEB"/>
<path d="M268.105 241.004C264.59 241.064 255.728 241.214 252.331 241.252L247.01 241.278L246.738 241.279L246.737 241.004L246.71 234.29L246.709 233.99L247.01 233.991L257.557 234.032C260.183 234.055 265.478 234.112 268.105 234.148L268.25 234.15L268.247 234.29L268.105 241.004ZM268.105 241.004L267.962 234.29L268.105 234.433C265.473 234.47 260.188 234.526 257.557 234.549L247.01 234.59L247.309 234.29L247.283 241.004L247.009 240.731L252.235 240.757C255.58 240.795 264.646 240.946 268.105 241.004Z" fill="#EBEBEB"/>
<path d="M256.337 33.6738C252.823 33.7338 243.961 33.8838 240.564 33.9216L235.243 33.9474L234.971 33.9486L234.97 33.6738L234.943 26.9598L234.942 26.6592L235.243 26.6604L245.79 26.7012C248.416 26.7246 253.711 26.7804 256.337 26.8176L256.483 26.8194L256.48 26.9604L256.337 33.6738ZM256.337 33.6738L256.195 26.9598L256.337 27.102L251.064 27.1674C247.718 27.2154 238.704 27.2484 235.243 27.2592L235.543 26.9598L235.516 33.6738L235.243 33.4002L240.469 33.426C243.812 33.465 252.878 33.6156 256.337 33.6738Z" fill="#EBEBEB"/>
<path d="M268.105 42.1397C264.59 42.1997 255.728 42.3497 252.331 42.3875L247.01 42.4133L246.738 42.4145L246.737 42.1397L246.71 35.4257L246.709 35.1245L247.01 35.1257L257.557 35.1665C260.183 35.1899 265.478 35.2457 268.105 35.2829L268.25 35.2847L268.247 35.4257L268.105 42.1397ZM268.105 42.1397L267.962 35.4257L268.105 35.5679C265.473 35.6051 260.188 35.6615 257.557 35.6843L247.01 35.7251L247.309 35.4257L247.283 42.1397L247.009 41.8661L252.235 41.8919C255.58 41.9303 264.646 42.0809 268.105 42.1397Z" fill="#EBEBEB"/>
<path d="M64.7574 33.6738C61.2426 33.7338 52.3806 33.8838 48.984 33.9216L43.6632 33.9474L43.3908 33.9486L43.3896 33.6738L43.3632 26.9598L43.362 26.6592L43.6626 26.6604L54.21 26.7012C56.8356 26.7246 62.1312 26.7804 64.7574 26.8176L64.9032 26.8194L64.9002 26.9604L64.7574 33.6738ZM64.7574 33.6738L64.6152 26.9598L64.7574 27.102C62.1258 27.1392 56.8404 27.1956 54.21 27.2184L43.6626 27.2592L43.962 26.9598L43.9356 33.6738L43.662 33.4002L48.8886 33.426C52.2324 33.465 61.299 33.6156 64.7574 33.6738Z" fill="#EBEBEB"/>
<path d="M262.437 39.9143H222.638V79.7135H262.437V39.9143Z" fill="white"/>
<path d="M220.568 37.8442V81.7834H264.507V37.8442H220.568ZM222.638 39.9142H262.437V79.7134H222.638V39.9142Z" fill="#DBDBDB"/>
<path d="M256.521 72.006V58.248L225.502 58.248V72.006H256.521Z" fill="#EBEBEB"/>
<path d="M250.483 67.7608V51.8674H234.589V67.7608H250.483Z" fill="#C7C7C7"/>
<path d="M218.869 81.7844H220.566V37.8434H218.869V81.7844Z" fill="#C7C7C7"/>
<path d="M262.437 96.426H222.638V136.225H262.437V96.426Z" fill="white"/>
<path d="M255.596 102.795H245.204V132.815H255.596V102.795Z" fill="#C7C7C7"/>
<path d="M220.568 94.356V138.295H264.507V94.356H220.568ZM222.638 96.426H262.437V136.225H222.638V96.426Z" fill="#DBDBDB"/>
<path d="M250.483 108.38H234.592V124.271H250.483V108.38Z" fill="#EBEBEB"/>
<path d="M218.869 138.296H220.566V94.3554H218.869V138.296Z" fill="#C7C7C7"/>
<path d="M262.437 152.938H222.638V192.737H262.437V152.938Z" fill="white"/>
<path d="M258.022 158.363H236.184V171.419H258.022V158.363Z" fill="#EBEBEB"/>
<path d="M220.568 150.867V194.807H264.507V150.867H220.568ZM222.638 152.937H262.437V192.737H222.638V152.937Z" fill="#DBDBDB"/>
<path d="M250.483 164.891H234.592V180.783H250.483V164.891Z" fill="#C7C7C7"/>
<path d="M218.869 194.809H220.566V150.868H218.869V194.809Z" fill="#C7C7C7"/>
<path d="M38.1258 33.1033V180.53H133.949V33.1033H38.1258ZM41.6622 36.6391H130.412V176.993H41.6622V36.6391Z" fill="#EBEBEB"/>
<path d="M130.412 36.6392H41.6622V176.993H130.412V36.6392Z" fill="white"/>
<path d="M130.416 105.047H41.6646V108.581H130.416V105.047Z" fill="#EBEBEB"/>
<path d="M140.462 180.528H31.6188V190.674H140.462V180.528Z" fill="#DBDBDB"/>
<path d="M130.416 127.442H41.6646V36.6355H130.416V127.442ZM44.9388 124.169H127.142V39.9097H44.9388V124.169Z" fill="#DBDBDB"/>
<path d="M71.7582 36.6355H69.9906V124.169H71.7582V36.6355Z" fill="#DBDBDB"/>
<path d="M102.091 36.6355H100.323V124.169H102.091V36.6355Z" fill="#DBDBDB"/>
<path d="M242.887 197.144C242.887 197.144 237.102 192.775 239.684 190.802C240.581 190.118 242.593 192.291 242.887 194.713C243.182 192.29 245.192 190.117 246.09 190.802C248.673 192.775 242.887 197.144 242.887 197.144Z" fill="#00989D"/>
<path opacity="0.2" d="M242.887 197.144C242.887 197.144 237.102 192.775 239.684 190.802C240.581 190.118 242.593 192.291 242.887 194.713C243.182 192.29 245.192 190.117 246.09 190.802C248.673 192.775 242.887 197.144 242.887 197.144Z" fill="black"/>
<path d="M242.887 197.144C239.394 197.144 236.803 193.963 237.593 192.575C238.492 190.996 241.632 194.714 241.632 194.714C241.632 194.714 240.46 189.463 242.887 189.463C245.317 189.463 244.142 194.714 244.142 194.714C244.142 194.714 247.282 190.996 248.182 192.575C248.972 193.963 246.38 197.144 242.887 197.144Z" fill="#00989D"/>
<path d="M233.018 234.639L232.452 247.367C230.376 247.553 223.305 245.573 219.911 242.179C217.36 239.628 218.027 231.714 219.441 221.911C220.855 212.104 223.684 210.973 226.04 211.538C226.622 211.677 227.112 211.934 227.525 212.291C228.781 213.38 229.315 215.419 229.528 218.044C229.81 221.532 228.396 230.679 228.775 232.846C228.886 233.476 229.222 233.89 229.666 234.164C230.749 234.828 232.466 234.639 233.018 234.639Z" fill="#455A64"/>
<path d="M252.526 252.292C252.526 252.292 242.485 255.968 232.019 252.292C232.019 252.292 233.009 211.844 234.282 205.057C235.555 198.268 238.432 195.016 243.05 195.016C243.356 195.016 243.653 195.03 243.944 195.064C247.619 195.448 250.184 198.271 250.97 203.642C251.573 207.755 252.102 230.513 252.359 243.394C252.466 248.671 252.526 252.292 252.526 252.292Z" fill="#455A64"/>
<path d="M264.64 229.288C261.245 232.682 254.174 234.662 252.101 234.472L251.536 221.744C252.313 221.744 255.402 222.121 255.778 219.954C256.154 217.784 254.74 208.64 255.023 205.15C255.305 201.662 256.154 199.21 258.513 198.644C258.708 198.596 258.909 198.562 259.112 198.545C261.333 198.328 263.816 200.03 265.111 209.017C265.733 213.338 266.215 217.295 266.333 220.585C266.487 224.756 266.065 227.862 264.64 229.288Z" fill="#455A64"/>
<path d="M242.887 194.991C243.044 194.972 243.196 195.043 243.325 195.127C243.456 195.213 243.567 195.324 243.672 195.44C243.878 195.675 244.039 195.944 244.189 196.217C244.476 196.772 244.69 197.359 244.879 197.951C245.245 199.14 245.506 200.358 245.719 201.582C246.125 204.034 246.355 206.509 246.531 208.984C246.709 211.459 246.774 213.94 246.82 216.42L246.959 223.85C247.013 228.805 247.09 233.758 247.121 238.712L247.155 246.145C247.146 248.623 247.156 251.099 247.13 253.578C247.028 251.102 246.963 248.626 246.878 246.149L246.686 238.72C246.566 233.766 246.492 228.812 246.395 223.858C246.318 218.903 246.339 213.948 246.1 209.009C245.978 206.54 245.796 204.071 245.448 201.625C245.278 200.402 245.059 199.184 244.737 197.993C244.57 197.4 244.376 196.813 244.114 196.256C243.979 195.98 243.832 195.707 243.64 195.467C243.543 195.349 243.438 195.235 243.313 195.145C243.19 195.056 243.045 194.979 242.887 194.991Z" fill="#37474F"/>
<path d="M250.171 252.934C250.106 250.456 250.066 247.977 250.021 245.499L249.913 238.065L249.757 223.199C249.733 220.722 249.694 218.245 249.634 215.77L249.59 213.914L249.521 212.061C249.456 210.826 249.369 209.591 249.262 208.358C249.155 207.127 249.02 205.897 248.842 204.674C248.668 203.452 248.45 202.234 248.134 201.041C247.816 199.853 247.405 198.676 246.762 197.623C246.44 197.099 246.059 196.61 245.613 196.184C245.164 195.761 244.645 195.412 244.087 195.144C244.653 195.394 245.186 195.728 245.653 196.14C246.118 196.555 246.518 197.04 246.856 197.564C247.533 198.616 247.976 199.796 248.325 200.988C249.014 203.384 249.341 205.859 249.6 208.326C249.849 210.794 250.021 213.275 250.113 215.755C250.192 218.234 250.252 220.712 250.294 223.191C250.348 225.67 250.368 228.148 250.373 230.627L250.388 238.063L250.321 245.498C250.282 247.977 250.242 250.456 250.171 252.934Z" fill="#37474F"/>
<path d="M242.887 194.991C242.731 194.979 242.585 195.056 242.463 195.144C242.338 195.235 242.233 195.349 242.136 195.467C241.944 195.707 241.797 195.98 241.662 196.255C241.399 196.812 241.206 197.399 241.039 197.993C240.717 199.184 240.498 200.401 240.328 201.624C239.981 204.07 239.798 206.539 239.676 209.008C239.437 213.947 239.458 218.902 239.381 223.858C239.284 228.811 239.21 233.766 239.09 238.719L238.898 246.149C238.813 248.625 238.748 251.102 238.646 253.577C238.62 251.099 238.63 248.622 238.621 246.144L238.655 238.712C238.686 233.758 238.763 228.804 238.817 223.85L238.956 216.419C239.002 213.94 239.067 211.459 239.245 208.983C239.421 206.508 239.651 204.034 240.057 201.581C240.27 200.358 240.531 199.139 240.897 197.95C241.086 197.358 241.3 196.771 241.587 196.217C241.737 195.944 241.899 195.674 242.104 195.439C242.209 195.323 242.32 195.212 242.451 195.126C242.58 195.043 242.731 194.972 242.887 194.991Z" fill="#37474F"/>
<path d="M235.605 252.934C235.533 250.456 235.494 247.977 235.455 245.499L235.387 238.064L235.402 230.628C235.407 228.149 235.427 225.671 235.481 223.192C235.524 220.714 235.583 218.235 235.662 215.756C235.755 213.277 235.926 210.796 236.175 208.327C236.434 205.861 236.761 203.385 237.45 200.989C237.799 199.797 238.242 198.616 238.92 197.566C239.257 197.042 239.658 196.556 240.123 196.141C240.589 195.729 241.122 195.395 241.689 195.145C241.13 195.413 240.612 195.762 240.162 196.185C239.716 196.611 239.335 197.101 239.013 197.624C238.37 198.677 237.96 199.854 237.642 201.043C237.325 202.235 237.108 203.453 236.933 204.676C236.755 205.898 236.62 207.128 236.513 208.36C236.406 209.591 236.319 210.826 236.254 212.062L236.185 213.915L236.141 215.771C236.082 218.246 236.042 220.723 236.019 223.201L235.863 238.066L235.754 245.5C235.709 247.977 235.669 250.455 235.605 252.934Z" fill="#37474F"/>
<path d="M242.887 253.901C242.824 251.447 242.796 248.992 242.749 246.538L242.671 239.174C242.624 234.265 242.629 229.355 242.605 224.446C242.627 219.537 242.625 214.628 242.67 209.719L242.749 202.355C242.796 199.9 242.823 197.446 242.887 194.991C242.952 197.446 242.979 199.9 243.026 202.355L243.105 209.719C243.15 214.628 243.148 219.537 243.17 224.446C243.147 229.355 243.151 234.265 243.104 239.174L243.025 246.538C242.979 248.992 242.951 251.447 242.887 253.901Z" fill="#37474F"/>
<path d="M226.041 211.539C226.291 211.744 226.521 211.978 226.716 212.242C226.907 212.507 227.062 212.799 227.189 213.101C227.442 213.709 227.586 214.353 227.69 214.998C227.875 216.293 227.9 217.601 227.864 218.9C227.793 221.501 227.494 224.083 227.148 226.651C226.961 227.933 226.798 229.202 226.742 230.482C226.687 231.756 226.719 233.044 227.024 234.265C227.175 234.875 227.419 235.457 227.77 235.966C227.945 236.221 228.148 236.457 228.384 236.659C228.613 236.868 228.874 237.042 229.15 237.191C229.701 237.498 230.319 237.682 230.947 237.814C231.577 237.938 232.22 238.015 232.864 238.078C232.217 238.076 231.568 238.051 230.922 237.962C230.278 237.869 229.629 237.725 229.025 237.439C228.724 237.298 228.435 237.122 228.174 236.909C227.909 236.701 227.674 236.454 227.47 236.186C227.059 235.648 226.782 235.022 226.597 234.383C226.222 233.099 226.182 231.768 226.206 230.462C226.246 229.156 226.41 227.854 226.587 226.574C226.77 225.296 226.933 224.015 227.077 222.733C227.226 221.451 227.345 220.167 227.424 218.882C227.497 217.598 227.532 216.309 227.416 215.032C227.355 214.396 227.256 213.76 227.049 213.155C226.846 212.551 226.509 211.989 226.041 211.539Z" fill="#37474F"/>
<path d="M225.603 211.42C225.391 211.46 225.211 211.586 225.048 211.719C224.885 211.855 224.743 212.013 224.614 212.18C224.352 212.512 224.14 212.882 223.954 213.262C223.584 214.024 223.315 214.834 223.092 215.653C222.644 217.291 222.368 218.974 222.15 220.661C221.74 224.048 221.346 227.443 221.241 230.842C221.191 232.538 221.209 234.242 221.455 235.906C221.58 236.734 221.763 237.558 222.089 238.312C222.409 239.062 222.927 239.723 223.514 240.313C224.71 241.483 226.183 242.371 227.722 243.074C229.264 243.788 230.902 244.292 232.572 244.654C230.877 244.418 229.21 243.967 227.611 243.331C226.023 242.677 224.487 241.828 223.206 240.631C222.573 240.034 221.998 239.336 221.635 238.514C221.269 237.702 221.067 236.845 220.924 235.989C220.657 234.271 220.632 232.541 220.677 230.825C220.795 227.389 221.217 223.986 221.721 220.601C221.977 218.906 222.315 217.216 222.834 215.575C223.099 214.758 223.41 213.951 223.824 213.194C224.032 212.817 224.264 212.45 224.55 212.126C224.693 211.964 224.848 211.813 225.022 211.685C225.196 211.562 225.388 211.446 225.603 211.42Z" fill="#37474F"/>
<path d="M258.584 198.645C258.115 199.095 257.779 199.657 257.575 200.261C257.368 200.866 257.269 201.502 257.208 202.138C257.092 203.414 257.127 204.704 257.2 205.988C257.279 207.274 257.398 208.558 257.547 209.839C257.691 211.121 257.854 212.401 258.037 213.68C258.215 214.96 258.378 216.262 258.419 217.568C258.443 218.873 258.403 220.205 258.027 221.489C257.844 222.128 257.566 222.753 257.155 223.291C256.951 223.559 256.716 223.807 256.45 224.014C256.19 224.228 255.901 224.404 255.6 224.545C254.995 224.83 254.347 224.975 253.703 225.068C253.057 225.156 252.408 225.181 251.76 225.184C252.405 225.12 253.047 225.044 253.678 224.92C254.305 224.786 254.924 224.603 255.474 224.297C255.75 224.148 256.012 223.974 256.241 223.765C256.476 223.563 256.68 223.327 256.855 223.072C257.206 222.563 257.45 221.981 257.601 221.371C257.905 220.15 257.938 218.862 257.883 217.588C257.827 216.307 257.664 215.038 257.478 213.757C257.131 211.189 256.833 208.608 256.761 206.006C256.725 204.707 256.749 203.399 256.935 202.104C257.038 201.459 257.183 200.815 257.436 200.207C257.563 199.905 257.718 199.613 257.909 199.348C258.104 199.084 258.334 198.85 258.584 198.645Z" fill="#37474F"/>
<path d="M259.022 198.526C259.236 198.552 259.428 198.668 259.602 198.792C259.776 198.92 259.931 199.072 260.075 199.232C260.361 199.556 260.593 199.924 260.801 200.3C261.215 201.057 261.526 201.864 261.791 202.681C262.31 204.322 262.648 206.012 262.904 207.707C263.409 211.091 263.83 214.495 263.948 217.93C263.993 219.647 263.968 221.376 263.701 223.094C263.558 223.951 263.356 224.808 262.99 225.619C262.627 226.441 262.052 227.139 261.419 227.737C260.138 228.934 258.601 229.783 257.014 230.436C255.415 231.072 253.748 231.524 252.053 231.759C253.723 231.397 255.362 230.894 256.903 230.18C258.443 229.477 259.916 228.589 261.111 227.418C261.7 226.829 262.217 226.168 262.536 225.417C262.862 224.663 263.046 223.84 263.17 223.011C263.416 221.348 263.435 219.643 263.385 217.947C263.279 214.549 262.886 211.154 262.476 207.767C262.258 206.08 261.983 204.397 261.534 202.758C261.311 201.94 261.043 201.13 260.672 200.367C260.486 199.987 260.275 199.617 260.012 199.285C259.882 199.118 259.74 198.961 259.577 198.824C259.414 198.692 259.233 198.566 259.022 198.526Z" fill="#37474F"/>
<path d="M235.601 202.111C235.906 202.472 236.16 202.857 236.396 203.251C236.519 203.445 236.624 203.649 236.737 203.849C236.847 204.05 236.949 204.254 237.05 204.459L236.578 204.402C236.725 204.227 236.873 204.053 237.028 203.883C237.186 203.718 237.336 203.545 237.502 203.386C237.826 203.061 238.166 202.748 238.549 202.472C238.348 202.899 238.102 203.29 237.842 203.668C237.716 203.861 237.574 204.04 237.439 204.226C237.301 204.409 237.158 204.587 237.012 204.764L236.73 205.106L236.54 204.705C236.441 204.499 236.345 204.291 236.255 204.081C236.17 203.868 236.075 203.66 235.999 203.442C235.839 203.012 235.695 202.574 235.601 202.111Z" fill="#37474F"/>
<path d="M237.178 201.451C237.263 201.727 237.29 201.995 237.302 202.261C237.312 202.527 237.299 202.79 237.268 203.051C237.236 203.312 237.185 203.571 237.112 203.827C237.035 204.083 236.945 204.337 236.795 204.583C236.709 204.308 236.683 204.04 236.67 203.773C236.661 203.507 236.674 203.244 236.706 202.983C236.738 202.722 236.789 202.463 236.863 202.207C236.939 201.952 237.029 201.698 237.178 201.451Z" fill="#37474F"/>
<path d="M245.548 241.073C245.892 241.396 246.189 241.749 246.469 242.113C246.614 242.292 246.742 242.482 246.877 242.667C247.009 242.854 247.135 243.046 247.259 243.238L246.783 243.235C246.908 243.044 247.036 242.854 247.17 242.668C247.308 242.485 247.437 242.296 247.584 242.119C247.868 241.757 248.17 241.408 248.518 241.088C248.367 241.536 248.169 241.953 247.954 242.359C247.852 242.565 247.731 242.759 247.619 242.96C247.504 243.157 247.382 243.351 247.258 243.543L247.018 243.916L246.782 243.541C246.661 243.347 246.541 243.152 246.427 242.953C246.317 242.752 246.2 242.556 246.099 242.349C245.888 241.94 245.695 241.522 245.548 241.073Z" fill="#37474F"/>
<path d="M247.037 240.235C247.153 240.498 247.211 240.761 247.255 241.024C247.295 241.288 247.313 241.55 247.312 241.813C247.31 242.076 247.29 242.339 247.247 242.602C247.201 242.864 247.141 243.127 247.021 243.389C246.904 243.126 246.845 242.863 246.802 242.599C246.762 242.336 246.744 242.073 246.746 241.81C246.748 241.547 246.768 241.285 246.811 241.022C246.858 240.759 246.918 240.497 247.037 240.235Z" fill="#37474F"/>
<path d="M246.176 193.139C246.343 193.581 246.454 194.029 246.545 194.479C246.596 194.703 246.627 194.93 246.667 195.156C246.703 195.382 246.731 195.609 246.758 195.836L246.332 195.624C246.529 195.508 246.727 195.393 246.929 195.286C247.133 195.183 247.333 195.069 247.543 194.975C247.957 194.776 248.381 194.595 248.834 194.462C248.501 194.797 248.14 195.084 247.768 195.354C247.585 195.494 247.391 195.615 247.203 195.746C247.012 195.873 246.817 195.992 246.621 196.11L246.241 196.339L246.195 195.898C246.172 195.671 246.149 195.443 246.136 195.214C246.126 194.985 246.106 194.757 246.107 194.527C246.099 194.068 246.11 193.606 246.176 193.139Z" fill="#37474F"/>
<path d="M247.883 193.042C247.871 193.33 247.807 193.592 247.73 193.847C247.65 194.101 247.55 194.345 247.433 194.581C247.316 194.816 247.182 195.043 247.028 195.26C246.871 195.475 246.701 195.684 246.478 195.867C246.488 195.579 246.553 195.317 246.63 195.062C246.71 194.808 246.81 194.564 246.928 194.329C247.045 194.093 247.18 193.867 247.334 193.65C247.49 193.435 247.66 193.225 247.883 193.042Z" fill="#37474F"/>
<path d="M266.973 216.976C266.972 217.449 266.917 217.907 266.842 218.36C266.81 218.588 266.758 218.811 266.716 219.036C266.67 219.261 266.615 219.483 266.56 219.705L266.237 219.355C266.462 219.316 266.688 219.28 266.915 219.251C267.143 219.227 267.37 219.192 267.599 219.178C268.057 219.14 268.519 219.121 268.99 219.157C268.559 219.353 268.12 219.493 267.676 219.613C267.455 219.679 267.231 219.724 267.008 219.779C266.785 219.829 266.56 219.872 266.335 219.913L265.899 219.992L266.012 219.564C266.071 219.343 266.131 219.122 266.2 218.903C266.272 218.685 266.335 218.466 266.417 218.25C266.572 217.818 266.745 217.39 266.973 216.976Z" fill="#37474F"/>
<path d="M268.603 217.492C268.49 217.757 268.336 217.979 268.174 218.19C268.009 218.399 267.829 218.591 267.636 218.77C267.443 218.949 267.237 219.113 267.016 219.262C266.792 219.407 266.559 219.542 266.285 219.634C266.398 219.368 266.551 219.146 266.714 218.935C266.879 218.726 267.059 218.533 267.252 218.355C267.445 218.177 267.652 218.012 267.872 217.865C268.097 217.719 268.33 217.584 268.603 217.492Z" fill="#37474F"/>
<path d="M255.869 212.243C256.281 212.474 256.654 212.745 257.014 213.031C257.198 213.169 257.368 213.323 257.544 213.47C257.717 213.619 257.885 213.775 258.052 213.931L257.59 214.043C257.665 213.827 257.743 213.613 257.828 213.4C257.918 213.188 257.998 212.974 258.098 212.767C258.287 212.348 258.494 211.936 258.755 211.542C258.717 212.013 258.626 212.465 258.516 212.911C258.466 213.136 258.395 213.354 258.335 213.575C258.271 213.794 258.199 214.012 258.125 214.228L257.981 214.648L257.662 214.341C257.498 214.182 257.334 214.022 257.176 213.856C257.022 213.688 256.859 213.526 256.712 213.349C256.409 213.004 256.12 212.644 255.869 212.243Z" fill="#37474F"/>
<path d="M257.112 211.07C257.289 211.298 257.408 211.54 257.514 211.784C257.616 212.03 257.697 212.281 257.76 212.536C257.822 212.792 257.865 213.052 257.887 213.317C257.906 213.583 257.911 213.852 257.857 214.136C257.68 213.908 257.561 213.667 257.455 213.422C257.353 213.176 257.272 212.925 257.211 212.669C257.149 212.414 257.106 212.154 257.084 211.888C257.065 211.623 257.059 211.354 257.112 211.07Z" fill="#37474F"/>
<path d="M256.912 196.633C257.324 196.863 257.698 197.134 258.058 197.42C258.241 197.558 258.411 197.712 258.587 197.859C258.761 198.008 258.929 198.164 259.095 198.321L258.633 198.433C258.709 198.217 258.787 198.002 258.872 197.789C258.962 197.578 259.041 197.364 259.141 197.156C259.33 196.738 259.537 196.325 259.798 195.932C259.76 196.403 259.668 196.855 259.558 197.301C259.508 197.526 259.438 197.744 259.378 197.965C259.313 198.185 259.241 198.402 259.167 198.619L259.024 199.038L258.705 198.731C258.54 198.572 258.377 198.412 258.219 198.247C258.064 198.078 257.902 197.916 257.755 197.739C257.452 197.393 257.162 197.033 256.912 196.633Z" fill="#37474F"/>
<path d="M258.155 195.46C258.332 195.687 258.451 195.929 258.557 196.174C258.659 196.42 258.74 196.671 258.802 196.926C258.865 197.181 258.908 197.441 258.93 197.706C258.949 197.973 258.953 198.242 258.9 198.525C258.722 198.298 258.603 198.056 258.497 197.811C258.395 197.565 258.314 197.314 258.253 197.059C258.191 196.803 258.148 196.543 258.126 196.278C258.108 196.012 258.103 195.743 258.155 195.46Z" fill="#37474F"/>
<path d="M248.014 208.042C248.38 208.34 248.702 208.671 249.007 209.014C249.164 209.183 249.305 209.364 249.453 209.538C249.598 209.715 249.737 209.898 249.874 210.081L249.399 210.112C249.511 209.913 249.625 209.714 249.745 209.519C249.869 209.326 249.985 209.129 250.119 208.942C250.377 208.562 250.653 208.192 250.978 207.849C250.859 208.306 250.691 208.736 250.505 209.156C250.417 209.369 250.31 209.571 250.213 209.779C250.112 209.984 250.004 210.186 249.893 210.386L249.68 210.775L249.419 210.417C249.284 210.232 249.15 210.047 249.023 209.856C248.9 209.663 248.768 209.476 248.653 209.277C248.415 208.884 248.192 208.479 248.014 208.042Z" fill="#37474F"/>
<path d="M249.441 207.1C249.576 207.355 249.651 207.613 249.713 207.873C249.772 208.133 249.808 208.394 249.825 208.656C249.843 208.918 249.84 209.182 249.816 209.447C249.789 209.712 249.747 209.979 249.646 210.249C249.511 209.994 249.435 209.736 249.372 209.476C249.314 209.216 249.277 208.955 249.261 208.693C249.244 208.431 249.246 208.167 249.27 207.902C249.299 207.637 249.34 207.37 249.441 207.1Z" fill="#37474F"/>
<path d="M230.935 213.328C231.406 213.364 231.859 213.451 232.306 213.558C232.531 213.606 232.749 213.674 232.971 213.732C233.191 213.794 233.409 213.865 233.626 213.936L233.255 214.233C233.233 214.006 233.212 213.778 233.2 213.549C233.192 213.32 233.173 213.092 233.176 212.861C233.171 212.402 233.185 211.94 233.255 211.474C233.419 211.916 233.527 212.365 233.615 212.816C233.665 213.041 233.693 213.268 233.732 213.494C233.766 213.721 233.793 213.948 233.817 214.175L233.864 214.616L233.446 214.472C233.229 214.398 233.014 214.322 232.8 214.238C232.588 214.151 232.374 214.072 232.165 213.975C231.745 213.789 231.331 213.585 230.935 213.328Z" fill="#37474F"/>
<path d="M231.566 211.74C231.822 211.872 232.032 212.041 232.231 212.218C232.428 212.397 232.607 212.59 232.771 212.795C232.936 213.001 233.085 213.218 233.217 213.449C233.346 213.683 233.464 213.925 233.535 214.204C233.278 214.073 233.068 213.904 232.869 213.727C232.672 213.547 232.494 213.354 232.33 213.148C232.166 212.942 232.017 212.725 231.885 212.494C231.757 212.261 231.638 212.019 231.566 211.74Z" fill="#37474F"/>
<path d="M216.887 223.406C217.358 223.441 217.811 223.529 218.258 223.636C218.483 223.684 218.702 223.751 218.924 223.81C219.144 223.873 219.362 223.943 219.579 224.014L219.208 224.311C219.185 224.084 219.164 223.856 219.152 223.627C219.145 223.398 219.126 223.17 219.129 222.94C219.124 222.481 219.137 222.019 219.208 221.552C219.372 221.995 219.481 222.443 219.568 222.895C219.618 223.12 219.646 223.346 219.685 223.573C219.719 223.799 219.746 224.026 219.77 224.254L219.818 224.695L219.399 224.551C219.182 224.476 218.967 224.401 218.753 224.317C218.542 224.229 218.327 224.15 218.118 224.053C217.697 223.867 217.283 223.663 216.887 223.406Z" fill="#37474F"/>
<path d="M217.519 221.818C217.775 221.95 217.985 222.118 218.184 222.295C218.381 222.475 218.56 222.668 218.724 222.873C218.888 223.078 219.038 223.295 219.169 223.527C219.298 223.76 219.416 224.003 219.488 224.282C219.231 224.15 219.021 223.982 218.822 223.804C218.625 223.625 218.446 223.432 218.282 223.226C218.119 223.02 217.969 222.803 217.838 222.572C217.709 222.338 217.591 222.097 217.519 221.818Z" fill="#37474F"/>
<path d="M241.402 217.351C241.748 217.673 242.047 218.024 242.33 218.387C242.476 218.565 242.604 218.754 242.741 218.938C242.874 219.125 243 219.315 243.125 219.507H242.65C242.774 219.315 242.9 219.124 243.034 218.937C243.17 218.754 243.299 218.564 243.445 218.386C243.727 218.024 244.026 217.672 244.373 217.351C244.224 217.799 244.028 218.217 243.816 218.625C243.715 218.831 243.595 219.027 243.484 219.228C243.37 219.426 243.248 219.62 243.125 219.813L242.887 220.187L242.65 219.813C242.527 219.62 242.406 219.426 242.291 219.227C242.18 219.027 242.062 218.831 241.96 218.625C241.748 218.217 241.552 217.799 241.402 217.351Z" fill="#37474F"/>
<path d="M242.887 216.505C243.005 216.768 243.064 217.031 243.109 217.294C243.15 217.557 243.169 217.82 243.17 218.083C243.17 218.346 243.151 218.609 243.109 218.872C243.064 219.135 243.005 219.398 242.887 219.661C242.768 219.398 242.709 219.136 242.664 218.872C242.623 218.609 242.603 218.347 242.604 218.083C242.604 217.82 242.624 217.558 242.665 217.294C242.711 217.031 242.77 216.768 242.887 216.505Z" fill="#37474F"/>
<path d="M225.869 243.609C226.329 243.503 226.788 243.453 227.246 243.422C227.476 243.402 227.704 243.401 227.934 243.392C228.163 243.386 228.391 243.389 228.62 243.392L228.353 243.786C228.264 243.575 228.177 243.364 228.097 243.149C228.022 242.932 227.937 242.72 227.871 242.499C227.729 242.062 227.607 241.617 227.535 241.15C227.823 241.525 228.059 241.921 228.277 242.326C228.391 242.526 228.485 242.734 228.589 242.938C228.689 243.145 228.782 243.353 228.873 243.563L229.048 243.97L228.605 243.957C228.377 243.95 228.148 243.941 227.92 243.925C227.691 243.904 227.463 243.892 227.234 243.861C226.779 243.809 226.323 243.737 225.869 243.609Z" fill="#37474F"/>
<path d="M226.001 241.905C226.285 241.955 226.535 242.054 226.778 242.164C227.02 242.278 227.248 242.409 227.465 242.556C227.683 242.703 227.89 242.867 228.085 243.049C228.277 243.233 228.461 243.43 228.613 243.675C228.328 243.626 228.077 243.527 227.835 243.416C227.594 243.303 227.366 243.172 227.148 243.024C226.931 242.876 226.724 242.713 226.529 242.531C226.337 242.346 226.153 242.15 226.001 241.905Z" fill="#37474F"/>
<path d="M226.04 219.409C226.387 219.731 226.685 220.083 226.968 220.444C227.114 220.623 227.242 220.812 227.379 220.996C227.512 221.182 227.638 221.373 227.764 221.565H227.288C227.413 221.373 227.539 221.182 227.672 220.996C227.809 220.812 227.937 220.623 228.083 220.444C228.365 220.082 228.664 219.73 229.011 219.409C228.863 219.858 228.667 220.276 228.454 220.683C228.353 220.89 228.233 221.085 228.122 221.286C228.008 221.484 227.887 221.678 227.764 221.871L227.525 222.245L227.288 221.871C227.166 221.678 227.045 221.484 226.93 221.286C226.819 221.085 226.7 220.89 226.598 220.683C226.385 220.275 226.189 219.858 226.04 219.409Z" fill="#37474F"/>
<path d="M227.525 218.563C227.643 218.826 227.701 219.088 227.747 219.352C227.788 219.615 227.807 219.878 227.808 220.141C227.809 220.404 227.789 220.666 227.748 220.93C227.703 221.193 227.644 221.455 227.525 221.718C227.407 221.455 227.348 221.193 227.303 220.93C227.262 220.667 227.243 220.404 227.243 220.141C227.243 219.878 227.263 219.615 227.304 219.352C227.348 219.089 227.407 218.826 227.525 218.563Z" fill="#37474F"/>
<path d="M259.411 226.677C259.466 227.146 259.466 227.608 259.447 228.067C259.442 228.297 259.417 228.524 259.402 228.753C259.383 228.981 259.355 229.208 259.327 229.435L258.964 229.127C259.183 229.061 259.403 228.998 259.625 228.942C259.849 228.891 260.069 228.829 260.296 228.788C260.746 228.695 261.201 228.622 261.673 228.602C261.269 228.847 260.849 229.039 260.423 229.211C260.212 229.303 259.994 229.373 259.78 229.455C259.564 229.532 259.346 229.601 259.128 229.668L258.704 229.798L258.766 229.36C258.797 229.133 258.831 228.907 258.872 228.682C258.918 228.457 258.954 228.231 259.01 228.008C259.112 227.56 259.234 227.114 259.411 226.677Z" fill="#37474F"/>
<path d="M261.091 226.994C261.01 227.271 260.884 227.509 260.748 227.739C260.609 227.966 260.453 228.179 260.283 228.379C260.113 228.58 259.928 228.767 259.726 228.941C259.521 229.112 259.306 229.274 259.045 229.397C259.126 229.12 259.251 228.882 259.387 228.652C259.526 228.425 259.682 228.212 259.852 228.013C260.023 227.813 260.208 227.625 260.41 227.452C260.615 227.281 260.83 227.119 261.091 226.994Z" fill="#37474F"/>
<path d="M237.293 233.753C237.638 234.075 237.938 234.427 238.22 234.789C238.366 234.967 238.495 235.157 238.631 235.34C238.765 235.526 238.891 235.718 239.016 235.909H238.54C238.665 235.717 238.791 235.526 238.924 235.34C239.061 235.156 239.189 234.966 239.335 234.788C239.617 234.426 239.917 234.074 240.263 233.753C240.115 234.202 239.919 234.62 239.707 235.027C239.605 235.234 239.486 235.429 239.375 235.63C239.26 235.828 239.139 236.022 239.016 236.215L238.778 236.588L238.54 236.215C238.418 236.021 238.297 235.828 238.182 235.629C238.071 235.429 237.952 235.233 237.851 235.027C237.638 234.619 237.442 234.202 237.293 233.753Z" fill="#37474F"/>
<path d="M238.778 232.907C238.895 233.17 238.954 233.432 239 233.696C239.041 233.959 239.06 234.221 239.061 234.485C239.062 234.748 239.042 235.01 239 235.274C238.955 235.537 238.897 235.799 238.778 236.063C238.66 235.8 238.6 235.537 238.555 235.274C238.514 235.011 238.495 234.748 238.495 234.485C238.495 234.222 238.515 233.959 238.556 233.696C238.601 233.433 238.66 233.17 238.778 232.907Z" fill="#37474F"/>
<path d="M219.452 232.176C219.799 232.498 220.097 232.849 220.38 233.212C220.526 233.39 220.654 233.579 220.791 233.763C220.924 233.949 221.051 234.14 221.176 234.332H220.7C220.825 234.14 220.951 233.95 221.084 233.763C221.221 233.579 221.349 233.39 221.495 233.212C221.777 232.849 222.076 232.498 222.423 232.177C222.275 232.625 222.079 233.043 221.866 233.45C221.765 233.657 221.645 233.852 221.534 234.053C221.42 234.251 221.299 234.446 221.176 234.638L220.937 235.013L220.7 234.638C220.577 234.445 220.456 234.251 220.342 234.053C220.231 233.852 220.112 233.657 220.01 233.45C219.797 233.042 219.602 232.624 219.452 232.176Z" fill="#37474F"/>
<path d="M220.937 231.329C221.056 231.592 221.114 231.856 221.159 232.118C221.201 232.381 221.22 232.644 221.221 232.907C221.221 233.17 221.201 233.433 221.16 233.696C221.115 233.959 221.056 234.222 220.937 234.485C220.819 234.223 220.76 233.96 220.715 233.696C220.673 233.434 220.654 233.171 220.654 232.907C220.655 232.645 220.674 232.382 220.715 232.118C220.761 231.855 220.82 231.592 220.937 231.329Z" fill="#37474F"/>
<path d="M221.532 216.281C221.532 216.281 216.158 216.279 216.805 213.959C217.03 213.153 219.19 213.541 220.447 214.843C219.539 213.278 219.758 211.094 220.595 211.099C223.004 211.112 221.532 216.281 221.532 216.281Z" fill="#00989D"/>
<path opacity="0.2" d="M221.532 216.281C221.532 216.281 216.158 216.279 216.805 213.959C217.03 213.153 219.19 213.541 220.447 214.843C219.539 213.278 219.758 211.094 220.595 211.099C223.004 211.112 221.532 216.281 221.532 216.281Z" fill="black"/>
<path d="M221.532 216.281C219.466 217.841 216.512 217.115 216.359 215.941C216.187 214.605 219.704 215.403 219.704 215.403C219.704 215.403 216.666 212.82 218.102 211.736C219.539 210.652 221.189 214.282 221.189 214.282C221.189 214.282 221.386 210.68 222.623 211.213C223.712 211.682 223.599 214.721 221.532 216.281Z" fill="#00989D"/>
<path d="M262.526 202.319C262.526 202.319 259.694 197.751 262.007 197.078C262.81 196.844 263.62 198.884 263.176 200.638C264.027 199.042 265.998 198.077 266.435 198.79C267.694 200.844 262.526 202.319 262.526 202.319Z" fill="#00989D"/>
<path opacity="0.2" d="M262.526 202.319C262.526 202.319 259.694 197.751 262.007 197.078C262.81 196.844 263.62 198.884 263.176 200.638C264.027 199.042 265.998 198.077 266.435 198.79C267.694 200.844 262.526 202.319 262.526 202.319Z" fill="black"/>
<path d="M262.526 202.319C260.111 201.385 259.17 198.493 260.087 197.744C261.131 196.893 262.308 200.303 262.308 200.303C262.308 200.303 262.901 196.359 264.579 197.008C266.259 197.657 264.044 200.974 264.044 200.974C264.044 200.974 267.208 199.242 267.408 200.574C267.584 201.745 264.942 203.252 262.526 202.319Z" fill="#00989D"/>
<path d="M226.827 252.869H255.978L253.042 277.243H229.763L226.827 252.869Z" fill="#00989D"/>
<path opacity="0.1" d="M226.827 252.869L227.489 258.367L255.478 257.022L255.978 252.869H226.827Z" fill="black"/>
<path d="M257.809 249.79H224.996V254.148H257.809V249.79Z" fill="#00989D"/>
<path d="M181.283 122.062C181.337 122.386 181.162 122.749 180.83 122.837C180.062 122.992 179.138 123.164 178.101 123.362C174.831 117.253 171.533 112.487 172.479 114.391C173.849 117.145 175.113 121.199 175.417 123.866C174.213 124.087 171.418 124.574 170.018 124.817C166.462 113.784 162.665 105.748 163.16 108.313C165.158 118.658 164.962 122.088 164.687 125.761C151.652 128.02 134.531 130.793 122.111 132.533C119.89 126.467 117.784 119.862 117.625 120.362C116.372 124.108 116.554 129.286 117.011 133.235C113.054 133.761 109.881 134.108 107.935 134.224C107.935 134.224 106.351 129.086 106 127.375C105.086 123.021 105.008 118.449 105.737 114.039C106.504 109.493 108.295 105.34 109.957 101.103C109.969 101.068 109.982 101.033 109.999 101.009C109.994 100.997 110.005 100.991 110.012 100.974C111.144 98.0453 111.908 95.2811 112.298 92.4071C112.304 92.3891 112.311 92.3717 112.312 92.3417C112.575 90.3029 112.657 88.2209 112.55 85.9529C112.159 78.1637 115.666 70.9427 122.662 67.9913C134.737 53.3687 149.138 57.0623 154.523 66.4331C155.043 67.3469 155.569 68.4035 156.097 69.5621L156.113 69.5987C158.076 73.8803 160.058 79.5095 161.78 83.8355C161.774 83.8529 161.791 83.8595 161.791 83.8595C161.784 83.8769 161.789 83.8895 161.811 83.9075L161.816 83.9195C162.654 85.9775 163.414 87.7229 164.092 88.8809C168.56 96.4955 177.041 100.072 181.283 122.062Z" fill="#263238"/>
<path d="M119.769 70.5174C115.322 73.5978 112.859 77.5908 112.829 83.316C112.811 86.6526 112.995 89.8842 112.124 93.1416C111.226 96.504 109.495 99.3864 107.707 102.274C104.867 106.861 103.042 111.301 103.213 116.894C103.388 122.575 104.489 129.164 107.04 134.162C107.055 134.191 107.098 134.171 107.084 134.14C104.882 129.025 103.918 121.678 104.166 115.996C104.438 109.754 107.414 105.473 110.369 100.382C112.717 96.3366 113.997 92.0322 114.005 87.255C114.01 84.4266 113.605 81.5358 114.395 78.7716C115.339 75.4728 117.755 73.1448 120.178 71.0442C120.506 70.758 120.107 70.2834 119.769 70.5174Z" fill="#263238"/>
<path d="M173.149 96.5063C169.243 92.5565 165.278 89.2697 162.629 84.0899C160.217 79.3709 158.536 74.2733 156.091 69.5639C156.052 69.4877 155.937 69.5357 155.975 69.6173C159.887 78.0335 161.543 86.8163 168.134 93.4775C171.715 97.0967 175.258 100.422 177.892 104.973C180.659 109.754 182.236 114.897 183.073 120.434C183.101 120.627 183.349 120.584 183.343 120.396C183.058 111.3 179.283 102.708 173.149 96.5063Z" fill="#263238"/>
<path d="M122.556 67.2684C124.386 66.312 124.866 55.3644 117.179 51.1398C109.607 46.9794 101.194 53.8788 106.081 62.19C109.169 67.4424 118.685 69.2904 122.556 67.2684Z" fill="#263238"/>
<path d="M107.248 51.7397C105.317 53.7701 104.245 56.4365 104.034 59.0453C103.82 61.6799 104.92 64.2077 107.037 65.6855C109.11 67.2617 111.794 67.9547 114.469 68.2343C115.818 68.3531 117.189 68.3531 118.553 68.2241C119.923 68.1155 121.292 67.8767 122.557 67.2689C121.462 68.1857 120.044 68.6063 118.676 68.9693C117.284 69.2855 115.852 69.4541 114.41 69.4355C111.551 69.3881 108.553 68.7251 106.121 66.9227C104.924 66.0161 103.884 64.7999 103.318 63.3677C102.755 61.9385 102.613 60.3797 102.844 58.9181C103.288 55.9997 104.912 53.3261 107.248 51.7397Z" fill="#263238"/>
<path d="M155.582 129.863C180.452 148.403 214.559 190.185 210.93 200.266C206.888 211.494 172.225 185.473 172.067 183.668C171.948 182.304 157.138 156.022 146.036 136.958C134.945 117.911 149.432 125.278 155.582 129.863Z" fill="#EB9481"/>
<path d="M171.872 183.732C170.5 180.89 150.527 146.301 144.646 135.297C138.766 124.293 142.019 120.112 155.368 128.975C168.717 137.837 199.837 169.504 208.585 187.496C217.012 204.829 207.644 206.26 194.002 199.761C182.833 194.44 171.872 183.732 171.872 183.732Z" fill="#00989D"/>
<path d="M153.984 129.456C153.984 130.968 152.754 132.198 151.236 132.198C149.724 132.198 148.494 130.968 148.494 129.456C148.494 127.938 149.724 126.708 151.236 126.708C151.416 126.708 151.59 126.726 151.758 126.756C151.764 126.756 151.77 126.762 151.77 126.762C152.274 127.032 152.784 127.338 153.324 127.674C153.33 127.68 153.336 127.68 153.336 127.686C153.744 128.166 153.984 128.784 153.984 129.456ZM170.924 157.834C169.407 157.834 168.178 159.064 168.178 160.58C168.178 162.097 169.407 163.327 170.924 163.327C172.441 163.327 173.67 162.097 173.67 160.58C173.67 159.064 172.44 157.834 170.924 157.834ZM188.058 159.576C187.932 159.888 187.866 160.224 187.866 160.578C187.866 162.096 189.096 163.326 190.608 163.326C190.836 163.326 191.064 163.296 191.274 163.242C190.224 162.018 189.15 160.794 188.058 159.576ZM161.081 142.67C159.564 142.67 158.334 143.9 158.334 145.417C158.334 146.933 159.564 148.163 161.081 148.163C162.597 148.163 163.827 146.933 163.827 145.417C163.827 143.9 162.597 142.67 161.081 142.67ZM190.61 188.962C189.093 188.962 187.864 190.191 187.864 191.708C187.864 193.225 189.093 194.454 190.61 194.454C192.127 194.454 193.356 193.225 193.356 191.708C193.356 190.191 192.127 188.962 190.61 188.962ZM209.352 189.138C208.302 189.516 207.552 190.518 207.552 191.706C207.552 193.224 208.782 194.454 210.294 194.454C210.624 194.454 210.942 194.394 211.23 194.286C210.834 192.78 210.216 191.07 209.352 189.138ZM180.767 173.798C179.25 173.798 178.021 175.027 178.021 176.544C178.021 178.061 179.25 179.29 180.767 179.29C182.284 179.29 183.513 178.061 183.513 176.544C183.513 175.027 182.284 173.798 180.767 173.798ZM199.866 173.856C198.63 174.126 197.706 175.224 197.706 176.544C197.706 178.062 198.936 179.292 200.454 179.292C201.462 179.292 202.338 178.752 202.818 177.942C201.894 176.61 200.904 175.242 199.866 173.856Z" fill="white"/>
<path opacity="0.1" d="M211.361 200.498C209.615 204.82 202.673 203.89 194.005 199.763C182.836 194.439 171.87 183.734 171.87 183.734C170.498 180.891 150.529 146.298 144.646 135.297C140.44 127.434 140.9 123.057 146.374 124.428L211.361 200.498Z" fill="black"/>
<path d="M194.555 277.243H137.05C134.552 267.428 130.701 252.321 127.349 239.16C127.349 239.153 127.349 239.139 127.342 239.133C127.14 238.325 126.932 237.523 126.736 236.736C126.608 236.245 126.487 235.76 126.366 235.282C123.142 222.632 120.596 212.628 120.536 212.4C120.502 212.258 120.469 212.151 120.448 212.063C120.415 211.942 120.401 211.875 120.401 211.875H175.921L194.555 277.243Z" fill="#37474F"/>
<path d="M174.123 211.847C174.123 211.847 174.123 211.854 174.123 211.874C174.123 211.908 174.116 211.975 174.116 212.062C174.116 212.715 174.11 213.369 174.096 214.021C174.069 215.684 173.995 217.347 173.887 219.01C173.47 225.695 172.507 232.326 171.343 238.371C169.04 250.375 165.97 260.069 164.9 263.287C164.664 263.994 164.523 264.391 164.509 264.431C164.503 264.438 162.584 265.387 160.079 266.619C159.965 266.68 159.844 266.74 159.722 266.801C156.841 268.228 153.28 269.999 150.957 271.156C149.725 271.769 148.837 272.214 148.587 272.348C148.553 272.361 148.526 272.375 148.52 272.382C148.506 272.388 148.419 274.354 148.298 277.242H88.332C89.5302 267.07 89.6946 265.731 89.6946 265.731C89.3412 263.769 87.7722 258.711 88.332 252.837C89.5644 239.923 97.4868 213.991 98.2038 212.446C98.3718 212.069 98.4732 211.873 98.4732 211.873H98.7624L113.641 211.867L149.577 211.854H163.943L172.184 211.847H174.123Z" fill="#37474F"/>
<path d="M148.588 272.214V272.349C148.609 273.978 148.541 275.614 148.521 277.243H147.915C148.049 275.607 148.157 273.958 148.352 272.322C148.366 272.173 148.379 272.032 148.4 271.884C148.413 271.77 148.575 271.77 148.582 271.891C148.582 271.999 148.588 272.107 148.588 272.214Z" fill="#263238"/>
<path d="M141.397 275.361C143.947 273.591 146.698 272.107 149.397 270.582C152.158 269.022 154.959 267.527 157.834 266.188C163.447 263.575 169.372 261.69 175.276 259.857C175.427 259.81 175.526 260.053 175.379 260.117C169.692 262.561 164.179 265.36 158.522 267.87C155.676 269.133 152.807 270.342 149.958 271.597C147.109 272.853 144.331 274.275 141.459 275.472C141.383 275.503 141.33 275.407 141.397 275.361Z" fill="#263238"/>
<path d="M156.959 247.522C157.03 244.734 157.227 241.946 157.365 239.16C157.691 232.582 157.945 225.967 158.557 219.409C158.581 219.148 158.961 219.154 158.965 219.419C159.047 224.507 158.851 229.61 158.748 234.698C158.696 237.245 158.621 239.791 158.552 242.336C158.486 244.757 158.323 247.212 158.503 249.632C158.639 251.466 159.042 255.031 161.436 255.252C163.69 255.46 164.927 253.027 165.49 251.242C166.921 246.712 167.429 241.819 167.891 237.109C168.165 234.32 168.442 231.536 168.608 228.738C168.776 225.914 168.998 221.747 168.845 218.926C168.835 218.745 169.095 218.755 169.127 218.933C169.569 221.351 169.588 226.262 169.527 229.151C168.979 255.106 164.885 256.588 162.721 257.011C162.448 257.064 162.18 257.089 161.917 257.093C161.891 257.683 161.811 258.277 161.77 258.86C161.704 259.782 161.591 260.699 161.467 261.615C161.347 262.51 161.141 263.409 160.903 264.28C160.667 265.145 160.435 266.054 159.967 266.828C159.889 266.957 159.717 266.882 159.707 266.75C159.638 265.876 159.809 264.987 159.926 264.123C160.049 263.228 160.174 262.321 160.358 261.437C160.54 260.566 160.7 259.691 160.88 258.82C161 258.236 161.082 257.635 161.192 257.042C159.804 256.823 158.65 255.911 157.996 254.528C156.983 252.385 156.901 249.85 156.959 247.522Z" fill="#263238"/>
<path d="M104.543 242.595C108.167 242.848 111.742 243.315 115.378 242.883C118.799 242.476 122.075 241.307 124.811 239.185C130.787 234.55 133.406 226.968 135.023 219.855C135.059 219.696 135.295 219.726 135.277 219.892C134.601 226.061 133.271 232.44 129.29 237.405C127.553 239.571 125.425 241.398 122.935 242.642C120.347 243.936 117.404 244.377 114.536 244.371C111.175 244.363 107.732 243.861 104.482 243.012C104.222 242.946 104.268 242.576 104.543 242.595Z" fill="#263238"/>
<path d="M183.612 241.159C182.605 241.043 181.614 241.127 180.592 240.385C179.63 239.685 178.696 238.302 177.896 236.1C176.152 231.291 175.295 224.108 174.726 217.451C174.713 217.303 174.648 217.308 174.656 217.461C174.946 223.165 175.423 229.124 176.616 234.044C177.137 236.191 177.761 238.064 178.477 239.441C179.221 240.871 180.049 241.556 180.85 241.826C181.789 242.141 182.741 242.012 183.635 241.547C183.708 241.51 183.689 241.168 183.612 241.159Z" fill="#263238"/>
<path d="M103.9 213.639C101.954 224.303 99.648 235.117 97.5174 245.752C96.975 248.934 96.0252 252.075 96.2172 255.31C96.4446 258.568 97.053 261.814 97.758 265.006C97.4136 267.058 97.0818 269.113 96.7122 271.162C96.3528 273.19 96.0072 275.22 95.616 277.243C95.8038 275.191 96.0372 273.145 96.2562 271.098C96.4692 269.05 96.7194 267.006 96.9576 264.961C96.2214 262.582 95.391 258.451 95.127 255.386C95.0304 254.276 95.0322 253.105 95.205 252.004C95.8542 247.639 96.765 243.379 97.6782 239.101C99.5424 230.562 101.587 222.068 103.9 213.639Z" fill="#263238"/>
<path d="M176.786 212.69L172.679 186.86C172.679 186.86 180.737 176.736 175.451 165.645C172.782 160.027 156.779 132.168 147.076 125.29C137.974 118.837 123.317 123.496 119.276 130.484C109.079 148.118 103.246 169.088 97.3524 212.713L176.786 212.69Z" fill="#00989D"/>
<path d="M134.297 129.453C134.297 130.97 133.068 132.199 131.551 132.199C130.034 132.199 128.805 130.97 128.805 129.453C128.805 127.936 130.034 126.707 131.551 126.707C133.068 126.707 134.297 127.937 134.297 129.453ZM149.514 127.32C148.89 127.824 148.494 128.592 148.494 129.456C148.494 130.968 149.724 132.198 151.236 132.198C152.034 132.198 152.76 131.856 153.258 131.31C151.968 129.798 150.714 128.442 149.514 127.32ZM111.865 157.834C110.348 157.834 109.118 159.064 109.118 160.58C109.118 162.097 110.348 163.327 111.865 163.327C113.381 163.327 114.611 162.097 114.611 160.58C114.611 159.064 113.381 157.834 111.865 157.834ZM131.551 157.834C130.034 157.834 128.805 159.064 128.805 160.58C128.805 162.097 130.034 163.327 131.551 163.327C133.068 163.327 134.297 162.097 134.297 160.58C134.297 159.064 133.068 157.834 131.551 157.834ZM151.238 157.834C149.721 157.834 148.492 159.064 148.492 160.58C148.492 162.097 149.721 163.327 151.238 163.327C152.755 163.327 153.984 162.097 153.984 160.58C153.984 159.064 152.754 157.834 151.238 157.834ZM171.204 157.848C171.114 157.842 171.018 157.836 170.922 157.836C169.41 157.836 168.18 159.066 168.18 160.578C168.18 162.096 169.41 163.326 170.922 163.326C172.02 163.326 172.968 162.678 173.406 161.748C172.776 160.596 172.038 159.282 171.204 157.848ZM121.708 142.67C120.191 142.67 118.962 143.9 118.962 145.417C118.962 146.933 120.191 148.163 121.708 148.163C123.225 148.163 124.454 146.933 124.454 145.417C124.454 143.9 123.224 142.67 121.708 142.67ZM141.394 142.67C139.877 142.67 138.648 143.9 138.648 145.417C138.648 146.933 139.877 148.163 141.394 148.163C142.911 148.163 144.14 146.933 144.14 145.417C144.14 143.9 142.911 142.67 141.394 142.67ZM161.796 142.764C161.568 142.698 161.328 142.668 161.082 142.668C159.564 142.668 158.334 143.898 158.334 145.416C158.334 146.934 159.564 148.164 161.082 148.164C162.474 148.164 163.62 147.132 163.806 145.788C163.146 144.78 162.474 143.766 161.796 142.764ZM111.865 188.962C110.348 188.962 109.118 190.191 109.118 191.708C109.118 193.225 110.348 194.454 111.865 194.454C113.381 194.454 114.611 193.225 114.611 191.708C114.611 190.191 113.381 188.962 111.865 188.962ZM131.551 188.962C130.034 188.962 128.805 190.191 128.805 191.708C128.805 193.225 130.034 194.454 131.551 194.454C133.068 194.454 134.297 193.225 134.297 191.708C134.297 190.191 133.068 188.962 131.551 188.962ZM151.238 188.962C149.721 188.962 148.492 190.191 148.492 191.708C148.492 193.225 149.721 194.454 151.238 194.454C152.755 194.454 153.984 193.225 153.984 191.708C153.984 190.191 152.754 188.962 151.238 188.962ZM170.924 188.962C169.408 188.962 168.178 190.191 168.178 191.708C168.178 193.225 169.408 194.454 170.924 194.454C172.441 194.454 173.671 193.225 173.671 191.708C173.67 190.191 172.441 188.962 170.924 188.962ZM103.716 174.384C103.38 175.944 103.056 177.546 102.732 179.196C103.902 178.884 104.766 177.816 104.766 176.544C104.766 175.668 104.358 174.888 103.716 174.384ZM121.708 173.798C120.191 173.798 118.962 175.027 118.962 176.544C118.962 178.061 120.191 179.29 121.708 179.29C123.225 179.29 124.454 178.061 124.454 176.544C124.454 175.027 123.224 173.798 121.708 173.798ZM141.394 173.798C139.877 173.798 138.648 175.027 138.648 176.544C138.648 178.061 139.877 179.29 141.394 179.29C142.911 179.29 144.14 178.061 144.14 176.544C144.14 175.027 142.911 173.798 141.394 173.798ZM161.081 173.798C159.564 173.798 158.335 175.027 158.335 176.544C158.335 178.061 159.564 179.29 161.081 179.29C162.598 179.29 163.827 178.061 163.827 176.544C163.827 175.027 162.598 173.798 161.081 173.798ZM102.022 204.925C100.505 204.925 99.2754 206.154 99.2754 207.671C99.2754 209.188 100.505 210.417 102.022 210.417C103.538 210.417 104.768 209.188 104.768 207.671C104.768 206.154 103.538 204.925 102.022 204.925ZM121.708 204.925C120.191 204.925 118.962 206.154 118.962 207.671C118.962 209.188 120.191 210.417 121.708 210.417C123.225 210.417 124.454 209.188 124.454 207.671C124.454 206.154 123.224 204.925 121.708 204.925ZM141.394 204.925C139.877 204.925 138.648 206.154 138.648 207.671C138.648 209.188 139.877 210.417 141.394 210.417C142.911 210.417 144.14 209.188 144.14 207.671C144.14 206.154 142.911 204.925 141.394 204.925ZM161.081 204.925C159.564 204.925 158.335 206.154 158.335 207.671C158.335 209.188 159.564 210.417 161.081 210.417C162.598 210.417 163.827 209.188 163.827 207.671C163.827 206.154 162.598 204.925 161.081 204.925Z" fill="white"/>
<path d="M159.301 180.347C155.188 180.853 151.064 181.501 147.065 182.61C145.075 183.163 143.125 183.803 141.178 184.488C140.207 184.829 139.232 185.136 138.25 185.44C137.241 185.751 136.158 186.044 135.098 186.099C135.003 186.104 135.008 186.247 135.104 186.247C136.135 186.255 137.123 186.26 138.149 186.13C139.124 186.007 140.092 185.778 141.041 185.525C143.065 184.984 145.061 184.35 147.079 183.788C151.148 182.655 155.217 181.524 159.359 180.687C159.551 180.648 159.496 180.323 159.301 180.347Z" fill="#263238"/>
<path d="M169.594 183.807C166.198 183.528 162.736 183.408 159.328 183.518C157.614 183.572 155.917 183.726 154.214 183.925C153.401 184.02 152.59 184.13 151.78 184.249C150.889 184.38 150.014 184.632 149.122 184.751C149.029 184.763 149.032 184.908 149.128 184.899C149.972 184.812 150.835 184.866 151.684 184.829C152.537 184.792 153.389 184.748 154.242 184.709C155.949 184.634 157.656 184.577 159.363 184.485C162.78 184.301 166.183 184.153 169.604 184.088C169.789 184.084 169.77 183.821 169.594 183.807Z" fill="#263238"/>
<path d="M127.192 125.727C127.676 127.297 136.322 139.723 144.706 137.545C148.229 136.629 144.694 123.009 144.694 123.009L146.916 108.386L128.052 98.1702C128.052 98.1702 126.997 125.06 127.192 125.727Z" fill="#EB9481"/>
<path d="M146.914 108.385L144.758 122.579C140.57 121.239 132.502 117.544 127.669 108.284C127.872 102.811 128.053 98.1714 128.053 98.1714L146.914 108.385Z" fill="#263238"/>
<path d="M162.948 83.4127C170.342 106.483 157.359 113.518 152.383 115.107C147.865 116.549 132.299 120.886 122.56 98.7031C112.821 76.5193 121.21 65.7883 131.368 61.9423C141.526 58.0969 155.554 60.3409 162.948 83.4127Z" fill="#EB9481"/>
<path d="M157.639 80.3581C157.071 80.4289 156.535 80.4001 155.966 80.4121C155.324 80.4259 154.814 80.5027 154.25 80.1415C153.947 79.9483 153.841 79.4311 154.001 79.1191C154.375 78.3931 155.157 78.1807 155.929 78.1327C156.767 78.0805 157.426 78.2551 158.108 78.7423C158.767 79.2163 158.387 80.2639 157.639 80.3581Z" fill="#263238"/>
<path d="M141.395 86.6024C141.886 86.3078 142.388 86.1176 142.903 85.8758C143.484 85.6034 143.919 85.3268 144.581 85.4282C144.937 85.4822 145.243 85.9124 145.223 86.2622C145.175 87.077 144.546 87.5876 143.86 87.9446C143.114 88.3316 142.441 88.439 141.621 88.2686C140.826 88.1036 140.749 86.9918 141.395 86.6024Z" fill="#263238"/>
<path d="M146.616 90.7392C146.587 90.6816 146.512 90.8484 146.531 90.9132C147.012 92.4918 147.296 94.3812 145.998 95.2986C145.958 95.3274 145.984 95.406 146.035 95.3838C147.726 94.662 147.324 92.1582 146.616 90.7392Z" fill="#263238"/>
<path d="M144.745 89.46C142.13 89.9568 143.317 95.1486 145.738 94.6878C148.121 94.2348 146.936 89.0436 144.745 89.46Z" fill="#263238"/>
<path d="M143.788 89.9672C143.402 90.3644 143.076 90.9842 142.542 91.163C141.924 91.37 141.322 90.9356 140.789 90.5072C140.734 90.4628 140.699 90.5179 140.714 90.5869C140.927 91.5853 141.542 92.5183 142.643 92.4229C143.647 92.3359 144.144 91.2955 144.164 90.2389C144.167 90.0439 143.944 89.807 143.788 89.9672Z" fill="#263238"/>
<path d="M155.901 87.8912C155.901 87.827 156.044 87.9392 156.057 88.0064C156.36 89.6282 156.981 91.4354 158.556 91.649C158.605 91.6556 158.619 91.7372 158.563 91.742C156.729 91.883 155.929 89.4764 155.901 87.8912Z" fill="#263238"/>
<path d="M156.969 85.8914C159.517 85.124 160.864 90.2762 158.505 90.9872C156.181 91.6868 154.834 86.5352 156.969 85.8914Z" fill="#263238"/>
<path d="M158.132 85.9495C158.61 86.1163 159.143 86.5069 159.637 86.4115C160.21 86.3011 160.482 85.6351 160.702 85.0063C160.725 84.9415 160.777 84.9739 160.797 85.0417C161.082 86.0191 161.024 87.1297 160.128 87.5665C159.31 87.9649 158.455 87.2851 157.964 86.3659C157.873 86.1961 157.939 85.8823 158.132 85.9495Z" fill="#263238"/>
<path d="M149.083 103.278C149.54 103.588 150.023 104.041 150.621 103.984C151.195 103.929 151.81 103.554 152.292 103.26C152.339 103.23 152.401 103.275 152.377 103.33C152.069 104.029 151.253 104.58 150.476 104.584C149.719 104.589 149.24 104.02 148.94 103.38C148.898 103.29 149.016 103.233 149.083 103.278Z" fill="#263238"/>
<path d="M150.057 101.122C152.564 99.6672 153.958 99.735 155.62 99.4242C155.79 99.3408 156.152 99.0852 156.128 98.907L156.124 98.8956C156.105 98.8398 154.98 95.6532 154.98 95.6532C155.479 95.7312 157.991 96.0192 157.76 95.4138C155.828 90.4122 153.682 84.8502 150.704 80.2806C150.614 80.1246 150.369 80.2458 150.437 80.409C152.103 85.2894 154.615 89.8446 156.366 94.7202C155.58 94.677 154.28 94.5486 153.667 94.758C153.515 94.8594 155.053 98.1288 155.165 98.6754C155.165 98.6754 152.542 98.4486 149.771 100.896C149.153 101.441 149.141 101.653 150.057 101.122Z" fill="#263238"/>
<path d="M125.683 100.717C130.213 100.052 128.545 89.7127 128.545 89.7127C128.545 89.7127 146.315 81.3601 143.669 65.7343C143.669 65.7343 149.56 74.5237 160.547 76.1857C160.547 76.1857 155.261 59.7193 141.163 60.1597C141.163 60.1597 123.125 58.7575 117.535 74.3167C111.945 89.8759 122.641 101.164 125.683 100.717Z" fill="#263238"/>
<path d="M143.422 64.593C144.316 66.84 144.639 69.312 144.519 71.757C144.398 74.202 143.815 76.659 142.706 78.8688C142.474 79.4424 142.096 79.9404 141.797 80.4792L141.322 81.2718C141.142 81.5214 140.95 81.762 140.758 82.0026C140.369 82.4796 140.001 82.9734 139.596 83.4324C139.162 83.8656 138.718 84.2892 138.272 84.7068C138.047 84.9138 137.833 85.131 137.6 85.329L136.867 85.8756L135.403 86.9616C134.363 87.5886 133.294 88.1616 132.228 88.713C133.169 87.9468 134.168 87.291 135.084 86.529L136.419 85.3476L137.084 84.7608C137.292 84.5508 137.482 84.3228 137.681 84.105C138.073 83.6634 138.468 83.2272 138.872 82.8012C139.24 82.3446 139.57 81.858 139.921 81.3894L140.441 80.6838L140.881 79.9254C141.155 79.4112 141.508 78.936 141.72 78.3906C142.794 76.3116 143.369 74.0124 143.682 71.688C143.832 70.5204 143.869 69.3366 143.822 68.151C143.8 66.9612 143.653 65.7762 143.422 64.593Z" fill="#263238"/>
<path d="M128.751 97.6531C128.751 97.6531 121.918 91.4515 118.99 94.0513C116.063 96.6505 122.37 106.458 126.631 107.027C130.892 107.596 131.496 103.662 131.496 103.662L128.751 97.6531Z" fill="#EB9481"/>
<path d="M120.868 96.8172C120.803 96.8256 120.812 96.9174 120.871 96.927C123.88 97.4166 125.91 99.6402 127.528 102.058C126.476 101.225 125.234 100.92 124.091 102.205C124.031 102.273 124.125 102.37 124.199 102.336C125.272 101.837 126.131 101.848 127.098 102.578C127.783 103.096 128.336 103.82 128.891 104.471C129.076 104.689 129.49 104.455 129.332 104.193C129.321 104.174 129.307 104.154 129.295 104.134C128.566 100.607 124.72 96.3132 120.868 96.8172Z" fill="#263238"/>
<path d="M125.012 124.953C125.012 124.953 131.985 140.262 134.076 141.945C136.166 143.629 152.979 141.568 153.263 140.124C153.548 138.679 145.186 124.872 145.186 124.872C145.186 124.872 138.696 122.131 133.265 122.271C127.664 122.413 125.012 124.953 125.012 124.953Z" fill="#EB9481"/>
<path d="M209.624 200.03C204.9 207.166 195.625 210.089 162.506 217.456C157.924 218.475 138.887 189.984 143.249 187.498C149.054 184.189 174.262 178.946 176.066 178.786C191.285 177.43 212.828 195.19 209.624 200.03Z" fill="#EB9481"/>
<path d="M147.21 185.909C147.21 185.909 133.274 191.144 126.804 196.161C118.14 202.88 113.426 212.247 111.688 216.291C108.059 224.735 105.121 247.657 111.575 249.655C117.418 251.464 119.237 227.88 119.237 227.88C119.237 227.88 113.415 251.619 120.851 252.503C128.286 253.387 128.84 225.891 128.84 225.891C128.84 225.891 123.406 250.416 131.218 250.115C137.121 249.887 139.026 225.012 139.026 225.012C139.026 225.012 134.5 246.124 140.582 246.151C147.302 246.182 150.5 223.33 150.5 223.33C165.97 220.798 172.3 213.263 176.165 207.368C177.1 205.942 147.21 185.909 147.21 185.909Z" fill="#EB9481"/>
<path d="M120.725 219.541C119.94 222.305 119.127 225.097 118.591 227.921C118.054 230.745 117.616 233.591 117.344 236.451C116.68 243.47 117.361 247.968 117.349 247.685C117.07 241.005 118.833 230.866 119.37 228.041C119.905 225.223 120.299 222.378 120.833 219.558C120.846 219.487 120.743 219.476 120.725 219.541Z" fill="#263238"/>
<path d="M130.957 221.293C130.108 224.865 129.134 228.381 128.442 231.992C127.754 235.586 127.415 239.055 126.976 242.686C126.942 242.966 127.103 242.892 127.148 242.612C127.732 239.001 128.551 235.708 129.177 232.104C129.802 228.513 130.29 224.871 131.044 221.306C131.056 221.251 130.97 221.239 130.957 221.293Z" fill="#263238"/>
<path d="M140.009 221.217C138.431 226.61 137.851 232.288 137.414 237.871C137.393 238.149 137.59 238.031 137.629 237.748C138.388 232.196 138.943 227.835 140.197 221.272C140.217 221.169 140.043 221.104 140.009 221.217Z" fill="#263238"/>
<path d="M147.49 183.889L177.819 215.983C177.819 215.983 207.134 208.463 211.286 200.79C214.019 195.739 191.287 176.213 174.585 178.99L147.49 183.889Z" fill="#00989D"/>
<path d="M153.654 190.398L152.682 189.378C153.09 189.624 153.426 189.978 153.654 190.398ZM170.924 188.962C169.408 188.962 168.178 190.191 168.178 191.708C168.178 193.225 169.408 194.454 170.924 194.454C172.441 194.454 173.671 193.225 173.671 191.708C173.67 190.191 172.441 188.962 170.924 188.962ZM190.61 188.962C189.094 188.962 187.864 190.191 187.864 191.708C187.864 193.225 189.094 194.454 190.61 194.454C192.127 194.454 193.357 193.225 193.357 191.708C193.357 190.191 192.127 188.962 190.61 188.962ZM179.136 178.752C179.592 179.094 180.162 179.292 180.768 179.292C181.17 179.292 181.56 179.202 181.902 179.046C180.972 178.896 180.048 178.8 179.136 178.752ZM180.767 204.925C179.251 204.925 178.021 206.154 178.021 207.671C178.021 209.188 179.251 210.417 180.767 210.417C182.284 210.417 183.514 209.188 183.514 207.671C183.514 206.154 182.284 204.925 180.767 204.925ZM200.454 204.924C198.936 204.924 197.706 206.154 197.706 207.672C197.706 208.26 197.892 208.806 198.204 209.25C199.914 208.542 201.576 207.792 203.118 207.018C202.83 205.812 201.744 204.924 200.454 204.924Z" fill="white"/>
<path d="M185.655 210.343C182.544 206.678 179.242 203.182 175.929 199.695C172.614 196.206 169.306 192.709 165.904 189.302C163.982 187.378 162.07 185.441 160.081 183.583C160.029 183.535 159.935 183.609 159.983 183.666C163.087 187.327 166.379 190.84 169.663 194.343C172.955 197.854 176.287 201.334 179.648 204.78C181.548 206.728 183.483 208.64 185.471 210.499C185.568 210.592 185.746 210.451 185.655 210.343Z" fill="#263238"/>
<path d="M148.353 184.802L147.105 183.873L146.958 183.763C150.752 182.687 154.573 181.712 158.427 180.874C165.077 179.515 171.83 178.05 178.652 178.097C183.52 178.422 188.372 179.966 192.523 182.469C188.129 180.491 183.401 179.309 178.624 179.135C175.757 179.146 172.898 179.548 170.05 179.951C163.406 180.905 153.893 182.71 147.186 183.892L147.224 183.73L148.353 184.802Z" fill="#263238"/>
<path d="M116.558 148.241C118.774 184.241 127.919 211.802 143.054 211.592C153.107 211.453 146.121 181.786 146.002 181.148C145.594 178.963 141.7 160.802 131.719 141.92C120.738 121.148 115.568 132.157 116.558 148.241Z" fill="#EB9481"/>
<path d="M116.558 148.241C118.774 184.241 127.919 211.802 143.054 211.592C153.107 211.453 150.674 185.912 150.554 185.273C150.146 183.088 141.7 160.802 131.719 141.92C120.738 121.148 115.568 132.157 116.558 148.241Z" fill="#00989D"/>
<path d="M134.297 160.58C134.297 162.097 133.068 163.327 131.551 163.327C130.034 163.327 128.805 162.097 128.805 160.58C128.805 159.064 130.034 157.834 131.551 157.834C133.068 157.834 134.297 159.064 134.297 160.58ZM121.708 142.67C120.191 142.67 118.962 143.9 118.962 145.417C118.962 146.933 120.191 148.163 121.708 148.163C123.225 148.163 124.454 146.933 124.454 145.417C124.454 143.9 123.224 142.67 121.708 142.67ZM131.551 188.962C130.034 188.962 128.805 190.191 128.805 191.708C128.805 193.225 130.034 194.454 131.551 194.454C133.068 194.454 134.297 193.225 134.297 191.708C134.297 190.191 133.068 188.962 131.551 188.962ZM150.816 189C149.502 189.198 148.494 190.332 148.494 191.706C148.494 193.098 149.532 194.25 150.87 194.43C150.924 192.408 150.888 190.524 150.816 189ZM121.71 173.796C120.942 173.796 120.246 174.114 119.742 174.624C120.036 176.148 120.348 177.636 120.672 179.088C120.99 179.22 121.344 179.292 121.71 179.292C123.222 179.292 124.452 178.062 124.452 176.544C124.452 175.026 123.222 173.796 121.71 173.796ZM141.394 173.798C139.877 173.798 138.648 175.027 138.648 176.544C138.648 178.061 139.877 179.29 141.394 179.29C142.911 179.29 144.14 178.061 144.14 176.544C144.14 175.027 142.911 173.798 141.394 173.798ZM141.394 204.925C139.877 204.925 138.648 206.154 138.648 207.671C138.648 209.188 139.877 210.417 141.394 210.417C142.911 210.417 144.14 209.188 144.14 207.671C144.14 206.154 142.911 204.925 141.394 204.925Z" fill="white"/>
<path d="M132.955 144.317C136.197 150.647 139.186 157.098 142.121 163.574C144.949 170.093 147.898 176.591 150.001 183.391C144.847 170.399 138.422 157.192 132.955 144.317Z" fill="#263238"/>
<path d="M135.03 145.701C135.912 147.492 136.597 149.541 136.326 151.553C135.976 149.601 135.321 147.672 135.03 145.701Z" fill="#263238"/>
<path d="M148.475 209.441C157.753 207.073 171.125 184.342 178.549 159.119C179.962 154.318 142.285 139.141 141.367 144.413C138.421 161.335 131.608 183.752 133.19 197.019C134.42 207.337 142.058 211.078 148.475 209.441Z" fill="#EB9481"/>
<path d="M157.202 125.228C154.642 122.651 153.532 114.86 151.033 110.445C148.534 106.03 142.326 104.448 141.418 106.252C140.51 108.055 142.262 109.606 143.49 117.139C144.279 121.984 141.498 132.088 143.953 140.779C145.186 145.146 159.762 127.806 157.202 125.228Z" fill="#F7A9A0"/>
<path d="M157.202 125.228C154.642 122.651 153.532 114.86 151.033 110.445C148.534 106.03 142.326 104.448 141.418 106.252C140.51 108.055 142.262 109.606 143.49 117.139C144.279 121.984 141.498 132.088 143.953 140.779C145.186 145.146 159.762 127.806 157.202 125.228Z" fill="#EB9481"/>
<path opacity="0.06" d="M157.202 125.228C154.642 122.651 153.532 114.86 151.033 110.445C148.534 106.03 142.326 104.448 141.418 106.252C140.51 108.055 142.262 109.606 143.49 117.139C144.279 121.984 141.498 132.088 143.953 140.779C145.186 145.146 159.762 127.806 157.202 125.228Z" fill="black"/>
<path d="M172.705 99.6816C176.195 102.356 168.871 110.402 168.871 110.402C168.871 110.402 171.714 109.331 174.388 110.5C177.451 111.837 176.697 117.226 176.697 117.226C176.697 117.226 179.799 116.738 182.5 118.256C185.303 119.831 185.317 125.377 185.317 125.377C185.317 125.377 188.456 126.51 189.85 129.496C192.232 134.602 187.007 141.519 184.618 146.44C182.058 151.711 178.843 158.256 176.953 161.529L140.961 147.425C140.961 147.425 144.281 120.625 148.498 115.683C152.051 111.52 167.371 95.5938 172.705 99.6816Z" fill="#EB9481"/>
<path d="M168.717 110.398C163.878 113.918 159.89 118.589 156.092 123.138C156.007 123.24 156.167 123.371 156.251 123.268C159.976 118.699 165.012 115.017 168.911 110.606C169.019 110.484 168.847 110.303 168.717 110.398Z" fill="#263238"/>
<path d="M176.248 117.079C175.178 117.908 174.384 119.088 173.575 120.161C172.705 121.316 171.856 122.485 171.025 123.668C169.36 126.035 167.749 128.441 166.21 130.893C166.142 131.002 166.291 131.133 166.369 131.023C168.033 128.666 169.731 126.334 171.492 124.049C172.372 122.906 173.264 121.77 174.163 120.64C174.999 119.589 175.968 118.55 176.554 117.331C176.641 117.151 176.41 116.954 176.248 117.079Z" fill="#263238"/>
<path d="M185.245 125.475C184.285 126.158 183.635 127.413 182.987 128.378C182.251 129.472 181.509 130.563 180.761 131.649C179.265 133.821 177.768 135.992 176.197 138.111C176.119 138.217 176.276 138.347 176.356 138.241C177.964 136.097 179.599 133.974 181.187 131.815C181.967 130.755 182.741 129.69 183.509 128.622C184.162 127.713 185.081 126.652 185.357 125.546C185.372 125.483 185.293 125.44 185.245 125.475Z" fill="#263238"/>
<path d="M164.672 101.195C160.466 104.268 156.722 107.947 152.944 111.518C151.55 112.87 150.163 114.242 148.922 115.73C147.7 117.22 146.985 119.041 146.29 120.836C145.817 122.048 145.432 123.295 145.055 124.549C145.637 121.362 146.38 117.967 148.343 115.276C149.555 113.707 150.953 112.303 152.359 110.917C156.172 107.351 160.082 103.731 164.672 101.195Z" fill="#263238"/>
<path d="M134.912 154.714L171.756 181.219C171.756 181.219 156.803 211.632 148.475 211.874C140.146 212.117 130.645 207.637 129.365 187.679C129.044 182.68 134.912 154.714 134.912 154.714Z" fill="#00989D"/>
<path d="M134.298 160.578C134.298 161.436 133.908 162.198 133.29 162.708C133.536 161.46 133.77 160.302 133.974 159.282C134.178 159.672 134.298 160.11 134.298 160.578ZM131.55 188.964C130.758 188.964 130.044 189.3 129.546 189.84C129.69 191.34 129.894 192.744 130.14 194.058C130.548 194.31 131.034 194.454 131.55 194.454C133.068 194.454 134.298 193.224 134.298 191.706C134.298 190.188 133.068 188.964 131.55 188.964ZM151.238 188.962C149.721 188.962 148.492 190.191 148.492 191.708C148.492 193.225 149.721 194.454 151.238 194.454C152.755 194.454 153.984 193.225 153.984 191.708C153.984 190.191 152.754 188.962 151.238 188.962ZM141.394 173.798C139.877 173.798 138.648 175.027 138.648 176.544C138.648 178.061 139.877 179.29 141.394 179.29C142.911 179.29 144.14 178.061 144.14 176.544C144.14 175.027 142.911 173.798 141.394 173.798ZM163.53 175.302L161.478 173.826C161.346 173.808 161.214 173.796 161.082 173.796C159.564 173.796 158.334 175.026 158.334 176.544C158.334 178.062 159.564 179.292 161.082 179.292C162.6 179.292 163.83 178.062 163.83 176.544C163.83 176.1 163.722 175.674 163.53 175.302ZM141.394 204.925C139.877 204.925 138.648 206.154 138.648 207.671C138.648 209.188 139.877 210.417 141.394 210.417C142.911 210.417 144.14 209.188 144.14 207.671C144.14 206.154 142.911 204.925 141.394 204.925Z" fill="white"/>
<path d="M135.736 167.08C137.531 168.303 139.232 169.684 140.953 171.011C142.675 172.34 144.385 173.685 146.077 175.053C149.459 177.788 152.827 180.54 156.159 183.337C157.07 184.102 157.981 184.868 158.878 185.65C159.84 186.487 160.697 187.444 161.663 188.269C161.739 188.334 161.643 188.449 161.565 188.388C160.723 187.733 159.785 187.193 158.927 186.553C158.039 185.89 157.165 185.207 156.296 184.519C154.591 183.168 152.89 181.811 151.196 180.446C147.811 177.718 144.436 174.968 141.142 172.13C139.28 170.526 137.356 168.962 135.592 167.251C135.489 167.15 135.618 166.999 135.736 167.08Z" fill="#263238"/>
<path d="M139.084 157.715L134.843 154.81L135.029 154.739C133.846 161.954 132.469 169.134 131.22 176.331C130.699 179.456 130.117 182.594 129.911 185.755C129.783 189.83 130.194 193.914 131.062 197.937C129.698 194.047 128.977 189.891 128.932 185.74C129.23 178.851 130.773 172.08 132.164 165.351C132.974 161.719 133.858 158.104 134.844 154.514L134.982 154.617L139.084 157.715Z" fill="#263238"/>
<path d="M170.65 180.405L171.776 181.192L171.799 181.207C169.777 185.56 167.537 189.811 165.139 193.976C161.376 200.077 157.667 206.587 151.79 210.959C149.784 212.466 147.122 212.733 144.662 212.81C142.208 212.875 139.696 212.438 137.431 211.393C130.632 208.137 127.241 200.789 124.828 194.062C121.72 184.957 119.848 175.529 118.094 166.098C117.282 161.377 116.5 156.652 115.89 151.901C116.766 156.608 117.663 161.309 118.668 165.986C120.641 175.318 122.755 184.684 125.857 193.7C128.22 200.132 131.509 207.167 137.917 210.351C140 211.328 142.319 211.757 144.646 211.713C146.924 211.635 149.283 211.502 151.21 210.092C156.946 205.854 160.786 199.593 164.611 193.658C167.138 189.67 169.533 185.262 171.737 181.246C171.736 181.246 170.65 180.405 170.65 180.405Z" fill="#263238"/>
<path d="M114.999 155.178C114.999 155.178 114.641 156.879 117.052 159.87L114.999 155.178Z" fill="#263238"/>
<path d="M31.011 277.243C107.243 276.876 192.758 276.873 268.99 277.243C192.757 277.613 107.242 277.611 31.011 277.243Z" fill="#263238"/>
<path d="M164.476 67.0364C164.476 68.5316 165.688 69.743 167.182 69.743C168.677 69.743 169.889 68.531 169.889 67.0364C169.889 65.5412 168.677 64.3298 167.182 64.3298C165.687 64.3292 164.476 65.5412 164.476 67.0364Z" fill="white"/>
<path d="M164.476 67.0364C164.599 70.4636 169.51 70.3778 169.589 67.0364C169.507 63.6962 164.598 63.6116 164.476 67.0364ZM164.476 67.0364C164.584 63.2714 170.065 63.2396 170.189 67.0364C170.062 70.8314 164.584 70.799 164.476 67.0364Z" fill="#263238"/>
<path d="M176.846 68.7085C178.999 68.7085 180.743 66.9638 180.743 64.8115C180.743 62.6593 178.999 60.9146 176.846 60.9146C174.694 60.9146 172.949 62.6593 172.949 64.8115C172.949 66.9638 174.694 68.7085 176.846 68.7085Z" fill="white"/>
<path d="M172.949 64.8114C172.903 68.16 177.187 69.843 179.42 67.3848C180.778 65.9958 180.777 63.6276 179.419 62.2386C177.185 59.7834 172.903 61.4628 172.949 64.8114ZM172.949 64.8114C172.892 61.3284 177.266 59.4204 179.785 61.8726C181.444 63.3786 181.444 66.2436 179.784 67.749C177.265 70.1988 172.893 68.2944 172.949 64.8114Z" fill="#263238"/>
<path d="M211.866 73.9753C229.051 73.9753 242.981 63.6038 242.981 50.8099C242.981 38.016 229.051 27.6445 211.866 27.6445C194.681 27.6445 180.751 38.016 180.751 50.8099C180.751 63.6038 194.681 73.9753 211.866 73.9753Z" fill="white"/>
<path d="M181.603 45.4279C178.016 56.5441 186.221 66.6283 196.148 70.7041C205.962 74.8585 217.532 74.8423 227.308 70.6363C233.738 67.8829 239.66 62.9149 241.845 56.1013C246.466 40.7263 230.966 29.7769 217.302 28.1557C203.71 26.2387 186.572 31.4167 181.603 45.4279ZM181.603 45.4279C186.552 31.3729 203.676 26.1097 217.342 27.8569C224.433 28.7785 231.479 31.4977 236.705 36.5047C242.015 41.4133 244.801 49.2619 242.415 56.2843C236.138 73.8079 211.477 77.8783 196.073 70.8757C186.187 66.6751 177.954 56.5615 181.603 45.4279Z" fill="#263238"/>
<path d="M213.087 52.6622V54.9506C213.087 55.9352 212.348 56.6744 211.361 56.6744C210.447 56.6744 209.638 55.9352 209.638 54.9506V51.2894C209.638 51.2552 209.674 51.2552 209.674 51.2192C209.638 51.185 209.638 51.185 209.638 51.149C209.638 50.2334 210.447 49.4234 211.361 49.4234C213.58 49.4234 215.375 47.6636 215.375 45.4814C215.375 43.2644 213.58 41.5394 211.361 41.5394C209.918 41.5394 208.652 42.3146 207.982 43.4756C207.491 44.321 206.435 44.6018 205.589 44.1092C204.78 43.6178 204.499 42.596 204.992 41.7518C206.258 39.5696 208.652 38.0906 211.361 38.0906C215.446 38.0906 218.789 41.3996 218.789 45.482C218.789 48.9668 216.359 51.8882 213.087 52.6622ZM213.087 60.3704V61.004C213.087 61.9898 212.348 62.7296 211.361 62.7296C210.447 62.7296 209.638 61.9904 209.638 61.004V60.3704C209.638 59.4206 210.447 58.6466 211.361 58.6466C212.347 58.6466 213.087 59.42 213.087 60.3704Z" fill="#00989D"/>
</svg>
