<svg width="300" height="300" viewBox="0 0 300 300" fill="none" xmlns="http://www.w3.org/2000/svg">
<path d="M23.1894 84.503L29.094 90.311H62.2386V78.689H29.094L23.1894 84.503Z" fill="#EBEBEB"/>
<path d="M23.241 101.184L29.4294 106.692L62.5326 105.045L61.95 93.4382L28.8468 95.0846L23.241 101.184Z" fill="#EBEBEB"/>
<path d="M102.918 93.4046L96.5664 98.7242L63.5274 96.0848L64.4616 84.5L97.5 87.1394L102.918 93.4046Z" fill="#EBEBEB"/>
<path d="M58.5084 223.269H67.461L65.376 73.6802H60.5934L58.5084 223.269Z" fill="#DBDBDB"/>
<path d="M263.52 170.841C263.708 173.596 263.343 176.394 262.473 179.01C262.065 180.234 261.544 181.405 260.937 182.538C260.169 183.988 259.374 185.4 259.412 187.054C259.562 187.172 259.02 187.113 259.015 186.952C254.821 184.116 249.23 183.225 246.169 178.88C244.718 176.823 244.101 174.31 243.908 171.829C243.698 169.128 243.811 166.163 244.703 163.585C245.455 161.405 246.921 159.359 249.096 158.43C251.341 157.474 254.16 157.786 256.378 158.667C261.162 160.568 263.192 166.045 263.52 170.841Z" fill="#EBEBEB"/>
<path d="M263.267 203.49C262.822 201.448 262.378 199.406 261.917 197.368C261.014 193.377 260.063 189.396 258.973 185.45C258.321 183.087 257.621 180.743 256.874 178.416C257.141 177.011 257.312 175.604 257.725 174.216C258.223 172.544 258.883 170.941 259.507 169.315C259.546 169.215 259.384 169.149 259.334 169.243C258.172 171.46 256.661 174.295 256.42 177.008C255.545 174.374 254.594 171.768 253.553 169.196C253.647 167.078 253.727 165.024 254.231 162.925C254.254 162.831 254.111 162.791 254.086 162.885C253.618 164.645 253.238 166.54 253.229 168.4C252.429 166.465 251.578 164.55 250.66 162.657C250.577 162.487 250.339 162.636 250.41 162.804C251.814 166.105 253.093 169.464 254.275 172.858C252.423 170.943 250.12 169.424 247.704 168.345C247.598 168.298 247.503 168.45 247.611 168.505C250.347 169.905 252.592 171.758 254.671 174.004C255.517 176.488 256.312 178.99 257.059 181.503C254.521 178.601 250.901 176.541 247.341 175.311C247.22 175.269 247.172 175.457 247.289 175.502C251.396 177.092 254.479 179.727 257.455 182.838C257.75 183.855 258.039 184.872 258.32 185.891C259.385 189.755 260.377 193.639 261.315 197.535C261.765 199.403 262.205 201.273 262.634 203.146C263.096 205.161 263.416 207.275 264.068 209.236C264.13 209.423 264.459 209.407 264.434 209.186C264.22 207.273 263.677 205.369 263.267 203.49Z" fill="#DBDBDB"/>
<path d="M258.791 166.614C257.913 167.758 257.286 169.041 256.907 170.431C256.898 170.466 256.952 170.492 256.969 170.457C257.56 169.167 258.233 167.93 258.979 166.725C259.056 166.601 258.874 166.506 258.791 166.614Z" fill="#DBDBDB"/>
<path d="M250.261 175.15C249.175 174.417 247.707 173.791 246.426 173.521C246.391 173.514 246.364 173.565 246.4 173.583C247.013 173.894 247.664 174.129 248.285 174.424C248.91 174.721 249.514 175.069 250.147 175.346C250.278 175.404 250.384 175.234 250.261 175.15Z" fill="#DBDBDB"/>
<path d="M248.903 163.986C248.525 163.69 248.126 163.319 247.697 163.106C247.63 163.072 247.562 163.154 247.616 163.212C247.942 163.562 248.413 163.84 248.801 164.118C248.879 164.172 248.979 164.044 248.903 163.986Z" fill="#DBDBDB"/>
<path d="M277.96 177.885C274.856 179.019 271.73 180.084 268.625 181.208C268.356 181.308 262.375 171.393 263.98 165.996C265.463 160.999 269.326 157.09 274.099 155.129C276.31 154.222 279.046 153.406 281.464 153.784C283.615 154.123 285.22 155.766 286.033 157.718C287.14 160.371 287.027 163.625 286.688 166.425C286.372 169.021 285.589 171.607 284.016 173.729C282.46 175.83 280.381 177.001 277.96 177.885Z" fill="#EBEBEB"/>
<path d="M281.943 167.863C279.992 169.003 277.997 169.865 275.893 170.689C274.575 171.204 273.093 171.688 271.846 172.444C272.997 169.383 274.282 166.377 275.659 163.391C277.665 162.673 279.757 161.618 281.208 160.077C281.287 159.993 281.172 159.881 281.084 159.951C279.473 161.246 277.658 162.077 275.844 162.997C276.217 162.194 276.592 161.391 276.978 160.589C277.085 160.366 276.775 160.171 276.643 160.389C275.134 162.884 273.799 165.512 272.617 168.215C272.14 165.924 271.88 163.679 271.863 161.32C271.862 161.26 271.776 161.26 271.771 161.318C271.534 163.829 271.715 166.46 272.319 168.912C271.347 171.195 270.477 173.525 269.711 175.878C269.265 174.521 268.712 173.192 268.313 171.82C267.739 169.846 267.401 167.82 267.482 165.76C267.484 165.7 267.395 165.701 267.389 165.759C267.001 169.427 267.814 173.491 269.408 176.854C268.965 178.269 268.547 179.688 268.172 181.106C266.251 188.369 265.25 195.796 265.333 203.311C265.334 203.485 265.592 203.486 265.601 203.314C266.005 195.912 267.07 188.504 268.971 181.336C269.717 178.522 270.608 175.778 271.603 173.08C273.437 172.412 275.252 171.548 277.047 170.798C278.799 170.068 280.589 169.237 282.019 167.966C282.076 167.917 282.006 167.827 281.943 167.863Z" fill="#DBDBDB"/>
<path d="M284.708 164.705C282.816 165.512 281.042 166.589 279.153 167.407C279.065 167.445 279.126 167.585 279.216 167.561C281.234 167.013 283.223 166.255 284.788 164.812C284.848 164.755 284.773 164.677 284.708 164.705Z" fill="#DBDBDB"/>
<path d="M268.654 161.509C268.671 161.406 268.517 161.356 268.493 161.463C268.073 163.279 267.824 165.194 268.453 166.984C268.477 167.055 268.59 167.05 268.589 166.968C268.568 165.126 268.355 163.345 268.654 161.509Z" fill="#DBDBDB"/>
<path d="M276.392 156.895C275.795 157.763 275.635 158.953 275.741 159.979C275.748 160.047 275.859 160.08 275.872 159.998C276.045 158.964 276.381 158.009 276.633 157C276.67 156.851 276.477 156.772 276.392 156.895Z" fill="#DBDBDB"/>
<path d="M287.038 183.664C286.642 186.73 285.188 191.131 281.752 191.779C279.525 192.199 277.231 192.337 274.99 192.705C272.588 193.096 270.189 193.531 267.826 194.102C267.632 194.148 266.829 186.88 271.959 182.353C273.396 181.084 275.312 180.421 277.07 179.698C279.082 178.869 281.185 178.176 283.348 177.887C284.678 177.703 285.829 177.787 286.541 179.056C287.285 180.385 287.23 182.206 287.038 183.664Z" fill="#EBEBEB"/>
<path d="M283.912 180.475C282.577 181.085 281.24 181.751 279.916 182.448C280.222 181.992 280.517 181.531 280.874 181.109C281.387 180.5 281.978 179.981 282.547 179.427C282.594 179.38 282.543 179.282 282.479 179.322C281.292 180.052 280.153 181.337 279.568 182.629C277.919 183.507 276.299 184.441 274.753 185.424C273.656 186.121 272.669 186.896 271.766 187.75C272.006 186.973 272.211 186.184 272.588 185.46C273.174 184.333 274.109 183.597 274.983 182.715C275.066 182.632 274.962 182.513 274.866 182.578C272.787 183.985 271.705 185.86 271.249 188.248C270.218 189.302 269.314 190.478 268.514 191.797C265.481 196.803 263.512 203.095 264.551 208.969C264.576 209.109 264.808 209.108 264.809 208.958C264.845 202.932 266.212 197.281 269.279 192.06C269.495 191.694 269.72 191.341 269.953 190.996C270.98 190.699 271.993 190.374 273.057 190.2C274.286 189.999 275.53 189.943 276.768 189.825C278.806 189.628 281.032 189.254 282.664 187.92C282.736 187.861 282.657 187.731 282.573 187.78C278.795 189.972 274.225 188.866 270.332 190.467C271.763 188.501 273.502 186.901 275.615 185.547C275.729 185.473 275.845 185.404 275.96 185.331C278.608 185.179 281.467 185.365 283.841 184.07C283.912 184.032 283.862 183.923 283.787 183.957C281.456 185.003 278.978 184.655 276.549 184.964C278.988 183.474 281.515 182.184 283.964 180.7C284.171 180.574 284.14 180.371 283.912 180.475Z" fill="#DBDBDB"/>
<path d="M285.512 182.824C284.284 183.259 283.049 183.486 281.789 183.785C281.761 183.792 281.759 183.838 281.792 183.839C283.083 183.896 284.41 183.481 285.556 182.914C285.615 182.885 285.572 182.802 285.512 182.824Z" fill="#DBDBDB"/>
<path d="M276.543 181.86C275.897 182.221 275.361 182.919 274.907 183.493C274.852 183.563 274.961 183.665 275.024 183.599C275.3 183.312 275.587 183.036 275.878 182.765C276.143 182.518 276.451 182.304 276.685 182.026C276.758 181.94 276.639 181.806 276.543 181.86Z" fill="#DBDBDB"/>
<path d="M256.506 192.495C256.549 192.592 256.409 192.683 256.355 192.581C256.35 192.581 256.35 192.581 256.35 192.576C256.328 192.603 256.301 192.629 256.259 192.634C253.896 193.144 251.522 193.666 249.116 193.88C247.183 194.052 244.954 194.159 243.263 193.037C240.97 191.517 239.461 187.452 240.701 184.869C242.167 181.802 246.587 183.467 248.805 184.557C252.215 186.223 254.954 189.037 256.506 192.495Z" fill="#EBEBEB"/>
<path d="M258.221 193.913C256.92 192.64 255.481 191.581 253.956 190.666C252.91 188.891 251.306 187.417 249.631 186.259C249.547 186.201 249.476 186.334 249.553 186.393C250.996 187.504 252.124 188.808 253.197 190.226C251.491 189.274 249.686 188.49 247.846 187.792C247.205 186.617 246.161 185.518 244.972 184.912C244.948 184.9 244.918 184.933 244.942 184.952C245.979 185.764 246.812 186.607 247.538 187.676C246.451 187.27 245.353 186.892 244.255 186.529C244.156 186.496 244.119 186.646 244.213 186.682C246.166 187.446 248.164 188.251 250.099 189.18C247.656 189.507 245.456 189.583 242.971 189.159C242.905 189.147 242.876 189.241 242.942 189.26C245.34 189.945 248.089 190.071 250.506 189.373C251.741 189.98 252.946 190.642 254.093 191.382C253.133 191.257 252.167 191.426 251.194 191.619C249.496 191.956 247.836 192.256 246.098 192.196C246.033 192.194 246.016 192.3 246.082 192.312C249.038 192.82 251.833 191.477 254.763 191.826C255.848 192.572 256.874 193.395 257.815 194.319C259.656 196.126 261.129 198.286 262.265 200.598C263.498 203.108 264.167 205.768 265.164 208.362C265.208 208.476 265.366 208.432 265.346 208.312C264.493 203.198 261.946 197.559 258.221 193.913Z" fill="#DBDBDB"/>
<path d="M249.305 186.9C249.133 186.548 248.831 186.247 248.548 185.982C248.3 185.75 247.999 185.45 247.676 185.328C247.646 185.317 247.63 185.358 247.647 185.378C247.889 185.653 248.227 185.855 248.488 186.117C248.752 186.383 248.969 186.693 249.236 186.953C249.274 186.99 249.327 186.944 249.305 186.9Z" fill="#DBDBDB"/>
<path d="M244.43 188.488C243.992 188.378 243.527 188.386 243.082 188.295C242.631 188.203 242.212 188.041 241.775 187.903C241.718 187.885 241.684 187.969 241.735 187.999C242.455 188.427 243.59 188.79 244.43 188.625C244.5 188.611 244.496 188.504 244.43 188.488Z" fill="#DBDBDB"/>
<path d="M272.279 199.329L271.797 204.803L270.161 223.288H255.684L253.64 204.803L253.037 199.329H272.279Z" fill="#C7C7C7"/>
<path d="M272.279 199.329L271.797 204.803H253.64L253.037 199.329H272.279Z" fill="#A6A6A6"/>
<path d="M273.712 197.835H251.603V202.276H273.712V197.835Z" fill="#C7C7C7"/>
<path d="M271.769 59.9419H203.861C203.861 59.9419 210.594 41.5513 220.957 41.5513C231.319 41.5513 234.565 54.2455 234.565 54.2455C234.565 54.2455 241.556 47.3485 247.3 47.3485C253.043 47.3485 258.037 56.4625 258.037 56.4625C258.037 56.4625 266.151 51.5611 271.769 59.9419Z" fill="#EBEBEB"/>
<path d="M152.614 34.3861H120.879C120.879 34.3861 127.97 24.1123 133.557 24.1123C139.144 24.1123 140.795 30.9619 140.795 30.9619C140.795 30.9619 144.737 27.7657 148.391 28.3363C152.044 28.9069 152.614 34.3861 152.614 34.3861Z" fill="#EBEBEB"/>
<path d="M119.569 46.3633H57.753C57.753 46.3633 66.2184 27.4645 75.2736 26.2831C84.3294 25.1017 88.6602 40.3261 88.6602 40.3261C88.6602 40.3261 94.5006 34.9453 99.0936 34.9453C103.687 34.9453 107.231 42.0325 107.231 42.0325C107.231 42.0325 116.419 37.1761 119.569 46.3633Z" fill="#EBEBEB"/>
<path d="M15.0936 223.269L48.8202 223.123L82.5468 223.07L150 222.969L217.453 223.07L251.18 223.122L284.906 223.269L251.18 223.416L217.453 223.469L150 223.568L82.5468 223.468L48.8202 223.415L15.0936 223.269Z" fill="#263238"/>
<path d="M65.8128 271.855C94.5967 271.855 117.931 268.392 117.931 264.12C117.931 259.848 94.5967 256.385 65.8128 256.385C37.0289 256.385 13.695 259.848 13.695 264.12C13.695 268.392 37.0289 271.855 65.8128 271.855Z" fill="#EBEBEB"/>
<path d="M239.45 271.855C268.234 271.855 291.568 268.392 291.568 264.12C291.568 259.848 268.234 256.385 239.45 256.385C210.666 256.385 187.332 259.848 187.332 264.12C187.332 268.392 210.666 271.855 239.45 271.855Z" fill="#EBEBEB"/>
<path d="M154.428 256.609C192.427 256.609 223.232 254.341 223.232 251.544C223.232 248.747 192.427 246.479 154.428 246.479C116.429 246.479 85.6242 248.747 85.6242 251.544C85.6242 254.341 116.429 256.609 154.428 256.609Z" fill="#EBEBEB"/>
<path d="M194.019 76.6901L233.134 71.5781V229.73L194.019 234.842V76.6901Z" fill="#37474F"/>
<path d="M115.789 76.6901L154.904 71.5781V229.73L115.789 234.842V76.6901Z" fill="#263238"/>
<path d="M194.019 76.6901L154.904 71.5781V229.73L194.019 234.842V76.6901Z" fill="#263238"/>
<path d="M115.789 76.6901L76.6734 71.5781V229.73L115.789 234.842V76.6901Z" fill="#37474F"/>
<path d="M194.019 80.0586L229.402 75.4734V226.079L194.019 230.665V80.0586Z" fill="#DBDBDB"/>
<path d="M115.789 80.3412L154.904 75.4734V226.079L115.789 230.947V80.3412Z" fill="#DBDBDB"/>
<path d="M194.019 80.2003L154.904 75.6145V226.221L194.019 230.806V80.2003Z" fill="#EBEBEB"/>
<path d="M115.789 80.3412L80.4066 75.4734V226.079L115.789 230.947V80.3412Z" fill="#EBEBEB"/>
<path d="M111.657 79.7749L108.496 90.5803L107.751 93.1303L99.9498 119.766L99.4914 120.824L97.209 119.96L80.4078 113.62V110.786L98.1162 117.474L109.241 79.4419L111.657 79.7749Z" fill="white"/>
<path d="M148.22 76.3069L146.783 77.1769L144.29 78.6799L128.683 88.1005L126.563 89.3833L115.925 95.8039L115.787 95.7607L107.751 93.1303L106.643 92.7709L107.312 90.1939L108.496 90.5803L115.653 92.9209L115.787 92.8405L141.856 77.1013L141.86 77.0959H141.865L144.486 76.7743L145.861 76.6021H145.871L148.22 76.3069Z" fill="white"/>
<path d="M186.535 79.3235L184.501 87.8105L183.814 90.6773L172.551 137.507L171.93 140.105L171.921 140.138L163.565 136.89L160.672 135.693L154.866 133.299L154.145 132.998L152.971 131.141L126.563 89.3831L125.951 88.4171L127.9 86.8601L128.683 88.1003L140.347 106.545L141.917 109.03L155.663 130.765L170.293 136.605L177.845 105.246L178.519 102.444L184.133 79.0391L186.535 79.3235Z" fill="white"/>
<path d="M179.65 103.421L178.199 105.552L177.845 105.246L154.904 85.497L154.24 84.9283L152.808 84.0265L150.722 82.7166L144.29 78.6798L143.717 78.3199L144.486 76.7743L145.861 76.6021H145.871L146.783 77.1769L154.904 82.2871L155.62 82.7376L178.519 102.444L179.65 103.421Z" fill="white"/>
<path d="M229.4 113.834V116.739L223.184 113.823L220.954 112.777L193.386 99.8453L183.814 90.6773L182.248 89.1791L183.794 87.1343L184.501 87.8105L194.651 97.5317L229.4 113.834Z" fill="white"/>
<path d="M206.436 188.024L204.122 187.363L221.207 111.655L223.521 112.315L206.436 188.024Z" fill="white"/>
<path d="M229.4 178.079V180.886L200.266 191.096L197.951 191.907H197.946L194.599 193.082L158.69 226.664L155.372 226.273L167.757 214.694L170.249 212.359L181.168 202.149L183.136 200.313L193.439 190.678L204.229 186.898L206.903 185.959L229.4 178.079Z" fill="white"/>
<path d="M193.877 148.654L170.709 139.676L171.473 137.134L194.161 145.929L214.781 143.759L215.003 146.431L193.877 148.654Z" fill="white"/>
<path d="M141.609 109.752L139.465 108.572L151.216 81.5747L153.361 82.7549L141.609 109.752Z" fill="white"/>
<path d="M170.77 212.44L170.455 215.096L167.757 214.694L154.427 212.692L115.667 199.169L80.4078 203.083V200.383L104.266 197.737L107.402 197.393L115.911 196.448L116.145 196.529L138.284 204.253L140.786 205.123L154.942 210.061L170.249 212.359L170.77 212.44Z" fill="white"/>
<path d="M88.8918 145.216L80.4078 164.745V158.62L97.209 119.96L97.806 118.585L99.9498 119.766L99.4914 120.824L90.0378 142.586L88.8918 145.216Z" fill="white"/>
<path d="M107.799 197.812L106.157 199.76L104.266 197.737L80.4078 172.26V168.556L98.9664 188.38L100.871 190.409L107.402 197.393L107.799 197.812Z" fill="white"/>
<path d="M115.94 146.612L88.1082 145.172L88.218 142.49L115.639 143.91L154.556 130.597L155.251 133.164L115.94 146.612Z" fill="white"/>
<path d="M100.623 191.227L98.364 190.36L112.286 144.495L114.545 145.362L100.623 191.227Z" fill="white"/>
<path d="M229.4 158.045V160.751L213.052 158.711L212.016 158.582L212.279 155.914L213.644 156.086L229.4 158.045Z" fill="white"/>
<path d="M181.442 203.025L160.484 135.093L162.74 134.213L183.697 202.145L181.442 203.025Z" fill="white"/>
<path d="M139.556 206.681L137.774 204.895L154.15 184.249L173.093 172.554L174.242 174.907L155.658 186.379L139.556 206.681Z" fill="white"/>
<path d="M186.535 79.3235L184.501 87.8105L183.814 90.6773L172.551 137.507L171.93 140.105L171.921 140.138L163.565 136.89L160.672 135.693L154.866 133.299L154.145 132.998L152.971 131.141L126.563 89.3831L125.951 88.4171L127.9 86.8601L128.683 88.1003L140.347 106.545L141.917 109.03L155.663 130.765L170.293 136.605L177.845 105.246L178.519 102.444L184.133 79.0391L186.535 79.3235Z" fill="white"/>
<path d="M193.877 148.654L170.709 139.676L171.473 137.134L194.161 145.929L214.781 143.759L215.003 146.431L193.877 148.654Z" fill="white"/>
<path d="M170.769 212.44L170.456 215.098L167.754 214.693L154.426 212.694L139.087 207.34H139.076L123.446 201.883L115.666 199.171L80.4072 203.082V200.381L104.266 197.739L107.405 197.393L115.909 196.448L116.147 196.529L123.446 199.079L138.282 204.254L140.783 205.124H140.789L140.827 205.141L154.944 210.062L170.251 212.359L170.769 212.44Z" fill="white"/>
<path d="M183.698 202.148L181.439 203.022L173 175.674V175.668L172.206 173.102L160.666 135.698V135.693L160.482 135.093L160.763 134.985L162.74 134.213L163.567 136.892L175.124 174.36L183.698 202.148Z" fill="white"/>
<path d="M174.243 174.901V174.906L173 175.674L155.657 186.377L140.789 205.124L139.557 206.68L137.774 204.897L138.282 204.254L154.15 184.248L172.206 173.102L173.092 172.556L174.243 174.901Z" fill="white"/>
<path d="M217.034 227.684L214.494 228.012L197.951 191.907H197.946L197.488 190.903L199.612 189.674L200.266 191.096L217.034 227.684Z" fill="white"/>
<path d="M125.805 136.139L146.135 129.186L132.85 108.178L121.68 111.932L125.805 136.139Z" fill="#EBEBEB"/>
<path d="M199.693 139.487L211.304 138.265L216.605 115.16L204.094 109.292L199.693 139.487Z" fill="#EBEBEB"/>
<path d="M229.4 107.138L203.276 95.5026V78.8592L229.402 75.4734L229.4 107.138Z" fill="#EBEBEB"/>
<path d="M118.859 98.0358L125.363 94.1106L131.185 103.347L120.808 106.897L118.859 98.0358Z" fill="#EBEBEB"/>
<path d="M161.324 188.461L171.924 181.917L177.601 200.324L170.009 207.422L161.324 206.119V188.461Z" fill="#DBDBDB"/>
<path d="M160.654 81.201V76.269L181.712 78.7554L177.622 95.8038L160.654 81.201Z" fill="#DBDBDB"/>
<path d="M84.363 165.634L97.884 180.077L106.621 151.168L90.948 150.359L84.363 165.634Z" fill="#DBDBDB"/>
<path d="M84.1314 107.591V84.0811L103.234 86.8249L95.8638 112.023L84.1314 107.591Z" fill="#DBDBDB"/>
<path d="M84.1314 81.2004L103.234 83.9442L104.755 78.8232L84.1314 75.9858V81.2004Z" fill="#DBDBDB"/>
<path d="M119.777 226.966V204.934L133.787 209.848V225.222L119.777 226.966Z" fill="#EBEBEB"/>
<path d="M83.3886 206.649L94.2804 205.441V224.753L83.3874 223.254L83.3886 206.649Z" fill="#DBDBDB"/>
<path d="M220.44 222.794L208.29 196.282L229.4 188.884L229.402 221.631L220.44 222.794Z" fill="#EBEBEB"/>
<path d="M190.837 139.407V126.027L178.72 121.786L175.86 133.712L190.837 139.407Z" fill="#DBDBDB"/>
<path d="M163.566 136.893L175.125 174.364L174.243 174.904L173.003 175.666V175.672L155.659 186.377L140.829 205.138L139.088 207.34H139.077L123.445 201.884V199.08L138.28 204.257L154.151 184.25L172.207 173.101L160.665 135.699L160.67 135.693L160.762 134.987L161.04 132.911V132.894L170.301 136.58L174.289 120.004L176.547 120.886L171.921 140.138L163.566 136.893Z" fill="#00989D"/>
<path d="M184.239 104.523C183.785 99.9634 180.643 95.425 175.12 95.425C169.604 95.425 166.462 99.9634 166.009 104.523C165.31 111.561 170.058 117.935 175.12 123.752C180.189 117.935 184.937 111.561 184.239 104.523ZM175.12 109.585C172.363 109.585 170.128 107.351 170.128 104.593C170.128 101.835 172.363 99.601 175.12 99.601C177.885 99.601 180.119 101.835 180.119 104.593C180.119 107.351 177.885 109.585 175.12 109.585Z" fill="#263238"/>
<path d="M132.561 182.698C132.107 178.139 128.965 173.6 123.442 173.6C117.926 173.6 114.784 178.139 114.331 182.698C113.632 189.736 118.38 196.111 123.442 201.927C128.512 196.111 133.259 189.736 132.561 182.698ZM123.442 187.76C120.684 187.76 118.45 185.526 118.45 182.768C118.45 180.011 120.685 177.776 123.442 177.776C126.207 177.776 128.441 180.011 128.441 182.768C128.441 185.526 126.208 187.76 123.442 187.76Z" fill="#263238"/>
<path d="M219.825 136.168C219.955 136.46 220.1 136.744 220.262 137.026C220.653 137.704 221.154 138.349 221.771 138.947C225.296 142.358 229.426 143.751 233.377 143.683C234.67 143.666 235.946 143.487 237.173 143.171C240.05 142.438 242.675 140.951 244.684 138.962C245.679 137.989 246.52 136.896 247.177 135.71C250.786 129.188 251.805 122.096 251.068 115.667C251.055 115.538 251.041 115.408 251.024 115.278C251.022 115.235 251.014 115.188 251.008 115.145C251.003 115.123 251.003 115.101 250.998 115.079C250.978 114.91 250.952 114.743 250.928 114.573C250.544 111.941 249.865 109.433 248.958 107.138C248.952 107.126 248.95 107.115 248.944 107.104C248.6 106.242 248.227 105.414 247.818 104.616C247.34 103.675 246.822 102.783 246.265 101.946C243.994 98.5324 238.103 96.8746 234.341 99.6946C231.803 101.59 230.813 104.267 230.219 107.088C230.078 107.754 229.961 108.426 229.847 109.103C229.712 109.923 229.585 110.744 229.445 111.549C229.361 112.033 229.27 112.51 229.165 112.981C229.159 113.005 229.156 113.033 229.149 113.057C228.523 115.907 227.949 118.34 225.908 120.389C224.126 122.174 222.127 123.812 220.809 125.998C219.202 128.668 218.306 132.717 219.825 136.168Z" fill="#263238"/>
<path d="M218.147 130.104C218.587 127.445 220.09 125.268 222.016 123.453C223.218 122.322 224.509 121.28 225.515 119.96C226.49 118.681 227.203 117.226 227.768 115.725C229.109 112.163 229.621 108.354 230.992 104.799C231.008 104.756 231.074 104.783 231.058 104.826C229.146 110.243 229.001 116.608 225.014 121.097C223.123 123.225 220.729 124.81 219.438 127.43C218.189 129.962 217.92 132.997 219.389 135.498C220.886 138.047 223.591 139.483 226.343 140.288C226.433 140.314 226.394 140.471 226.301 140.449C221.486 139.335 217.277 135.376 218.147 130.104Z" fill="#263238"/>
<path d="M230.505 143.289C231.377 143.468 232.286 143.599 233.206 143.663C236.128 143.881 239.203 143.491 241.769 142.243C242.621 141.829 243.4 141.333 244.109 140.772C246.201 139.138 247.736 136.937 248.849 134.489C250.261 131.389 250.997 127.897 251.321 124.675C251.657 121.354 251.546 117.967 250.999 114.653C250.796 113.428 250.532 112.213 250.208 111.017C249.564 108.634 248.684 106.321 247.566 104.132C247.528 104.064 247.419 104.112 247.454 104.18C247.519 104.319 247.585 104.458 247.647 104.597C247.835 104.999 248.012 105.404 248.185 105.811C249.374 108.616 250.258 111.541 250.748 114.55C250.778 114.72 250.804 114.89 250.827 115.06C250.832 115.082 250.832 115.103 250.837 115.126C250.843 115.169 250.852 115.216 250.853 115.259C250.888 115.483 250.918 115.711 250.945 115.938C251.755 122.439 251.03 129.661 247.924 135.47C247.829 135.644 247.735 135.818 247.633 135.987C246.01 138.796 243.611 141.173 240.542 142.335C239.375 142.779 238.194 143.026 237.002 143.15C234.871 143.383 232.706 143.228 230.525 143.11C230.406 143.103 230.39 143.265 230.505 143.289Z" fill="#263238"/>
<path d="M222.556 122.12C223.648 121.241 224.851 120.486 225.85 119.496C227.018 118.339 227.662 116.871 228.196 115.343C229.277 112.257 230.206 109.098 231.079 105.948C231.084 105.93 231.109 105.941 231.105 105.958C230.297 108.918 229.552 111.887 228.609 114.809C228.191 116.104 227.753 117.426 226.983 118.562C226.29 119.585 225.335 120.378 224.365 121.124C222.188 122.796 220.126 124.558 218.763 126.985C217.304 129.583 216.856 132.702 218.121 135.468C218.133 135.494 218.093 135.512 218.081 135.486C215.625 130.517 218.65 125.263 222.556 122.12Z" fill="#263238"/>
<path d="M246.097 118.367C249.644 120.46 262.804 133.631 263.622 141.561C264.537 150.421 259.573 163.675 258.512 165.1C257.138 166.945 245.855 162.819 246.103 159.964C246.413 156.402 250.933 144.536 250.553 142.404C249.98 139.178 245.301 128.259 242.262 121.433C240.496 117.462 243.364 116.755 246.097 118.367Z" fill="#DD6A57"/>
<path d="M258.513 165.1C258.206 166.211 256.225 173.356 255.281 175.136C254.338 176.915 251.25 181.84 249.813 181.256C248.377 180.671 249.166 179.157 249.166 179.157C249.166 179.157 247.532 181.03 246.14 180.31C244.748 179.59 246.053 177.275 246.053 177.275C246.053 177.275 244.235 179.076 242.898 178.258C241.561 177.44 243.262 175.333 243.262 175.333C243.262 175.333 241.678 177.057 240.859 175.92C239.875 174.552 243.156 171.703 244.051 169.66C244.254 169.196 247.499 159.964 247.499 159.964L258.513 165.1Z" fill="#DD6A57"/>
<path d="M243.404 175.577C245.812 173.476 246.502 172.141 247.403 169.127C247.42 169.068 247.512 169.081 247.499 169.144C246.886 172.176 246.262 173.976 243.5 175.7C243.365 175.784 243.29 175.678 243.404 175.577Z" fill="#263238"/>
<path d="M246.143 177.5C248.454 175.099 249.215 173.657 250.39 170.57C250.407 170.526 250.483 170.549 250.469 170.595C249.57 173.72 248.906 175.502 246.283 177.597C246.164 177.692 246.038 177.609 246.143 177.5Z" fill="#263238"/>
<path d="M249.505 179.059C251.575 176.573 252.477 175.028 253.234 171.884C253.252 171.81 253.361 171.829 253.351 171.905C252.891 175.186 251.779 177.122 249.588 179.114C249.438 179.25 249.375 179.216 249.505 179.059Z" fill="#263238"/>
<path d="M246.595 157.549C246.595 157.549 243.953 160.558 243.084 162.136C242.215 163.714 241.142 170.786 242.656 171.104C244.611 171.516 246.035 167.555 246.479 165.524C246.479 165.524 251 166.48 252.638 163.859C254.275 161.237 246.595 157.549 246.595 157.549Z" fill="#DD6A57"/>
<path d="M243.23 171.041C245.284 170.13 245.695 167.427 246.272 165.489C246.316 165.341 246.451 165.325 246.556 165.381C248.478 165.655 251.269 165.482 252.666 163.982C252.707 163.938 252.775 163.991 252.74 164.04C251.46 165.851 248.732 166.245 246.646 165.81C246.085 167.807 245.554 170.5 243.238 171.062C243.225 171.065 243.217 171.047 243.23 171.041Z" fill="#263238"/>
<path d="M264.088 146.792C263.666 153.186 261.688 160.406 261.688 160.406L246.103 154.913C246.103 154.913 250.081 144.821 250.177 143.162C250.314 140.752 247.003 133.07 243.544 125.69C240.74 119.713 240.672 116.259 244.325 117.461C245.174 117.74 246.228 118.271 247.499 119.086C254.206 123.382 262.064 134.016 263.734 140.416C264.185 142.148 264.242 144.416 264.088 146.792Z" fill="#00989D"/>
<path d="M245.669 122.714C245.669 122.87 245.543 122.996 245.388 122.996C245.233 122.996 245.107 122.87 245.107 122.714C245.107 122.559 245.233 122.433 245.388 122.433C245.543 122.433 245.669 122.559 245.669 122.714Z" fill="white"/>
<path d="M250.53 122.714C250.53 122.87 250.404 122.996 250.249 122.996C250.093 122.996 249.967 122.87 249.967 122.714C249.967 122.559 250.093 122.433 250.249 122.433C250.404 122.433 250.53 122.559 250.53 122.714Z" fill="white"/>
<path d="M243.239 119.107C243.239 119.262 243.113 119.388 242.957 119.388C242.802 119.388 242.676 119.262 242.676 119.107C242.676 118.952 242.802 118.826 242.957 118.826C243.113 118.826 243.239 118.952 243.239 119.107Z" fill="white"/>
<path d="M250.53 130.006C250.53 130.161 250.404 130.287 250.249 130.287C250.093 130.287 249.967 130.161 249.967 130.006C249.967 129.85 250.093 129.724 250.249 129.724C250.404 129.724 250.53 129.85 250.53 130.006Z" fill="white"/>
<path d="M255.391 130.006C255.391 130.161 255.265 130.287 255.11 130.287C254.954 130.287 254.828 130.161 254.828 130.006C254.828 129.85 254.954 129.724 255.11 129.724C255.265 129.724 255.391 129.85 255.391 130.006Z" fill="white"/>
<path d="M248.1 126.398C248.1 126.554 247.974 126.68 247.819 126.68C247.663 126.68 247.537 126.554 247.537 126.398C247.537 126.243 247.663 126.117 247.819 126.117C247.974 126.117 248.1 126.243 248.1 126.398Z" fill="white"/>
<path d="M252.961 126.398C252.961 126.554 252.835 126.68 252.679 126.68C252.524 126.68 252.398 126.554 252.398 126.398C252.398 126.243 252.524 126.117 252.679 126.117C252.835 126.117 252.961 126.243 252.961 126.398Z" fill="white"/>
<path d="M250.249 137.579C250.404 137.579 250.53 137.453 250.53 137.297C250.53 137.142 250.404 137.016 250.249 137.016C250.093 137.016 249.967 137.142 249.967 137.297C249.967 137.453 250.093 137.579 250.249 137.579Z" fill="white"/>
<path d="M255.391 137.297C255.391 137.453 255.265 137.579 255.11 137.579C254.954 137.579 254.828 137.453 254.828 137.297C254.828 137.142 254.954 137.016 255.11 137.016C255.265 137.016 255.391 137.142 255.391 137.297Z" fill="white"/>
<path d="M260.252 137.297C260.252 137.453 260.126 137.579 259.971 137.579C259.816 137.579 259.69 137.453 259.69 137.297C259.69 137.142 259.816 137.016 259.971 137.016C260.126 137.016 260.252 137.142 260.252 137.297Z" fill="white"/>
<path d="M248.1 133.69C248.1 133.845 247.974 133.971 247.819 133.971C247.663 133.971 247.537 133.845 247.537 133.69C247.537 133.534 247.663 133.408 247.819 133.408C247.974 133.408 248.1 133.534 248.1 133.69Z" fill="white"/>
<path d="M252.961 133.69C252.961 133.845 252.835 133.971 252.679 133.971C252.524 133.971 252.398 133.845 252.398 133.69C252.398 133.534 252.524 133.408 252.679 133.408C252.835 133.408 252.961 133.534 252.961 133.69Z" fill="white"/>
<path d="M257.822 133.69C257.822 133.845 257.696 133.971 257.54 133.971C257.385 133.971 257.259 133.845 257.259 133.69C257.259 133.534 257.385 133.408 257.54 133.408C257.696 133.408 257.822 133.534 257.822 133.69Z" fill="white"/>
<path d="M250.249 144.87C250.404 144.87 250.53 144.744 250.53 144.589C250.53 144.433 250.404 144.307 250.249 144.307C250.093 144.307 249.967 144.433 249.967 144.589C249.967 144.744 250.093 144.87 250.249 144.87Z" fill="white"/>
<path d="M255.391 144.589C255.391 144.744 255.265 144.87 255.11 144.87C254.954 144.87 254.828 144.744 254.828 144.589C254.828 144.433 254.954 144.307 255.11 144.307C255.265 144.307 255.391 144.433 255.391 144.589Z" fill="white"/>
<path d="M260.252 144.589C260.252 144.744 260.126 144.87 259.971 144.87C259.816 144.87 259.69 144.744 259.69 144.589C259.69 144.433 259.816 144.307 259.971 144.307C260.126 144.307 260.252 144.433 260.252 144.589Z" fill="white"/>
<path d="M252.961 140.981C252.961 141.137 252.835 141.263 252.679 141.263C252.524 141.263 252.398 141.137 252.398 140.981C252.398 140.826 252.524 140.7 252.679 140.7C252.835 140.7 252.961 140.826 252.961 140.981Z" fill="white"/>
<path d="M257.822 140.981C257.822 141.137 257.696 141.263 257.54 141.263C257.385 141.263 257.259 141.137 257.259 140.981C257.259 140.826 257.385 140.7 257.54 140.7C257.696 140.7 257.822 140.826 257.822 140.981Z" fill="white"/>
<path d="M262.683 140.981C262.683 141.137 262.557 141.263 262.402 141.263C262.246 141.263 262.12 141.137 262.12 140.981C262.12 140.826 262.246 140.7 262.402 140.7C262.557 140.7 262.683 140.826 262.683 140.981Z" fill="white"/>
<path d="M250.53 151.88C250.53 152.035 250.404 152.161 250.249 152.161C250.093 152.161 249.967 152.035 249.967 151.88C249.967 151.724 250.093 151.598 250.249 151.598C250.404 151.598 250.53 151.724 250.53 151.88Z" fill="white"/>
<path d="M255.391 151.88C255.391 152.035 255.265 152.161 255.11 152.161C254.954 152.161 254.828 152.035 254.828 151.88C254.828 151.724 254.954 151.598 255.11 151.598C255.265 151.598 255.391 151.724 255.391 151.88Z" fill="white"/>
<path d="M260.252 151.88C260.252 152.035 260.126 152.161 259.971 152.161C259.816 152.161 259.69 152.035 259.69 151.88C259.69 151.724 259.816 151.598 259.971 151.598C260.126 151.598 260.252 151.724 260.252 151.88Z" fill="white"/>
<path d="M252.961 148.272C252.961 148.428 252.835 148.554 252.679 148.554C252.524 148.554 252.398 148.428 252.398 148.272C252.398 148.117 252.524 147.991 252.679 147.991C252.835 147.991 252.961 148.117 252.961 148.272Z" fill="white"/>
<path d="M257.822 148.272C257.822 148.428 257.696 148.554 257.54 148.554C257.385 148.554 257.259 148.428 257.259 148.272C257.259 148.117 257.385 147.991 257.54 147.991C257.696 147.991 257.822 148.117 257.822 148.272Z" fill="white"/>
<path d="M262.683 148.272C262.683 148.428 262.557 148.554 262.402 148.554C262.246 148.554 262.12 148.428 262.12 148.272C262.12 148.117 262.246 147.991 262.402 147.991C262.557 147.991 262.683 148.117 262.683 148.272Z" fill="white"/>
<path d="M260.252 159.171C260.252 159.326 260.126 159.452 259.971 159.452C259.816 159.452 259.69 159.326 259.69 159.171C259.69 159.015 259.816 158.889 259.971 158.889C260.126 158.889 260.252 159.015 260.252 159.171Z" fill="white"/>
<path d="M252.961 155.564C252.961 155.719 252.835 155.845 252.679 155.845C252.524 155.845 252.398 155.719 252.398 155.564C252.398 155.408 252.524 155.282 252.679 155.282C252.835 155.282 252.961 155.408 252.961 155.564Z" fill="white"/>
<path d="M257.822 155.564C257.822 155.719 257.696 155.845 257.54 155.845C257.385 155.845 257.259 155.719 257.259 155.564C257.259 155.408 257.385 155.282 257.54 155.282C257.696 155.282 257.822 155.408 257.822 155.564Z" fill="white"/>
<path d="M262.683 155.564C262.683 155.719 262.557 155.845 262.402 155.845C262.246 155.845 262.12 155.719 262.12 155.564C262.12 155.408 262.246 155.282 262.402 155.282C262.557 155.282 262.683 155.408 262.683 155.564Z" fill="white"/>
<path d="M264.088 146.792C263.666 153.186 261.688 160.406 261.688 160.406L246.103 154.913C246.103 154.913 250.081 144.821 250.177 143.162C250.314 140.752 247.003 133.07 243.544 125.69C240.74 119.713 240.672 116.259 244.325 117.461L264.088 146.792Z" fill="#263238"/>
<path d="M242.689 118.067C242.605 118.565 240.462 121.889 238.216 121.922C237.484 121.931 237.254 117.941 237.254 117.941L237.17 117.65L235.993 113.58L240.649 110.171L241.324 109.716C241.324 109.716 241.573 110.85 241.868 112.267C241.882 112.332 241.897 112.398 241.91 112.469C241.929 112.548 241.948 112.623 241.962 112.698C242.009 112.91 242.056 113.125 242.098 113.341C242.131 113.505 242.164 113.664 242.192 113.838C242.225 114.011 242.253 114.18 242.285 114.354C242.572 116.07 242.722 117.857 242.689 118.067Z" fill="#DD6A57"/>
<path d="M241.868 112.267C240.889 115.625 238.347 117.125 237.17 117.65L235.993 113.58L240.649 110.171L241.324 109.716C241.324 109.716 241.573 110.85 241.868 112.267Z" fill="#263238"/>
<path d="M230.623 106.474C228.896 113.707 232.999 115.625 234.594 115.928C236.024 116.199 240.875 117.23 243.34 110.214C245.804 103.198 242.987 100.109 239.789 99.168C236.59 98.2278 232.349 99.2406 230.623 106.474Z" fill="#DD6A57"/>
<path d="M231.225 105.265C231.401 105.266 231.563 105.238 231.737 105.221C231.933 105.202 232.091 105.207 232.25 105.077C232.336 105.008 232.349 104.846 232.289 104.757C232.15 104.549 231.904 104.513 231.667 104.526C231.409 104.54 231.215 104.617 231.025 104.79C230.84 104.958 230.993 105.263 231.225 105.265Z" fill="#263238"/>
<path d="M235.964 105.964C235.793 105.925 235.641 105.861 235.475 105.804C235.289 105.741 235.133 105.71 235.009 105.547C234.941 105.459 234.965 105.299 235.044 105.226C235.228 105.056 235.475 105.076 235.703 105.143C235.951 105.216 236.123 105.335 236.268 105.547C236.409 105.752 236.19 106.015 235.964 105.964Z" fill="#263238"/>
<path d="M234.587 107.731C234.594 107.712 234.623 107.76 234.619 107.781C234.53 108.279 234.511 108.866 234.94 109.098C234.953 109.106 234.947 109.131 234.931 109.126C234.39 108.967 234.422 108.189 234.587 107.731Z" fill="#263238"/>
<path d="M235.112 107.274C235.927 107.331 235.752 108.956 234.997 108.903C234.254 108.851 234.429 107.226 235.112 107.274Z" fill="#263238"/>
<path d="M235.421 107.394C235.553 107.501 235.675 107.678 235.844 107.714C236.041 107.754 236.208 107.6 236.355 107.451C236.37 107.435 236.383 107.451 236.381 107.472C236.352 107.784 236.198 108.091 235.859 108.101C235.55 108.111 235.361 107.811 235.316 107.49C235.309 107.431 235.369 107.351 235.421 107.394Z" fill="#263238"/>
<path d="M231.971 107.225C231.97 107.205 231.929 107.244 231.928 107.265C231.894 107.771 231.77 108.344 231.297 108.466C231.283 108.47 231.281 108.495 231.298 108.495C231.863 108.471 232.02 107.709 231.971 107.225Z" fill="#263238"/>
<path d="M231.574 106.654C230.77 106.512 230.544 108.131 231.289 108.263C232.022 108.392 232.248 106.773 231.574 106.654Z" fill="#263238"/>
<path d="M231.221 106.713C231.082 106.781 230.933 106.92 230.779 106.908C230.6 106.895 230.494 106.702 230.404 106.518C230.395 106.499 230.38 106.511 230.377 106.532C230.325 106.841 230.383 107.177 230.671 107.278C230.935 107.37 231.171 107.132 231.287 106.834C231.31 106.779 231.278 106.686 231.221 106.713Z" fill="#263238"/>
<path d="M234.387 111.581C234.285 111.716 234.19 111.896 234.011 111.939C233.839 111.981 233.623 111.934 233.454 111.897C233.437 111.893 233.424 111.912 233.436 111.926C233.596 112.098 233.887 112.176 234.113 112.099C234.334 112.025 234.416 111.812 234.439 111.596C234.442 111.566 234.401 111.561 234.387 111.581Z" fill="#263238"/>
<path d="M232.352 109.615C232.352 109.615 232.159 110.354 232.117 110.708C232.113 110.741 232.196 110.767 232.316 110.788C232.321 110.79 232.324 110.793 232.33 110.79C232.943 110.962 233.599 110.822 234.04 110.356C234.068 110.324 234.028 110.282 233.993 110.301C233.485 110.588 232.958 110.615 232.403 110.558C232.39 110.457 232.776 109.304 232.721 109.293C232.529 109.253 232.132 109.339 231.895 109.379C232.253 107.829 232.857 106.349 233.191 104.8C233.201 104.744 233.123 104.718 233.101 104.766C232.358 106.272 231.907 108.047 231.496 109.638C231.443 109.838 232.204 109.658 232.352 109.615Z" fill="#263238"/>
<path d="M232.36 110.583C232.36 110.583 232.609 111.121 233.047 111.388C233.208 111.487 233.39 111.551 233.598 111.539C234.025 111.517 234.112 111.149 234.104 110.816C234.098 110.542 234.024 110.292 234.024 110.292C234.024 110.292 233.319 110.721 232.36 110.583Z" fill="#263238"/>
<path d="M233.047 111.388C233.208 111.487 233.39 111.551 233.598 111.539C234.025 111.517 234.112 111.149 234.104 110.816C233.662 110.77 233.171 110.975 233.047 111.388Z" fill="#FF98B9"/>
<path d="M243.215 109.972C242.417 109.81 240.635 107.3 241.12 103.406C241.12 103.406 240.926 106.933 241.116 107.482C241.306 108.03 240.121 106.07 240.468 102.924C240.468 102.924 238.555 103.931 237.017 104.137C235.479 104.343 234.575 104.201 234.485 104.079C234.394 103.957 236.669 103.579 237.353 102.983C237.353 102.983 233.159 104.257 231.325 104.138C231.112 104.125 231.472 99.7733 234.536 98.3375C237.599 96.9023 241.764 99.5081 242.795 100.831C242.795 100.831 244.171 101.229 245.402 103.52C246.634 105.809 244.074 110.146 243.215 109.972Z" fill="#263238"/>
<path d="M269.457 241.112L257.792 243.437L250.156 244.959C250.156 244.959 242.309 212.915 240.981 199.079C239.722 185.961 237.864 165.235 240.343 146.361H255.113C256.367 148.549 262.493 156.356 259.268 168.768C258.812 170.523 259.849 186.491 261.49 197.33C263.023 207.393 269.457 241.112 269.457 241.112Z" fill="#37474F"/>
<path d="M257.792 243.437L250.156 244.959C250.156 244.959 242.309 212.915 240.981 199.079C239.722 185.961 237.864 165.235 240.343 146.361H245.56C248.027 164.243 255.102 223.999 257.792 243.437Z" fill="#263238"/>
<path d="M269.833 243.878C270.022 245.087 270.204 246.278 270.37 247.435C270.475 248.154 270.572 248.856 270.665 249.535C271.266 253.904 271.604 257.272 271.27 257.572C270.245 258.5 240.058 263.796 238.94 263.632C237.826 263.462 238.226 260.267 239.234 259.127C239.848 258.436 244.024 255.503 247.205 253.313C247.214 253.307 247.217 253.301 247.217 253.301C249.264 251.897 250.896 250.792 250.896 250.792L250.188 247.265L246.934 231.205L267.137 227.721C267.137 227.721 268.616 236.022 269.833 243.878Z" fill="#EBEBEB"/>
<path d="M248.217 249.887C249.891 248.692 252.265 247.931 254.272 248.587C254.35 248.612 254.313 248.722 254.245 248.731C252.171 249.002 250.312 249.421 248.332 250.115C248.192 250.164 248.097 249.973 248.217 249.887Z" fill="#263238"/>
<path d="M247.932 248.234C249.606 247.04 251.98 246.279 253.987 246.934C254.065 246.959 254.028 247.07 253.96 247.079C251.886 247.349 250.027 247.769 248.047 248.463C247.907 248.512 247.812 248.32 247.932 248.234Z" fill="#263238"/>
<path d="M247.647 246.582C249.321 245.387 251.695 244.626 253.702 245.282C253.78 245.307 253.743 245.417 253.675 245.426C251.601 245.697 249.742 246.116 247.762 246.81C247.622 246.859 247.527 246.668 247.647 246.582Z" fill="#263238"/>
<path d="M247.362 244.929C249.036 243.735 251.409 242.974 253.417 243.629C253.495 243.654 253.458 243.765 253.39 243.774C251.316 244.044 249.457 244.464 247.477 245.158C247.337 245.207 247.243 245.015 247.362 244.929Z" fill="#263238"/>
<path d="M247.077 243.277C248.751 242.082 251.125 241.322 253.132 241.977C253.21 242.002 253.173 242.112 253.105 242.121C251.031 242.392 249.172 242.811 247.192 243.506C247.053 243.554 246.958 243.363 247.077 243.277Z" fill="#263238"/>
<path d="M271.548 257.706C270.828 258.726 255.612 261.414 245.91 262.902C241.458 263.58 238.176 264.012 237.984 263.91C237.372 263.574 237.42 260.394 239.334 258.036C240.396 256.728 245.844 253.02 248.352 251.334C249.138 250.812 249.636 250.488 249.636 250.488L247.47 240.264L247.002 238.056L246.516 235.758C247.146 235.752 268.542 231.954 268.542 231.954C268.542 231.954 268.692 232.854 268.926 234.318C269.034 234.96 269.154 235.716 269.286 236.55C270.396 243.66 272.304 256.632 271.548 257.706Z" fill="#00989D"/>
<path d="M271.904 257.626L237.418 263.571L237.751 265.501L272.237 259.556L271.904 257.626Z" fill="#263238"/>
<path opacity="0.1" d="M269.286 236.55L247.47 240.264L247.002 238.056L268.926 234.318C269.034 234.96 269.154 235.716 269.286 236.55Z" fill="black"/>
<path d="M248.354 251.336L245.91 262.904C241.459 263.582 238.177 264.009 237.983 263.907C237.374 263.576 237.419 260.396 239.334 258.037C240.394 256.727 245.842 253.017 248.354 251.336Z" fill="#263238"/>
<path d="M247.958 168.096C247.953 168.11 245.281 187.8 244.31 197.718C244.066 200.19 243.78 228.076 243.78 234.205V238.622C243.775 244.277 243.775 248.301 243.775 248.301H223.743C223.743 248.301 223.738 248.113 223.733 247.761C223.729 247.574 223.724 247.344 223.724 247.067C223.714 246.786 223.71 246.462 223.705 246.092C223.7 245.876 223.696 245.642 223.691 245.397C223.668 243.709 223.63 241.374 223.588 238.65C223.57 237.257 223.55 235.766 223.532 234.204C223.377 222.074 227.643 156.63 231.78 146.361H253.303C253.303 146.361 256.849 158.427 247.958 168.096Z" fill="#37474F"/>
<path d="M254.903 163.521C253.308 164.418 251.72 165.332 250.126 166.231C249.34 166.674 248.537 167.089 247.743 167.516C246.934 167.951 246.085 168.317 245.293 168.78C245.245 168.809 245.282 168.876 245.332 168.865C246.252 168.667 247.14 168.297 248.012 167.949C248.854 167.613 249.668 167.209 250.469 166.785C252.096 165.924 253.618 164.853 254.969 163.601C255.012 163.559 254.953 163.493 254.903 163.521Z" fill="#263238"/>
<path d="M235.438 146.849C233.906 153.113 232.706 159.432 231.918 165.834C231.124 172.286 230.593 178.782 230.008 185.256C228.829 198.288 227.807 211.343 227.512 224.429C227.346 231.753 227.487 239.091 227.948 246.403C227.951 246.463 228.043 246.461 228.041 246.401C227.65 233.397 228.069 220.368 228.898 207.389C229.315 200.856 229.843 194.331 230.417 187.81C230.986 181.358 231.534 174.901 232.19 168.458C232.928 161.217 234.017 153.998 235.647 146.901C235.678 146.766 235.471 146.714 235.438 146.849Z" fill="#263238"/>
<path d="M243.743 250.586C243.725 251.81 243.701 253.014 243.668 254.182C243.65 254.909 243.626 255.617 243.603 256.302C243.453 260.71 243.214 264.086 242.834 264.325C241.666 265.066 211.018 265.155 209.944 264.803C208.874 264.447 209.812 261.366 210.998 260.414C211.721 259.838 216.335 257.657 219.842 256.039C219.852 256.034 219.856 256.03 219.856 256.03C222.112 254.993 223.908 254.182 223.908 254.182L223.81 250.586L223.331 234.206H243.833C243.833 234.206 243.879 242.638 243.743 250.586Z" fill="#EBEBEB"/>
<path d="M221.42 252.834C223.273 251.942 225.741 251.595 227.609 252.582C227.681 252.62 227.626 252.722 227.557 252.719C225.467 252.633 223.564 252.731 221.495 253.079C221.35 253.104 221.288 252.899 221.42 252.834Z" fill="#263238"/>
<path d="M221.42 251.158C223.273 250.265 225.741 249.919 227.609 250.905C227.681 250.944 227.626 251.046 227.557 251.043C225.467 250.957 223.564 251.055 221.495 251.403C221.35 251.427 221.288 251.221 221.42 251.158Z" fill="#263238"/>
<path d="M221.42 249.481C223.273 248.588 225.741 248.242 227.609 249.228C227.681 249.267 227.626 249.369 227.557 249.366C225.467 249.28 223.564 249.377 221.495 249.725C221.35 249.75 221.288 249.545 221.42 249.481Z" fill="#263238"/>
<path d="M221.42 247.805C223.273 246.912 225.741 246.566 227.609 247.552C227.681 247.59 227.626 247.692 227.557 247.689C225.467 247.604 223.564 247.701 221.495 248.049C221.35 248.073 221.288 247.868 221.42 247.805Z" fill="#263238"/>
<path d="M221.42 246.128C223.273 245.235 225.741 244.889 227.609 245.875C227.681 245.913 227.626 246.015 227.557 246.013C225.467 245.927 223.564 246.024 221.495 246.372C221.35 246.396 221.288 246.191 221.42 246.128Z" fill="#263238"/>
<path d="M244.494 238.62C244.494 238.62 244.488 239.478 244.476 240.876C244.47 241.524 244.458 242.286 244.446 243.138C244.338 250.302 244.02 263.568 243.084 264.504C241.8 265.794 209.502 265.344 208.956 264.912C208.41 264.486 208.998 261.36 211.278 259.356C212.946 257.904 222.714 253.668 222.714 253.668L222.318 243.138L222.228 240.876L222.144 238.62C222.768 238.722 244.494 238.62 244.494 238.62Z" fill="#00989D"/>
<path d="M243.445 264.469H208.451V266.427H243.445V264.469Z" fill="#263238"/>
<path opacity="0.1" d="M244.476 240.876C244.47 241.524 244.458 242.286 244.446 243.138H222.318L222.228 240.876H244.476Z" fill="black"/>
<path d="M230.588 138.594L228.607 151.505L259.397 151.302C259.397 151.302 253.327 126.711 246.875 118.975C244.51 116.14 239.71 116.797 237.242 119.481C234.656 122.296 229.677 128.628 229.046 132.147C228.496 135.253 230.588 138.594 230.588 138.594Z" fill="#00989D"/>
<path d="M235.947 122.714C235.947 122.87 235.821 122.996 235.666 122.996C235.51 122.996 235.384 122.87 235.384 122.714C235.384 122.559 235.51 122.433 235.666 122.433C235.821 122.433 235.947 122.559 235.947 122.714Z" fill="white"/>
<path d="M240.808 122.714C240.808 122.87 240.682 122.996 240.527 122.996C240.371 122.996 240.245 122.87 240.245 122.714C240.245 122.559 240.371 122.433 240.527 122.433C240.682 122.433 240.808 122.559 240.808 122.714Z" fill="white"/>
<path d="M245.669 122.714C245.669 122.87 245.543 122.996 245.388 122.996C245.233 122.996 245.107 122.87 245.107 122.714C245.107 122.559 245.233 122.433 245.388 122.433C245.543 122.433 245.669 122.559 245.669 122.714Z" fill="white"/>
<path d="M238.378 119.107C238.378 119.262 238.252 119.388 238.096 119.388C237.941 119.388 237.815 119.262 237.815 119.107C237.815 118.952 237.941 118.826 238.096 118.826C238.252 118.826 238.378 118.952 238.378 119.107Z" fill="white"/>
<path d="M243.239 119.107C243.239 119.262 243.113 119.388 242.957 119.388C242.802 119.388 242.676 119.262 242.676 119.107C242.676 118.952 242.802 118.826 242.957 118.826C243.113 118.826 243.239 118.952 243.239 119.107Z" fill="white"/>
<path d="M231.086 130.006C231.086 130.161 230.96 130.287 230.805 130.287C230.65 130.287 230.524 130.161 230.524 130.006C230.524 129.85 230.65 129.724 230.805 129.724C230.96 129.724 231.086 129.85 231.086 130.006Z" fill="white"/>
<path d="M235.947 130.006C235.947 130.161 235.821 130.287 235.666 130.287C235.51 130.287 235.384 130.161 235.384 130.006C235.384 129.85 235.51 129.724 235.666 129.724C235.821 129.724 235.947 129.85 235.947 130.006Z" fill="white"/>
<path d="M240.808 130.006C240.808 130.161 240.682 130.287 240.527 130.287C240.371 130.287 240.245 130.161 240.245 130.006C240.245 129.85 240.371 129.724 240.527 129.724C240.682 129.724 240.808 129.85 240.808 130.006Z" fill="white"/>
<path d="M245.669 130.006C245.669 130.161 245.543 130.287 245.388 130.287C245.233 130.287 245.107 130.161 245.107 130.006C245.107 129.85 245.233 129.724 245.388 129.724C245.543 129.724 245.669 129.85 245.669 130.006Z" fill="white"/>
<path d="M250.53 130.006C250.53 130.161 250.404 130.287 250.249 130.287C250.093 130.287 249.967 130.161 249.967 130.006C249.967 129.85 250.093 129.724 250.249 129.724C250.404 129.724 250.53 129.85 250.53 130.006Z" fill="white"/>
<path d="M233.517 126.398C233.517 126.554 233.391 126.68 233.236 126.68C233.08 126.68 232.954 126.554 232.954 126.398C232.954 126.243 233.08 126.117 233.236 126.117C233.391 126.117 233.517 126.243 233.517 126.398Z" fill="white"/>
<path d="M238.378 126.398C238.378 126.554 238.252 126.68 238.096 126.68C237.941 126.68 237.815 126.554 237.815 126.398C237.815 126.243 237.941 126.117 238.096 126.117C238.252 126.117 238.378 126.243 238.378 126.398Z" fill="white"/>
<path d="M243.239 126.398C243.239 126.554 243.113 126.68 242.957 126.68C242.802 126.68 242.676 126.554 242.676 126.398C242.676 126.243 242.802 126.117 242.957 126.117C243.113 126.117 243.239 126.243 243.239 126.398Z" fill="white"/>
<path d="M248.1 126.398C248.1 126.554 247.974 126.68 247.819 126.68C247.663 126.68 247.537 126.554 247.537 126.398C247.537 126.243 247.663 126.117 247.819 126.117C247.974 126.117 248.1 126.243 248.1 126.398Z" fill="white"/>
<path d="M231.086 137.297C231.086 137.453 230.96 137.579 230.805 137.579C230.65 137.579 230.524 137.453 230.524 137.297C230.524 137.142 230.65 137.016 230.805 137.016C230.96 137.016 231.086 137.142 231.086 137.297Z" fill="white"/>
<path d="M235.947 137.297C235.947 137.453 235.821 137.579 235.666 137.579C235.51 137.579 235.384 137.453 235.384 137.297C235.384 137.142 235.51 137.016 235.666 137.016C235.821 137.016 235.947 137.142 235.947 137.297Z" fill="white"/>
<path d="M240.527 137.579C240.682 137.579 240.808 137.453 240.808 137.297C240.808 137.142 240.682 137.016 240.527 137.016C240.371 137.016 240.245 137.142 240.245 137.297C240.245 137.453 240.371 137.579 240.527 137.579Z" fill="white"/>
<path d="M245.669 137.297C245.669 137.453 245.543 137.579 245.388 137.579C245.233 137.579 245.107 137.453 245.107 137.297C245.107 137.142 245.233 137.016 245.388 137.016C245.543 137.016 245.669 137.142 245.669 137.297Z" fill="white"/>
<path d="M250.249 137.579C250.404 137.579 250.53 137.453 250.53 137.297C250.53 137.142 250.404 137.016 250.249 137.016C250.093 137.016 249.967 137.142 249.967 137.297C249.967 137.453 250.093 137.579 250.249 137.579Z" fill="white"/>
<path d="M255.391 137.297C255.391 137.453 255.265 137.579 255.11 137.579C254.954 137.579 254.828 137.453 254.828 137.297C254.828 137.142 254.954 137.016 255.11 137.016C255.265 137.016 255.391 137.142 255.391 137.297Z" fill="white"/>
<path d="M233.517 133.69C233.517 133.845 233.391 133.971 233.236 133.971C233.08 133.971 232.954 133.845 232.954 133.69C232.954 133.534 233.08 133.408 233.236 133.408C233.391 133.408 233.517 133.534 233.517 133.69Z" fill="white"/>
<path d="M238.378 133.69C238.378 133.845 238.252 133.971 238.096 133.971C237.941 133.971 237.815 133.845 237.815 133.69C237.815 133.534 237.941 133.408 238.096 133.408C238.252 133.408 238.378 133.534 238.378 133.69Z" fill="white"/>
<path d="M243.239 133.69C243.239 133.845 243.113 133.971 242.957 133.971C242.802 133.971 242.676 133.845 242.676 133.69C242.676 133.534 242.802 133.408 242.957 133.408C243.113 133.408 243.239 133.534 243.239 133.69Z" fill="white"/>
<path d="M248.1 133.69C248.1 133.845 247.974 133.971 247.819 133.971C247.663 133.971 247.537 133.845 247.537 133.69C247.537 133.534 247.663 133.408 247.819 133.408C247.974 133.408 248.1 133.534 248.1 133.69Z" fill="white"/>
<path d="M252.961 133.69C252.961 133.845 252.835 133.971 252.679 133.971C252.524 133.971 252.398 133.845 252.398 133.69C252.398 133.534 252.524 133.408 252.679 133.408C252.835 133.408 252.961 133.534 252.961 133.69Z" fill="white"/>
<path d="M231.086 144.589C231.086 144.744 230.96 144.87 230.805 144.87C230.65 144.87 230.524 144.744 230.524 144.589C230.524 144.433 230.65 144.307 230.805 144.307C230.96 144.307 231.086 144.433 231.086 144.589Z" fill="white"/>
<path d="M235.947 144.589C235.947 144.744 235.821 144.87 235.666 144.87C235.51 144.87 235.384 144.744 235.384 144.589C235.384 144.433 235.51 144.307 235.666 144.307C235.821 144.307 235.947 144.433 235.947 144.589Z" fill="white"/>
<path d="M240.527 144.87C240.682 144.87 240.808 144.744 240.808 144.589C240.808 144.433 240.682 144.307 240.527 144.307C240.371 144.307 240.245 144.433 240.245 144.589C240.245 144.744 240.371 144.87 240.527 144.87Z" fill="white"/>
<path d="M245.669 144.589C245.669 144.744 245.543 144.87 245.388 144.87C245.233 144.87 245.107 144.744 245.107 144.589C245.107 144.433 245.233 144.307 245.388 144.307C245.543 144.307 245.669 144.433 245.669 144.589Z" fill="white"/>
<path d="M250.249 144.87C250.404 144.87 250.53 144.744 250.53 144.589C250.53 144.433 250.404 144.307 250.249 144.307C250.093 144.307 249.967 144.433 249.967 144.589C249.967 144.744 250.093 144.87 250.249 144.87Z" fill="white"/>
<path d="M255.391 144.589C255.391 144.744 255.265 144.87 255.11 144.87C254.954 144.87 254.828 144.744 254.828 144.589C254.828 144.433 254.954 144.307 255.11 144.307C255.265 144.307 255.391 144.433 255.391 144.589Z" fill="white"/>
<path d="M233.517 140.981C233.517 141.137 233.391 141.263 233.236 141.263C233.08 141.263 232.954 141.137 232.954 140.981C232.954 140.826 233.08 140.7 233.236 140.7C233.391 140.7 233.517 140.826 233.517 140.981Z" fill="white"/>
<path d="M238.378 140.981C238.378 141.137 238.252 141.263 238.096 141.263C237.941 141.263 237.815 141.137 237.815 140.981C237.815 140.826 237.941 140.7 238.096 140.7C238.252 140.7 238.378 140.826 238.378 140.981Z" fill="white"/>
<path d="M243.239 140.981C243.239 141.137 243.113 141.263 242.957 141.263C242.802 141.263 242.676 141.137 242.676 140.981C242.676 140.826 242.802 140.7 242.957 140.7C243.113 140.7 243.239 140.826 243.239 140.981Z" fill="white"/>
<path d="M248.1 140.981C248.1 141.137 247.974 141.263 247.819 141.263C247.663 141.263 247.537 141.137 247.537 140.981C247.537 140.826 247.663 140.7 247.819 140.7C247.974 140.7 248.1 140.826 248.1 140.981Z" fill="white"/>
<path d="M252.961 140.981C252.961 141.137 252.835 141.263 252.679 141.263C252.524 141.263 252.398 141.137 252.398 140.981C252.398 140.826 252.524 140.7 252.679 140.7C252.835 140.7 252.961 140.826 252.961 140.981Z" fill="white"/>
<path d="M233.517 148.272C233.517 148.428 233.391 148.554 233.236 148.554C233.08 148.554 232.954 148.428 232.954 148.272C232.954 148.117 233.08 147.991 233.236 147.991C233.391 147.991 233.517 148.117 233.517 148.272Z" fill="white"/>
<path d="M238.378 148.272C238.378 148.428 238.252 148.554 238.096 148.554C237.941 148.554 237.815 148.428 237.815 148.272C237.815 148.117 237.941 147.991 238.096 147.991C238.252 147.991 238.378 148.117 238.378 148.272Z" fill="white"/>
<path d="M243.239 148.272C243.239 148.428 243.113 148.554 242.957 148.554C242.802 148.554 242.676 148.428 242.676 148.272C242.676 148.117 242.802 147.991 242.957 147.991C243.113 147.991 243.239 148.117 243.239 148.272Z" fill="white"/>
<path d="M248.1 148.272C248.1 148.428 247.974 148.554 247.819 148.554C247.663 148.554 247.537 148.428 247.537 148.272C247.537 148.117 247.663 147.991 247.819 147.991C247.974 147.991 248.1 148.117 248.1 148.272Z" fill="white"/>
<path d="M252.961 148.272C252.961 148.428 252.835 148.554 252.679 148.554C252.524 148.554 252.398 148.428 252.398 148.272C252.398 148.117 252.524 147.991 252.679 147.991C252.835 147.991 252.961 148.117 252.961 148.272Z" fill="white"/>
<path d="M257.822 148.272C257.822 148.428 257.696 148.554 257.54 148.554C257.385 148.554 257.259 148.428 257.259 148.272C257.259 148.117 257.385 147.991 257.54 147.991C257.696 147.991 257.822 148.117 257.822 148.272Z" fill="white"/>
<path d="M258.179 149.532C257.287 149.444 256.379 149.453 255.48 149.432C254.56 149.411 253.64 149.391 252.72 149.373C250.88 149.337 249.04 149.317 247.2 149.298C243.496 149.26 239.792 149.172 236.087 149.303C235.045 149.339 234.001 149.369 232.958 149.413C231.917 149.457 230.873 149.544 229.831 149.57C229.771 149.572 229.774 149.651 229.835 149.65C230.779 149.64 231.728 149.692 232.672 149.705C233.568 149.718 234.463 149.724 235.359 149.734C237.199 149.754 239.039 149.752 240.879 149.743C244.556 149.725 248.233 149.662 251.911 149.646C252.954 149.642 253.997 149.64 255.041 149.64C256.08 149.64 257.133 149.685 258.169 149.612C258.22 149.607 258.235 149.538 258.179 149.532Z" fill="#263238"/>
<path d="M241.33 123.48C239.25 126.87 231.161 135.193 225.088 136.806C219.793 138.212 206.969 132.846 202.951 130.641C201.447 129.816 205.833 117.104 207.56 117.721C209.878 118.55 222.217 125.638 223.522 125.215C224.826 124.793 234.674 120.371 236.977 119.292C242.22 116.835 244.455 118.385 241.33 123.48Z" fill="#DD6A57"/>
<path d="M208.018 118C208.018 118 201.328 114.446 199.937 113.642C197.145 112.028 185.59 109.024 184.159 109.148C182.728 109.271 181.304 112.054 190.816 115.529C190.816 115.529 188.773 119.711 190.018 121.631C190.827 122.879 194.022 127.45 195.509 128.026C197.195 128.68 202.951 130.641 202.951 130.641L208.018 118Z" fill="#DD6A57"/>
<path d="M198.458 116.45C198.338 116.459 192.491 114.634 190.373 114.829C188.255 115.025 186.7 117.953 186.758 118.755C186.817 119.557 187.984 124.499 190.105 124.343C192.226 124.188 190.664 120.44 190.712 119.994C190.76 119.548 190.798 118.979 191.201 118.991C191.605 119.003 198.851 121.812 198.851 121.812L198.458 116.45Z" fill="#DD6A57"/>
<path d="M197.873 118.376C197.753 118.385 191.906 116.56 189.788 116.756C187.67 116.951 186.115 119.88 186.173 120.681C186.232 121.483 187.399 126.425 189.52 126.27C191.641 126.114 190.079 122.367 190.126 121.921C190.174 121.475 190.213 120.906 190.616 120.918C191.019 120.93 198.265 123.739 198.265 123.739L197.873 118.376Z" fill="#DD6A57"/>
<path d="M197.893 119.516C197.775 119.542 191.725 118.594 189.658 119.098C187.592 119.601 186.482 122.726 186.658 123.511C186.833 124.295 188.711 129.013 190.787 128.548C192.862 128.084 190.768 124.606 190.75 124.157C190.732 123.709 190.687 123.141 191.087 123.094C191.488 123.046 199.067 124.763 199.067 124.763L197.893 119.516Z" fill="#DD6A57"/>
<path d="M199.042 121.437C197.049 121.052 194.794 120.451 192.697 120.806C190.6 121.162 189.271 124.2 189.391 124.995C189.51 125.79 191.048 130.629 193.151 130.313C195.254 129.998 193.412 126.379 193.426 125.931C193.44 125.483 193.435 124.912 193.838 124.894C194.242 124.876 201.68 127.126 201.68 127.126L199.042 121.437Z" fill="#DD6A57"/>
<path d="M196.915 114.812C195.563 114.463 195.071 114.344 193.679 114.381C192.998 114.399 192.305 114.459 191.633 114.571C191.281 114.629 189.562 114.925 188.755 115.451C188.695 115.489 188.682 115.558 188.742 115.53C189.459 115.195 191.285 114.944 191.617 114.911C192.308 114.842 192.996 114.783 193.69 114.748C195.105 114.677 195.5 114.77 196.912 114.845C196.931 114.846 196.933 114.817 196.915 114.812Z" fill="#263238"/>
<path d="M196.831 116.722C195.668 116.623 194.152 116.469 191.266 116.704C190.345 116.779 189.424 117.001 188.612 117.454C188.233 117.666 186.992 118.492 186.728 119.041C186.697 119.106 186.763 119.148 186.803 119.096C187.097 118.716 188.57 117.886 188.986 117.715C189.877 117.349 190.822 117.146 191.777 117.05C193.874 116.839 194.689 116.812 196.792 116.808C196.823 116.808 197.02 116.738 196.831 116.722Z" fill="#263238"/>
<path d="M196.478 118.667C194.979 118.676 192.154 118.907 190.86 119.182C189.871 119.391 188.867 119.619 188.129 120.351C187.4 121.075 186.958 121.809 186.623 122.872C186.605 122.93 186.68 122.971 186.705 122.917C187.084 122.099 187.717 121.272 188.398 120.684C189.199 119.993 190.224 119.695 191.242 119.489C193.529 119.027 194.182 119.046 196.499 118.846C196.804 118.821 196.759 118.666 196.478 118.667Z" fill="#263238"/>
<path d="M195.929 120.725C195.217 120.862 193.328 121.24 192.627 121.423C192.011 121.584 191.345 121.716 190.843 122.134C190.397 122.506 190.082 123.039 189.782 123.529C189.47 124.039 189.191 124.595 189.119 125.197C188.959 126.544 190.105 127.539 190.739 128.601C190.77 128.653 190.849 128.604 190.819 128.552C190.489 127.999 190.212 127.408 189.935 126.826C189.658 126.245 189.466 125.654 189.62 125.008C189.752 124.455 190.057 123.957 190.366 123.486C190.677 123.01 190.991 122.482 191.515 122.215C192.06 121.938 192.718 121.819 193.306 121.664C193.911 121.505 195.067 121.206 195.676 121.066C196.94 120.774 197.296 120.461 195.929 120.725Z" fill="#263238"/>
<path d="M199.429 126.483C198.295 126.448 197.196 126.41 196.097 126.09C195.626 125.952 195.172 125.772 194.733 125.554C194.303 125.341 193.834 125.098 193.517 124.729C193.478 124.684 193.412 124.753 193.453 124.798C193.765 125.136 194.049 125.466 194.416 125.74C193.817 126.06 193.213 126.399 192.544 126.535C192.488 126.547 192.511 126.623 192.559 126.627C192.761 126.643 192.956 126.635 193.154 126.594C193.361 126.552 193.552 126.471 193.742 126.381C194.034 126.241 194.302 126.048 194.559 125.844C194.971 126.116 195.442 126.299 195.918 126.423C197.036 126.716 198.292 126.685 199.432 126.554C199.476 126.548 199.475 126.484 199.429 126.483Z" fill="#263238"/>
<path d="M206.42 116.141L202.914 133.903C202.914 133.903 218.752 138.369 224.201 137.366C229.651 136.362 237.482 129.596 241.107 124.164C244.731 118.731 243.439 115.826 236.189 118.984C228.939 122.142 224.206 123.848 223.444 123.974C222.68 124.1 206.42 116.141 206.42 116.141Z" fill="#00989D"/>
<path d="M206.782 122.714C206.782 122.87 206.656 122.996 206.5 122.996C206.345 122.996 206.219 122.87 206.219 122.714C206.219 122.559 206.345 122.433 206.5 122.433C206.656 122.433 206.782 122.559 206.782 122.714Z" fill="white"/>
<path d="M211.642 122.714C211.642 122.87 211.516 122.996 211.361 122.996C211.205 122.996 211.079 122.87 211.079 122.714C211.079 122.559 211.205 122.433 211.361 122.433C211.516 122.433 211.642 122.559 211.642 122.714Z" fill="white"/>
<path d="M216.503 122.714C216.503 122.87 216.377 122.996 216.222 122.996C216.067 122.996 215.941 122.87 215.941 122.714C215.941 122.559 216.067 122.433 216.222 122.433C216.377 122.433 216.503 122.559 216.503 122.714Z" fill="white"/>
<path d="M231.086 122.714C231.086 122.87 230.96 122.996 230.805 122.996C230.65 122.996 230.524 122.87 230.524 122.714C230.524 122.559 230.65 122.433 230.805 122.433C230.96 122.433 231.086 122.559 231.086 122.714Z" fill="white"/>
<path d="M235.947 122.714C235.947 122.87 235.821 122.996 235.666 122.996C235.51 122.996 235.384 122.87 235.384 122.714C235.384 122.559 235.51 122.433 235.666 122.433C235.821 122.433 235.947 122.559 235.947 122.714Z" fill="white"/>
<path d="M240.808 122.714C240.808 122.87 240.682 122.996 240.527 122.996C240.371 122.996 240.245 122.87 240.245 122.714C240.245 122.559 240.371 122.433 240.527 122.433C240.682 122.433 240.808 122.559 240.808 122.714Z" fill="white"/>
<path d="M209.212 119.107C209.212 119.262 209.086 119.388 208.93 119.388C208.775 119.388 208.649 119.262 208.649 119.107C208.649 118.952 208.775 118.826 208.93 118.826C209.086 118.826 209.212 118.952 209.212 119.107Z" fill="white"/>
<path d="M238.378 119.107C238.378 119.262 238.252 119.388 238.096 119.388C237.941 119.388 237.815 119.262 237.815 119.107C237.815 118.952 237.941 118.826 238.096 118.826C238.252 118.826 238.378 118.952 238.378 119.107Z" fill="white"/>
<path d="M243.239 119.107C243.239 119.262 243.113 119.388 242.957 119.388C242.802 119.388 242.676 119.262 242.676 119.107C242.676 118.952 242.802 118.826 242.957 118.826C243.113 118.826 243.239 118.952 243.239 119.107Z" fill="white"/>
<path d="M206.782 130.006C206.782 130.161 206.656 130.287 206.5 130.287C206.345 130.287 206.219 130.161 206.219 130.006C206.219 129.85 206.345 129.724 206.5 129.724C206.656 129.724 206.782 129.85 206.782 130.006Z" fill="white"/>
<path d="M211.642 130.006C211.642 130.161 211.516 130.287 211.361 130.287C211.205 130.287 211.079 130.161 211.079 130.006C211.079 129.85 211.205 129.724 211.361 129.724C211.516 129.724 211.642 129.85 211.642 130.006Z" fill="white"/>
<path d="M216.503 130.006C216.503 130.161 216.377 130.287 216.222 130.287C216.067 130.287 215.941 130.161 215.941 130.006C215.941 129.85 216.067 129.724 216.222 129.724C216.377 129.724 216.503 129.85 216.503 130.006Z" fill="white"/>
<path d="M221.365 130.006C221.365 130.161 221.239 130.287 221.083 130.287C220.928 130.287 220.802 130.161 220.802 130.006C220.802 129.85 220.928 129.724 221.083 129.724C221.239 129.724 221.365 129.85 221.365 130.006Z" fill="white"/>
<path d="M226.225 130.006C226.225 130.161 226.099 130.287 225.944 130.287C225.788 130.287 225.662 130.161 225.662 130.006C225.662 129.85 225.788 129.724 225.944 129.724C226.099 129.724 226.225 129.85 226.225 130.006Z" fill="white"/>
<path d="M231.086 130.006C231.086 130.161 230.96 130.287 230.805 130.287C230.65 130.287 230.524 130.161 230.524 130.006C230.524 129.85 230.65 129.724 230.805 129.724C230.96 129.724 231.086 129.85 231.086 130.006Z" fill="white"/>
<path d="M235.947 130.006C235.947 130.161 235.821 130.287 235.666 130.287C235.51 130.287 235.384 130.161 235.384 130.006C235.384 129.85 235.51 129.724 235.666 129.724C235.821 129.724 235.947 129.85 235.947 130.006Z" fill="white"/>
<path d="M209.212 126.398C209.212 126.554 209.086 126.68 208.93 126.68C208.775 126.68 208.649 126.554 208.649 126.398C208.649 126.243 208.775 126.117 208.93 126.117C209.086 126.117 209.212 126.243 209.212 126.398Z" fill="white"/>
<path d="M214.073 126.398C214.073 126.554 213.947 126.68 213.791 126.68C213.636 126.68 213.51 126.554 213.51 126.398C213.51 126.243 213.636 126.117 213.791 126.117C213.947 126.117 214.073 126.243 214.073 126.398Z" fill="white"/>
<path d="M218.934 126.398C218.934 126.554 218.808 126.68 218.653 126.68C218.497 126.68 218.371 126.554 218.371 126.398C218.371 126.243 218.497 126.117 218.653 126.117C218.808 126.117 218.934 126.243 218.934 126.398Z" fill="white"/>
<path d="M223.795 126.398C223.795 126.554 223.669 126.68 223.513 126.68C223.358 126.68 223.232 126.554 223.232 126.398C223.232 126.243 223.358 126.117 223.513 126.117C223.669 126.117 223.795 126.243 223.795 126.398Z" fill="white"/>
<path d="M228.656 126.398C228.656 126.554 228.53 126.68 228.374 126.68C228.219 126.68 228.093 126.554 228.093 126.398C228.093 126.243 228.219 126.117 228.374 126.117C228.53 126.117 228.656 126.243 228.656 126.398Z" fill="white"/>
<path d="M233.517 126.398C233.517 126.554 233.391 126.68 233.236 126.68C233.08 126.68 232.954 126.554 232.954 126.398C232.954 126.243 233.08 126.117 233.236 126.117C233.391 126.117 233.517 126.243 233.517 126.398Z" fill="white"/>
<path d="M238.378 126.398C238.378 126.554 238.252 126.68 238.096 126.68C237.941 126.68 237.815 126.554 237.815 126.398C237.815 126.243 237.941 126.117 238.096 126.117C238.252 126.117 238.378 126.243 238.378 126.398Z" fill="white"/>
<path d="M221.365 137.297C221.365 137.453 221.239 137.579 221.083 137.579C220.928 137.579 220.802 137.453 220.802 137.297C220.802 137.142 220.928 137.016 221.083 137.016C221.239 137.016 221.365 137.142 221.365 137.297Z" fill="white"/>
<path d="M204.351 133.69C204.351 133.845 204.225 133.971 204.07 133.971C203.914 133.971 203.788 133.845 203.788 133.69C203.788 133.534 203.914 133.408 204.07 133.408C204.225 133.408 204.351 133.534 204.351 133.69Z" fill="white"/>
<path d="M209.212 133.69C209.212 133.845 209.086 133.971 208.93 133.971C208.775 133.971 208.649 133.845 208.649 133.69C208.649 133.534 208.775 133.408 208.93 133.408C209.086 133.408 209.212 133.534 209.212 133.69Z" fill="white"/>
<path d="M214.073 133.69C214.073 133.845 213.947 133.971 213.791 133.971C213.636 133.971 213.51 133.845 213.51 133.69C213.51 133.534 213.636 133.408 213.791 133.408C213.947 133.408 214.073 133.534 214.073 133.69Z" fill="white"/>
<path d="M218.934 133.69C218.934 133.845 218.808 133.971 218.653 133.971C218.497 133.971 218.371 133.845 218.371 133.69C218.371 133.534 218.497 133.408 218.653 133.408C218.808 133.408 218.934 133.534 218.934 133.69Z" fill="white"/>
<path d="M223.795 133.69C223.795 133.845 223.669 133.971 223.513 133.971C223.358 133.971 223.232 133.845 223.232 133.69C223.232 133.534 223.358 133.408 223.513 133.408C223.669 133.408 223.795 133.534 223.795 133.69Z" fill="white"/>
<path d="M228.656 133.69C228.656 133.845 228.53 133.971 228.374 133.971C228.219 133.971 228.093 133.845 228.093 133.69C228.093 133.534 228.219 133.408 228.374 133.408C228.53 133.408 228.656 133.534 228.656 133.69Z" fill="white"/>
<path d="M209.179 119.348C208.601 121.754 208.004 124.156 207.423 126.561C207.138 127.742 206.846 128.919 206.575 130.103C206.294 131.33 205.971 132.563 205.757 133.801C205.753 133.82 205.783 133.835 205.792 133.815C206.254 132.696 206.603 131.508 206.953 130.347C207.31 129.16 207.618 127.962 207.904 126.756C208.481 124.316 208.922 121.853 209.27 119.371C209.278 119.312 209.193 119.288 209.179 119.348Z" fill="#263238"/>
<path d="M237.491 130.264C236.067 131.038 234.641 131.868 233.275 132.74C231.889 133.625 230.632 134.648 229.333 135.651C229.286 135.687 229.33 135.764 229.382 135.731C230.756 134.853 232.167 134.05 233.512 133.124C233.669 133.016 233.823 132.904 233.98 132.796C234.333 132.702 234.681 132.581 235.025 132.47C235.291 132.384 235.556 132.29 235.811 132.174C236.077 132.055 236.339 131.923 236.617 131.835C236.674 131.817 236.647 131.727 236.59 131.745C236.313 131.832 236.024 131.877 235.74 131.937C235.467 131.995 235.198 132.078 234.935 132.171C234.891 132.187 234.846 132.203 234.802 132.219C235.71 131.585 236.62 130.952 237.521 130.311C237.55 130.291 237.523 130.247 237.491 130.264Z" fill="#263238"/>
<path d="M240.627 108.887C240.627 108.887 242.574 106.83 243.53 107.558C244.487 108.285 242.785 111.434 241.493 111.707C240.203 111.98 239.926 110.79 239.926 110.79L240.627 108.887Z" fill="#DD6A57"/>
<path d="M243.02 108.448C243.04 108.449 243.04 108.477 243.022 108.482C242.113 108.701 241.543 109.429 241.103 110.207C241.406 109.927 241.779 109.805 242.159 110.172C242.179 110.191 242.152 110.223 242.129 110.214C241.789 110.087 241.526 110.11 241.247 110.356C241.049 110.53 240.898 110.765 240.743 110.977C240.691 111.048 240.559 110.986 240.601 110.902C240.604 110.896 240.608 110.889 240.611 110.883C240.752 109.787 241.829 108.383 243.02 108.448Z" fill="#263238"/>
<path d="M88.4874 261.085C87.4056 261.451 56.4108 261.56 55.2258 260.817C54.7752 260.538 54.4962 256.024 54.3138 250.561C54.2742 249.382 54.2406 248.163 54.2136 246.925L51.7002 230.393L72.4206 230.261L74.3766 246.796L74.2974 250.433C74.2974 250.433 86.1834 255.7 87.3948 256.654C88.5996 257.608 89.5686 260.719 88.4874 261.085Z" fill="#AD6359"/>
<path d="M88.4874 261.085C87.4056 261.451 56.4108 261.56 55.2258 260.817C54.6786 260.474 54.3798 253.883 54.213 246.926L74.376 246.797L74.2968 250.434C74.2968 250.434 86.1828 255.7 87.3942 256.654C88.5996 257.608 89.5686 260.719 88.4874 261.085Z" fill="white"/>
<path d="M88.4874 261.085C87.4056 261.451 56.4108 261.56 55.2258 260.817C54.7752 260.538 54.4962 256.024 54.3138 250.561L74.2968 250.433C74.2968 250.433 86.1828 255.7 87.3942 256.654C88.5996 257.608 89.5686 260.719 88.4874 261.085Z" fill="#00989D"/>
<path d="M88.038 259.847C82.842 259.738 61.8738 259.787 56.7288 260.074C56.6868 260.076 56.6868 260.104 56.7288 260.106C61.8768 260.327 82.8438 260.108 88.0386 259.931C88.1484 259.928 88.1478 259.849 88.038 259.847Z" fill="#263238"/>
<path d="M85.3962 255.546C84.1638 255.5 82.9614 256.09 82.2924 256.826C81.6492 257.533 81.1008 258.527 81.141 259.604C81.1422 259.634 81.1992 259.635 81.204 259.603C81.4938 257.569 83.337 255.776 85.3968 255.611C85.4382 255.608 85.4388 255.548 85.3962 255.546Z" fill="#263238"/>
<path d="M76.3134 250.943C74.2338 250.922 71.8254 251.665 70.539 253.37C70.4892 253.436 70.584 253.506 70.6452 253.474C72.522 252.498 74.3064 251.77 76.35 251.199C76.4946 251.159 76.4622 250.945 76.3134 250.943Z" fill="#263238"/>
<path d="M77.9214 251.563C75.8418 251.542 73.4334 252.284 72.147 253.99C72.0972 254.056 72.192 254.126 72.2532 254.093C74.13 253.118 75.9144 252.389 77.958 251.819C78.102 251.779 78.0702 251.565 77.9214 251.563Z" fill="#263238"/>
<path d="M79.5288 252.184C77.4492 252.162 75.0408 252.905 73.7544 254.61C73.7046 254.676 73.7994 254.746 73.8606 254.714C75.7368 253.738 77.5218 253.01 79.5654 252.44C79.7094 252.4 79.6776 252.185 79.5288 252.184Z" fill="#263238"/>
<path d="M81.1362 252.804C79.0566 252.782 76.6482 253.525 75.3618 255.23C75.312 255.296 75.4068 255.367 75.468 255.334C77.3442 254.359 79.1292 253.63 81.1728 253.06C81.3174 253.019 81.2856 252.805 81.1362 252.804Z" fill="#263238"/>
<path d="M58.035 255.134C55.7016 255.149 55.7214 258.774 58.0584 258.76C60.3912 258.745 60.372 255.119 58.035 255.134Z" fill="#263238"/>
<path d="M78.5412 245.386C77.4858 244.517 76.1622 245.375 75.5166 246.283C74.4708 247.755 73.7556 249.815 73.6458 251.608C73.6434 251.652 73.677 251.669 73.7106 251.667C73.7556 251.816 73.932 251.941 74.085 251.833C75.5622 250.804 77.2686 249.886 78.3858 248.435C79.0386 247.587 79.5402 246.208 78.5412 245.386ZM76.0056 249.815C75.2916 250.339 74.556 250.825 73.8612 251.374C74.229 250.337 74.55 249.289 75.0222 248.288C75.2478 247.811 75.4884 247.325 75.777 246.883C76.2264 246.194 78.2616 244.449 78.4764 246.711C78.5952 247.959 76.8564 249.19 76.0056 249.815Z" fill="#263238"/>
<path d="M68.4816 252.397C70.293 252.668 72.159 252.146 73.9374 251.864C74.1216 251.835 74.1624 251.623 74.0916 251.485C74.118 251.463 74.13 251.427 74.0976 251.397C72.7752 250.181 70.8318 249.192 69.0576 248.857C67.962 248.65 66.414 248.95 66.2556 250.308C66.1068 251.592 67.4238 252.238 68.4816 252.397ZM67.2222 251.218C65.8086 249.439 68.4852 249.286 69.2868 249.47C69.8016 249.589 70.3122 249.772 70.8048 249.959C71.8386 250.352 72.7962 250.885 73.7808 251.378C72.8988 251.464 72.0324 251.623 71.154 251.741C70.1076 251.881 68.001 252.199 67.2222 251.218Z" fill="#263238"/>
<path d="M76.254 245.364L51.216 245.814C51.216 245.814 47.808 223.662 45.564 209.874C44.718 204.696 44.046 200.7 43.776 199.494C43.128 196.62 30.438 150.996 30.438 150.996L48.642 150.972L54.858 150.966C54.858 150.966 54.462 158.592 54.696 159.396C57.942 170.436 64.578 190.02 66.648 196.842C69.828 207.342 76.254 245.364 76.254 245.364Z" fill="#455A64"/>
<path d="M73.977 241.526C70.3812 241.5 57.6396 241.356 52.8534 241.803C52.8168 241.806 52.818 241.867 52.8546 241.872C54.5016 242.108 70.3842 241.74 73.9782 241.625C74.046 241.623 74.0448 241.526 73.977 241.526Z" fill="#263238"/>
<path d="M51.6252 222.645C50.76 216.916 49.8006 211.2 48.7308 205.505C48.2046 202.701 47.6328 199.905 46.9014 197.147C46.1616 194.355 45.237 191.619 44.2962 188.89C42.4266 183.465 40.6278 178.018 38.955 172.528C37.284 167.043 35.7078 161.525 34.2504 155.98C34.0656 155.276 33.879 154.575 33.6774 153.876C33.6606 153.817 33.576 153.845 33.5874 153.903C34.1568 156.698 34.8936 159.467 35.604 162.23C36.3156 164.995 37.0692 167.748 37.8606 170.491C39.45 176.002 41.1702 181.476 43.0344 186.901C43.9638 189.605 44.9256 192.299 45.7476 195.038C46.5684 197.772 47.2116 200.553 47.7816 203.349C48.9384 209.021 49.92 214.733 50.835 220.448C51.7548 226.194 52.524 231.956 53.2902 237.723C53.3874 238.454 53.4828 239.185 53.5764 239.916C53.6028 240.123 53.9274 240.12 53.9046 239.908C53.2872 234.138 52.4922 228.384 51.6252 222.645Z" fill="#263238"/>
<path d="M48.642 150.972L45.564 209.874C44.718 204.696 44.046 200.7 43.776 199.494C43.128 196.62 30.438 150.996 30.438 150.996L48.642 150.972Z" fill="#263238"/>
<path d="M56.4372 266.352C55.3428 266.688 23.556 265.828 22.3878 265.058C22.3476 265.03 22.308 264.967 22.2678 264.87C21.9204 263.918 22.587 259.878 22.5528 254.92C22.5528 254.829 22.6272 253.273 22.7292 251.062C23.0028 245.295 23.4984 235.112 23.4984 235.112L44.2242 235.534L42.8508 251.593L42.5316 255.325C42.5316 255.325 54.2766 260.91 55.4562 261.89C56.6364 262.876 57.5256 266.015 56.4372 266.352Z" fill="#AD6359"/>
<path d="M56.4372 266.352C55.3428 266.688 23.556 265.828 22.3878 265.058C22.3476 265.03 22.308 264.967 22.2678 264.87C21.9204 263.918 22.587 259.878 22.5528 254.92C22.5528 254.829 22.6272 253.273 22.7292 251.062L42.8514 251.592L42.5322 255.325C42.5322 255.325 54.2772 260.909 55.4568 261.889C56.6364 262.876 57.5256 266.015 56.4372 266.352Z" fill="white"/>
<path d="M56.436 266.35C55.3452 266.687 23.5536 265.83 22.389 265.056C21.9456 264.765 21.7698 260.533 22.5534 254.924L42.5328 255.326C42.5328 255.326 54.2748 260.905 55.461 261.892C56.6406 262.877 57.5268 266.013 56.436 266.35Z" fill="#00989D"/>
<path d="M56.0202 265.101C50.829 264.853 29.8662 264.347 24.7158 264.497C24.6738 264.498 24.6732 264.526 24.7152 264.529C29.8554 264.887 50.8212 265.224 56.0184 265.186C56.1282 265.185 56.13 265.106 56.0202 265.101Z" fill="#263238"/>
<path d="M53.4936 260.731C52.263 260.653 51.0456 261.21 50.3568 261.928C49.695 262.618 49.1202 263.597 49.1322 264.675C49.1322 264.706 49.1898 264.708 49.1952 264.676C49.5384 262.651 51.4284 260.908 53.4924 260.797C53.5338 260.794 53.5362 260.734 53.4936 260.731Z" fill="#263238"/>
<path d="M44.5362 255.889C42.4578 255.813 40.0302 256.491 38.6994 258.162C38.6478 258.226 38.7408 258.299 38.8032 258.268C40.7052 257.343 42.5082 256.662 44.5662 256.146C44.7114 256.11 44.685 255.895 44.5362 255.889Z" fill="#263238"/>
<path d="M46.1268 256.552C44.0484 256.475 41.6214 257.154 40.29 258.824C40.2384 258.889 40.3314 258.961 40.3938 258.931C42.2958 258.005 44.0988 257.325 46.1568 256.809C46.3014 256.772 46.2756 256.557 46.1268 256.552Z" fill="#263238"/>
<path d="M47.7174 257.215C45.639 257.138 43.2114 257.817 41.8806 259.487C41.829 259.552 41.922 259.624 41.9844 259.594C43.8864 258.668 45.6894 257.988 47.7474 257.472C47.892 257.435 47.8662 257.22 47.7174 257.215Z" fill="#263238"/>
<path d="M49.308 257.877C47.2296 257.8 44.8026 258.479 43.4712 260.149C43.4196 260.214 43.5126 260.287 43.575 260.256C45.4764 259.33 47.28 258.65 49.338 258.134C49.4832 258.097 49.4568 257.883 49.308 257.877Z" fill="#263238"/>
<path d="M26.1528 259.594C23.82 259.547 23.7432 263.172 26.0796 263.219C28.4124 263.266 28.4898 259.641 26.1528 259.594Z" fill="#263238"/>
<path d="M46.9104 250.393C45.8784 249.496 44.5326 250.319 43.863 251.21C42.7782 252.653 42.009 254.694 41.8512 256.483C41.8476 256.527 41.8806 256.545 41.9148 256.544C41.9556 256.694 42.129 256.823 42.285 256.72C43.7886 255.73 45.519 254.859 46.6746 253.437C47.349 252.607 47.8872 251.241 46.9104 250.393ZM44.2584 254.753C43.5306 255.258 42.7824 255.724 42.0738 256.255C42.4692 255.228 42.8178 254.189 43.3164 253.201C43.5546 252.73 43.8078 252.251 44.1084 251.817C44.5758 251.14 46.6566 249.45 46.8114 251.716C46.896 252.966 45.1254 254.151 44.2584 254.753Z" fill="#263238"/>
<path d="M36.6684 257.134C38.472 257.454 40.3512 256.981 42.1362 256.747C42.3216 256.723 42.3678 256.512 42.3006 256.371C42.3276 256.35 42.3408 256.314 42.309 256.284C41.0196 255.033 39.1026 253.993 37.338 253.611C36.2484 253.375 34.6932 253.633 34.4988 254.986C34.3152 256.267 35.6154 256.948 36.6684 257.134ZM35.4402 255.922C34.0746 254.107 36.7542 254.025 37.5504 254.23C38.0622 254.362 38.5668 254.559 39.0552 254.76C40.0782 255.181 41.0214 255.739 41.9928 256.257C41.109 256.319 40.2384 256.456 39.3576 256.55C38.3076 256.662 36.1932 256.924 35.4402 255.922Z" fill="#263238"/>
<path d="M45.1608 250.006H20.6526C20.6526 250.006 25.9734 174.052 25.1136 169.793C23.706 162.822 24.6468 154.819 27.942 150.965H49.7394C49.7394 150.965 50.1714 157.083 47.9214 160.736C47.9214 160.736 45.8772 162.029 44.883 162.599L45.1608 250.006Z" fill="#455A64"/>
<path d="M42.867 246.047C39.4734 245.958 40.4484 245.936 37.0542 245.885C35.3928 245.86 24.4782 245.707 22.9248 245.956C22.8906 245.961 22.89 246.019 22.9242 246.025C24.4752 246.29 35.391 246.253 37.0518 246.245C40.4466 246.231 39.4716 246.198 42.8658 246.145C42.93 246.145 42.9306 246.049 42.867 246.047Z" fill="#263238"/>
<path d="M49.281 159.755C47.1294 160.749 45.0906 162.047 43.1526 163.385C43.0764 163.437 43.1436 163.553 43.2276 163.507C45.3006 162.36 47.421 161.247 49.4268 159.992C49.5846 159.894 49.446 159.678 49.281 159.755Z" fill="#263238"/>
<path d="M46.5054 159.441C46.3752 159.862 46.2816 160.295 46.2096 160.729C46.1538 161.066 46.0668 161.432 46.1442 161.768C46.1592 161.833 46.2504 161.829 46.2822 161.78C46.4784 161.476 46.5312 161.084 46.6206 160.739C46.7244 160.339 46.8378 159.941 46.9302 159.539C46.9908 159.271 46.5852 159.181 46.5054 159.441Z" fill="#263238"/>
<path d="M46.3092 157.341C46.3674 156.977 46.4262 156.613 46.4922 156.251C46.5606 155.876 46.6536 155.499 46.6926 155.12C46.6986 155.06 46.7952 155.078 46.7856 155.139C46.7286 155.503 46.722 155.879 46.6932 156.247C46.6638 156.617 46.6284 156.985 46.5918 157.354C46.5228 158.04 46.4052 158.733 46.269 159.411C46.623 159.326 46.9848 159.228 47.271 158.995C47.5818 158.742 47.7108 158.322 47.8074 157.947C47.9148 157.53 48.0048 157.109 48.1182 156.694C48.2436 156.235 48.3936 155.775 48.4368 155.299C48.4422 155.239 48.537 155.257 48.5298 155.318C48.4092 156.308 48.2934 157.295 47.9754 158.254C47.85 158.631 47.766 159.012 47.427 159.225C47.0634 159.453 46.6248 159.523 46.2066 159.586C46.1592 159.612 46.086 159.594 46.0896 159.528C46.1316 158.802 46.1946 158.06 46.3092 157.341Z" fill="#263238"/>
<path d="M28.653 169.513C28.497 167.91 28.236 166.321 28.0614 164.721C27.7104 161.503 27.9516 158.286 28.6416 155.127C28.6542 155.069 28.5618 155.046 28.5504 155.105C28.0182 157.893 27.5544 160.677 27.6942 163.527C27.8322 166.35 28.3332 169.137 28.3782 171.969C28.4238 174.837 28.1988 177.703 28.0146 180.563C27.8298 183.44 27.6444 186.317 27.4596 189.194C26.7156 200.759 26.0298 212.328 25.326 223.895C25.1298 227.124 24.9468 230.354 24.7602 233.583C24.57 236.868 24.3408 240.156 24.2184 243.446C24.2076 243.73 24.6312 243.709 24.654 243.435C25.146 237.632 25.4304 231.806 25.8006 225.995C26.1672 220.241 26.5038 214.487 26.8554 208.733C27.2064 202.979 27.552 197.225 27.894 191.471C28.065 188.594 28.2276 185.717 28.3932 182.84C28.5582 179.975 28.77 177.107 28.8126 174.236C28.8366 172.661 28.806 171.082 28.653 169.513Z" fill="#263238"/>
<path d="M36.3702 154.928C36.354 154.893 36.306 154.881 36.2844 154.919C36.105 155.229 36.1368 155.741 36.0786 156.095C36.0078 156.524 35.9178 156.947 35.781 157.361C35.5026 158.201 35.1276 158.948 34.473 159.561C33.1002 160.845 31.2642 161.319 29.4924 161.753C29.4264 161.769 29.4504 161.859 29.5098 161.864C30.552 161.938 31.6116 161.715 32.5968 161.381C33.4668 161.085 34.3056 160.679 34.9818 160.046C35.6538 159.417 36.0714 158.609 36.2688 157.714C36.3702 157.256 36.399 156.771 36.4158 156.303C36.4242 156.075 36.4266 155.847 36.4254 155.62C36.4254 155.397 36.4626 155.133 36.3702 154.928Z" fill="#263238"/>
<path d="M45.879 120.537C48.12 123.311 59.6352 132.376 69.7134 131.125C73.8828 130.607 76.4076 120.935 76.9614 117.377C77.9484 111.041 79.3758 97.7075 76.9614 98.2811C73.9494 98.9969 66.6804 119.774 64.5366 119.977C61.0962 120.302 55.3764 117.818 48.1392 116.795C44.415 116.267 44.1528 118.4 45.879 120.537Z" fill="#AD6359"/>
<path d="M45.933 121.574C48.7002 125.173 57.5118 130.794 57.5118 130.794L58.5234 128.129L61.8714 119.318C61.8714 119.318 53.9754 117.349 48.8112 116.573C48.1134 116.467 47.5014 116.416 46.9716 116.425C43.7058 116.448 43.5474 118.478 45.933 121.574Z" fill="#00989D"/>
<path d="M45.933 121.574C48.7002 125.173 57.5118 130.794 57.5118 130.794L58.5234 128.129C55.1544 124.67 49.9596 119.434 46.9716 116.424C43.7058 116.448 43.5474 118.478 45.933 121.574Z" fill="#263238"/>
<path d="M55.8846 129.154C56.4306 127.539 58.9044 121.006 59.5338 119.629C59.5776 119.533 59.6478 119.536 59.6154 119.641C58.0944 124.517 56.565 127.614 55.9488 129.173C55.9332 129.211 55.8708 129.195 55.8846 129.154Z" fill="#263238"/>
<path d="M84.1932 99.3256C84.7704 100.869 82.6206 100.666 82.6206 100.666C82.6206 100.666 85.6446 101.705 85.6242 103.527C85.5996 105.283 83.0112 104.945 82.8252 104.924C82.9848 104.98 85.7388 106.007 85.5294 107.836C85.3104 109.736 82.77 108.951 82.6062 108.9C82.74 109 84.4884 110.359 84.0132 111.713C83.196 114.038 78.6306 110.687 76.6728 111.072L76.962 114.251C76.9542 114.355 76.947 114.464 76.9338 114.564L75.3156 114.786C74.9394 113.897 74.2782 112.907 73.6554 111.938C72.9078 110.778 72.2244 109.656 72.1524 108.795C72.0372 107.379 73.2294 106.928 73.2294 106.928C73.2294 106.928 71.6976 106.085 71.817 104.64C71.88 103.899 73.1226 103.34 73.1226 103.34C73.1226 103.34 71.9244 102.615 72.1104 101.336C72.2556 100.314 73.4796 99.913 73.4796 99.913C73.4796 99.913 72.6522 98.6824 73.1394 97.6876C74.118 95.6788 82.9542 96.0208 84.1932 99.3256Z" fill="#AD6359"/>
<path d="M76.5366 111.491L76.9614 114.251C76.9536 114.355 76.9464 114.464 76.9332 114.564C76.5126 118.109 72.6372 120.536 72.1938 118.014C71.8536 116.096 74.2836 113.852 73.6506 111.938H73.6554L76.5366 111.491Z" fill="#AD6359"/>
<path d="M73.6632 99.8194C73.6338 99.8206 73.626 99.7798 73.656 99.7738C76.5894 99.1768 79.995 99.4204 82.737 100.665C82.827 100.706 82.8 100.869 82.692 100.844C79.6212 100.101 76.836 99.6868 73.6632 99.8194Z" fill="#263238"/>
<path d="M73.0794 103.32C73.0452 103.322 73.0422 103.265 73.0782 103.258C76.104 102.659 79.9326 103.039 82.9242 104.846C83.0268 104.907 83.0568 105.066 82.9332 105.004C80.853 103.953 75.9348 103.187 73.0794 103.32Z" fill="#263238"/>
<path d="M82.7712 109.098C79.8354 107.477 76.6758 106.959 73.3536 106.895C73.3104 106.894 73.3158 106.833 73.3524 106.824C74.9862 106.413 77.0994 106.675 78.7266 107.018C80.2848 107.347 81.6252 107.957 82.8282 108.996C82.8744 109.036 82.8336 109.133 82.7712 109.098Z" fill="#263238"/>
<path d="M76.9536 112.623C76.848 112.068 76.773 111.543 76.674 110.987C76.6644 110.933 76.5822 110.951 76.5822 111.002C76.5816 111.791 76.6746 112.563 76.6974 113.354C76.7208 114.159 76.6194 114.981 76.3698 115.748C76.1514 116.418 75.81 117.056 75.3552 117.596C74.889 118.149 74.2302 118.767 73.4658 118.803C72.66 118.841 72.2418 118.169 72.2664 117.433C72.291 116.696 72.7434 116.045 73.0824 115.418C73.437 114.761 73.7994 114.021 73.9362 113.281C74.067 112.573 73.857 111.963 73.5432 111.336C73.335 110.921 73.119 110.51 72.9048 110.098C72.7254 109.754 72.5076 109.404 72.417 109.023C72.2412 108.281 72.5658 107.267 73.3116 106.954C73.374 106.928 73.3332 106.837 73.2732 106.869C72.6456 107.208 72.2088 107.595 71.949 108.281C71.6826 108.984 71.976 109.683 72.3036 110.304C72.5226 110.719 72.7428 111.134 72.9642 111.548C73.197 111.984 73.4382 112.435 73.3998 112.946C73.3302 113.881 72.7662 114.787 72.333 115.593C71.9664 116.276 71.6328 117.018 71.7486 117.811C71.8458 118.476 72.243 119.075 72.918 119.256C74.481 119.677 75.8766 117.968 76.4694 116.739C76.8756 115.897 77.0898 114.964 77.0898 114.029C77.0886 113.558 77.0412 113.087 76.9536 112.623Z" fill="#263238"/>
<path d="M79.3176 111.581C79.0002 111.359 78.6168 111.222 78.2514 111.098C77.8812 110.972 77.4858 110.898 77.0964 110.863C76.7334 110.829 76.3596 110.848 76.0086 110.952C75.6714 111.053 75.4002 111.246 75.156 111.497C75.123 111.531 75.159 111.588 75.2034 111.574C75.5076 111.482 75.8262 111.438 76.1394 111.384C76.4694 111.327 76.8066 111.293 77.142 111.294C77.5044 111.295 77.8554 111.355 78.2106 111.422C78.5718 111.49 78.9228 111.612 79.2876 111.659C79.335 111.665 79.3578 111.609 79.3176 111.581Z" fill="#263238"/>
<path d="M73.155 106.806C73.104 106.769 73.0488 106.737 72.9984 106.698C72.8958 106.621 72.795 106.531 72.7062 106.439C72.6114 106.34 72.5166 106.242 72.4296 106.137C72.3846 106.083 72.3348 106.031 72.2856 105.981C72.261 105.956 72.2328 105.933 72.2106 105.905C72.1836 105.873 72.1626 105.833 72.1404 105.797C72.1086 105.746 72.027 105.797 72.0606 105.846C72.0846 105.882 72.1116 105.917 72.1308 105.954C72.1482 105.989 72.1584 106.026 72.1728 106.062C72.2016 106.131 72.2316 106.202 72.2694 106.267C72.3474 106.401 72.4308 106.532 72.54 106.643C72.6438 106.749 72.756 106.833 72.8922 106.892C72.9576 106.92 73.0218 106.945 73.0932 106.952C73.1502 106.958 73.2264 106.97 73.2786 106.94C73.2906 106.932 73.2966 106.913 73.2876 106.901C73.254 106.859 73.1976 106.837 73.155 106.806Z" fill="#263238"/>
<path d="M55.2282 155.302C54.6822 155.785 47.3364 155.969 39.843 155.963C37.0014 155.961 34.1322 155.929 31.6104 155.873C27.0072 155.776 24.4938 155.658 24.3522 155.443C23.9676 154.86 29.9652 134.614 33.852 127.171C36.3228 122.443 38.2344 120.045 39.7944 118.693C40.7382 117.878 41.0712 117.416 41.8014 117.074C42.1908 116.894 42.5592 116.742 42.9102 116.57C44.6868 115.71 49.6038 116.54 50.3736 116.944C51.246 117.396 53.6406 122.001 54.1254 125.739C54.609 129.473 55.7034 154.877 55.2282 155.302Z" fill="#00989D"/>
<path opacity="0.1" d="M24.87 152.802H55.344C55.338 152.01 55.326 151.062 55.302 150H25.638L24.87 152.802Z" fill="black"/>
<path d="M39.822 122.356C39.2874 127.663 46.1934 144.927 50.0706 147.97C55.836 152.494 68.4486 155.591 72.1536 156.385C73.7682 156.73 76.3086 143.075 74.5896 142.675C70.8258 141.799 58.9164 140.188 57.8538 139.406C56.7906 138.623 50.0478 130.248 46.968 125.36C42.8358 118.803 40.0926 119.672 39.822 122.356Z" fill="#AD6359"/>
<path d="M81.5112 155.981C82.4652 154.637 80.3352 154.282 80.3352 154.282C80.3352 154.282 83.5248 154.054 83.9724 152.287C84.399 150.584 81.8106 150.245 81.6258 150.219C81.7944 150.205 84.72 149.919 84.987 148.098C85.263 146.205 82.6062 146.312 82.4346 146.32C82.59 146.257 84.6282 145.392 84.5166 143.962C84.3234 141.505 78.4638 143.504 76.6704 142.629V139.36C76.0782 140.123 75.3414 140.62 74.4912 141.397C73.4712 142.327 72.5952 142.925 72.3048 143.738C71.8296 145.078 72.8664 145.82 72.8664 145.82C72.8664 145.82 71.1696 146.241 70.914 147.668C70.785 148.401 71.8422 149.26 71.8422 149.26C71.8422 149.26 70.4976 149.653 70.3494 150.937C70.2282 151.961 71.3076 152.663 71.3076 152.663C71.3076 152.663 70.1922 153.641 70.4076 154.727C70.8378 156.92 79.4658 158.858 81.5112 155.981Z" fill="#AD6359"/>
<path d="M71.4612 152.801C71.433 152.793 71.4156 152.83 71.4426 152.844C74.1246 154.173 77.4786 154.812 80.448 154.313C80.5452 154.297 80.5614 154.131 80.4504 154.129C77.2914 154.058 74.493 153.744 71.4612 152.801Z" fill="#263238"/>
<path d="M71.7948 149.269C71.7618 149.258 71.7444 149.312 71.7774 149.329C74.5482 150.683 78.3462 151.299 81.7008 150.32C81.816 150.287 81.8856 150.141 81.75 150.17C79.4706 150.652 74.52 150.13 71.7948 149.269Z" fill="#263238"/>
<path d="M82.6446 146.171C79.3914 146.984 76.2042 146.674 72.9768 145.884C72.9348 145.874 72.9246 145.934 72.9576 145.952C74.4312 146.769 76.5408 147.058 78.2016 147.144C79.7922 147.226 81.2442 146.981 82.6734 146.285C82.7286 146.257 82.7142 146.153 82.6446 146.171Z" fill="#263238"/>
<path d="M44.9994 122.379C40.3524 116.701 37.9842 119.094 39.2892 125.521C40.5096 131.532 43.146 138.608 43.146 138.608L53.4438 132.692C53.4438 132.692 47.9736 126.012 44.9994 122.379Z" fill="#00989D"/>
<path d="M46.5438 124.077C47.1666 124.818 47.808 125.542 48.4482 126.267C48.2724 125.89 48.1158 125.507 47.973 125.115C47.9664 125.097 47.9922 125.087 48.0006 125.105C48.1404 125.403 48.2934 125.696 48.429 125.997C48.4938 126.142 48.5604 126.286 48.6276 126.429C48.642 126.46 48.657 126.491 48.6714 126.522C49.1694 127.088 49.6656 127.656 50.1474 128.235C50.7222 128.927 51.2796 129.633 51.84 130.337C52.4184 131.065 52.9794 131.926 53.5854 132.63C53.6382 132.692 52.6746 133.162 52.5858 133.22C52.4946 133.28 52.4238 133.193 52.5228 133.155C52.614 133.12 53.3652 132.582 53.3742 132.572C52.8144 131.861 52.176 131.213 51.5934 130.521C51.0138 129.833 50.4318 129.146 49.8672 128.445C48.7206 127.021 47.6544 125.532 46.515 124.101C46.4994 124.08 46.5288 124.059 46.5438 124.077Z" fill="#263238"/>
<path d="M39.8544 129.794C40.0386 130.098 40.2354 130.398 40.4016 130.712C40.4706 130.842 40.5384 130.973 40.6068 131.102C40.2822 129.964 39.9624 128.825 39.6444 127.685C39.6408 127.672 39.6606 127.664 39.6648 127.677C40.2858 129.515 40.911 131.351 41.4978 133.201C42.057 134.964 42.708 136.743 43.0842 138.556C43.2282 138.497 44.034 138.095 44.0616 138.147C44.0898 138.199 43.0176 138.8 42.9996 138.757C42.27 137.011 41.7528 135.006 41.2122 133.194C41.0598 132.684 40.9158 132.171 40.7682 131.66C40.626 131.356 40.4586 131.064 40.2954 130.771C40.122 130.46 39.9774 130.132 39.8226 129.812C39.813 129.793 39.8436 129.776 39.8544 129.794Z" fill="#263238"/>
<path d="M43.1886 136.812C44.6112 135.872 50.5734 132.233 51.9156 131.531C52.0086 131.482 52.0626 131.528 51.972 131.591C47.7786 134.507 44.6706 136.013 43.2276 136.866C43.1922 136.887 43.1526 136.836 43.1886 136.812Z" fill="#263238"/>
<path d="M49.3098 121.585C47.5536 121.844 44.8236 118.96 43.839 116.729C43.7724 116.575 44.1282 115.054 44.4732 113.185C44.6784 112.049 44.8794 110.78 44.9802 109.61C44.9994 109.369 45.7806 109.881 45.7806 109.881L47.2644 110.377L52.1724 112.022C52.1724 112.022 51.24 114.415 51.078 116.458C51.066 116.629 51.0696 116.789 51.0876 116.943C51.0882 116.965 51.0924 116.993 51.0912 117.023C51.1614 117.949 51.0072 121.332 49.3098 121.585Z" fill="#AD6359"/>
<path d="M51.087 116.943C51.0876 116.965 51.0918 116.993 51.0906 117.023C50.8578 117.037 50.6064 117.028 50.3322 116.999C45.396 116.465 45.3168 110.124 45.3168 110.124L47.2644 110.376L52.1724 112.022C52.1724 112.022 51.24 114.415 51.078 116.458C51.066 116.629 51.0696 116.789 51.087 116.943Z" fill="#263238"/>
<path d="M43.443 102.313C42.8262 104.975 44.7204 112.414 46.6902 113.966C49.5462 116.216 53.964 116.147 55.8114 112.773C57.6018 109.502 54.9618 99.8519 52.785 98.4677C49.5792 96.4289 44.3538 98.3801 43.443 102.313Z" fill="#AD6359"/>
<path d="M51.1692 106.715C51.1608 106.697 51.1356 106.749 51.1416 106.769C51.2826 107.267 51.3606 107.861 50.9478 108.14C50.9352 108.149 50.943 108.174 50.9592 108.167C51.4938 107.951 51.3828 107.164 51.1692 106.715Z" fill="#263238"/>
<path d="M50.5908 106.303C49.7688 106.443 50.109 108.077 50.871 107.947C51.6204 107.82 51.2802 106.186 50.5908 106.303Z" fill="#263238"/>
<path d="M54.048 106.001C54.048 105.98 54.0924 106.016 54.096 106.037C54.1854 106.547 54.3738 107.115 54.8664 107.187C54.882 107.19 54.8856 107.216 54.8682 107.217C54.2934 107.255 54.051 106.497 54.048 106.001Z" fill="#263238"/>
<path d="M54.3894 105.378C55.1904 105.146 55.5942 106.766 54.852 106.98C54.1218 107.191 53.718 105.572 54.3894 105.378Z" fill="#263238"/>
<path d="M49.7904 105.691C50.0016 105.588 50.1786 105.458 50.3766 105.336C50.5998 105.197 50.7924 105.11 50.9058 104.86C50.9664 104.726 50.8878 104.525 50.763 104.453C50.4726 104.287 50.157 104.389 49.881 104.545C49.5816 104.714 49.3944 104.921 49.269 105.241C49.1478 105.55 49.512 105.826 49.7904 105.691Z" fill="#263238"/>
<path d="M54.8502 104.423C54.6162 104.434 54.3984 104.404 54.1656 104.39C53.9028 104.375 53.6922 104.389 53.4738 104.224C53.3562 104.135 53.3298 103.92 53.406 103.798C53.5824 103.514 53.9088 103.453 54.2256 103.459C54.5694 103.466 54.8328 103.558 55.0944 103.78C55.3482 103.994 55.1592 104.41 54.8502 104.423Z" fill="#263238"/>
<path d="M51.4716 111.337C51.6174 111.43 51.7728 111.568 51.9594 111.545C52.1388 111.524 52.3284 111.401 52.4772 111.305C52.4916 111.295 52.5114 111.309 52.5048 111.326C52.4136 111.548 52.1628 111.727 51.9192 111.735C51.6816 111.743 51.5274 111.568 51.4278 111.37C51.414 111.342 51.4506 111.323 51.4716 111.337Z" fill="#263238"/>
<path d="M51.6882 109.711C52.0632 110.091 52.5294 110.244 52.998 110.238C53.2074 110.237 53.4204 110.2 53.6238 110.138C53.6646 110.128 53.7042 110.115 53.7396 110.099C53.7756 110.087 53.808 110.076 53.847 110.059C53.9046 110.038 53.9268 109.982 53.925 109.925L53.9244 109.921C53.9202 109.902 53.9166 109.888 53.9088 109.87C53.9088 109.87 53.9088 109.87 53.9082 109.866L53.898 109.822C53.8272 109.43 53.6664 108.845 53.6664 108.845C53.8236 108.887 54.618 109.062 54.5634 108.861C54.1116 107.196 53.6094 105.345 52.8084 103.784C52.7844 103.731 52.7022 103.762 52.7184 103.817C53.0892 105.434 53.742 106.974 54.1404 108.593C53.8902 108.553 53.4786 108.468 53.2758 108.515C53.2236 108.543 53.6076 109.64 53.6256 109.818C53.6256 109.818 53.6274 109.826 53.6262 109.838C52.989 110.058 52.4544 109.963 51.7272 109.655C51.6822 109.634 51.6492 109.677 51.6882 109.711Z" fill="#263238"/>
<path d="M53.3531 109.988C53.3531 109.988 53.1047 110.526 52.6667 110.793C52.5053 110.892 52.3229 110.956 52.1153 110.944C51.6893 110.922 51.6017 110.554 51.6095 110.221C51.6149 109.947 51.6893 109.697 51.6893 109.697C51.6893 109.697 52.3943 110.126 53.3531 109.988Z" fill="#263238"/>
<path d="M52.6662 110.792C52.5048 110.891 52.3224 110.955 52.1148 110.943C51.6888 110.921 51.6012 110.553 51.609 110.22C52.0518 110.174 52.542 110.379 52.6662 110.792Z" fill="#FF98B9"/>
<path d="M54.4662 100.79C52.227 103.155 48.0486 101.204 48.0486 101.204C47.6436 103.439 45.5394 103.634 45.5394 103.634C45.5394 103.634 45.978 108.191 44.805 108.434C43.0164 108.806 41.1624 102.863 41.469 101.55C41.7762 100.238 43.2258 99.6077 43.2258 99.6077C43.2258 99.6077 43.1382 98.6597 44.061 97.5791C45.0798 96.3833 49.5588 96.7361 49.5588 96.7361C49.5588 96.7361 49.6794 95.8901 50.3238 95.0495C50.7336 94.5185 51.417 94.4609 51.9444 94.8539C51.8028 95.1905 51.7284 95.5937 51.7518 96.0425C51.8208 97.3889 52.884 97.1591 52.6206 95.9807C52.503 95.4563 52.2492 95.0801 51.9444 94.8539C52.3032 93.9701 53.106 93.5345 53.715 93.8357C54.8196 94.3835 56.3286 98.8247 54.4662 100.79Z" fill="#263238"/>
<path d="M45.474 108.341C45.474 108.341 43.557 106.06 42.5076 106.764C41.4576 107.469 43.05 110.881 44.3886 111.248C45.7272 111.615 46.0914 110.383 46.0914 110.383L45.474 108.341Z" fill="#AD6359"/>
<path d="M42.9882 107.732C42.9672 107.732 42.966 107.761 42.9846 107.767C43.926 108.054 44.4792 108.854 44.8914 109.698C44.5914 109.386 44.2068 109.234 43.785 109.596C43.7628 109.615 43.7886 109.65 43.8138 109.642C44.1786 109.529 44.4528 109.57 44.7312 109.845C44.928 110.04 45.0732 110.297 45.2226 110.529C45.2724 110.606 45.4152 110.55 45.3762 110.459C45.3732 110.453 45.3702 110.445 45.3672 110.439C45.2868 109.278 44.2422 107.738 42.9882 107.732Z" fill="#263238"/>
<path d="M252.449 99.8422C251.652 98.6278 251.204 97.2622 251.204 95.818C251.204 90.7198 256.802 86.5864 263.704 86.5864C270.605 86.5864 276.198 90.7198 276.198 95.818C276.198 100.916 270.605 105.05 263.704 105.05C260.357 105.05 257.323 104.08 255.082 102.495L250.777 103.59L252.449 99.8422Z" fill="white"/>
<path d="M250.842 103.62L250.758 103.52L255.047 102.362L255.107 102.346L255.161 102.383C257.374 103.891 260.035 104.673 262.694 104.802C264.028 104.878 265.367 104.762 266.672 104.521C267.977 104.275 269.263 103.886 270.449 103.292C271.636 102.705 272.738 101.944 273.652 100.999C274.564 100.057 275.281 98.9213 275.641 97.6721C276.013 96.4265 275.974 95.0783 275.588 93.8447C275.207 92.6045 274.474 91.4819 273.551 90.5531C271.684 88.6979 269.152 87.5459 266.539 87.1025C263.921 86.6459 261.184 86.7941 258.644 87.6053C256.116 88.4009 253.743 89.9537 252.338 92.2319C251.632 93.3629 251.273 94.6967 251.279 96.0347C251.3 97.3745 251.729 98.7005 252.45 99.8429L250.842 103.62ZM251.137 96.0389C251.09 94.6745 251.417 93.2879 252.112 92.0999C252.79 90.9017 253.766 89.8931 254.867 89.0795C255.97 88.2617 257.213 87.6425 258.511 87.2057C259.808 86.7653 261.162 86.4989 262.529 86.3837C263.897 86.2775 265.276 86.3633 266.63 86.5841C269.331 87.0287 271.969 88.1969 273.958 90.1475C274.941 91.1243 275.738 92.3219 276.16 93.6677C276.58 95.0093 276.606 96.4835 276.197 97.8311C275.798 99.1835 275.02 100.393 274.05 101.383C273.078 102.376 271.919 103.163 270.681 103.766C268.195 104.971 265.394 105.404 262.669 105.231C259.946 105.046 257.23 104.208 255.002 102.607L255.116 102.628L250.794 103.66L250.647 103.694L250.71 103.559L252.449 99.8411C251.683 98.7311 251.192 97.4075 251.137 96.0389Z" fill="#263238"/>
<path d="M268.198 95.8182C268.198 96.534 268.778 97.1142 269.494 97.1142C270.209 97.1142 270.79 96.534 270.79 95.8182C270.79 95.1024 270.209 94.5222 269.494 94.5222C268.778 94.5222 268.198 95.1024 268.198 95.8182Z" fill="#263238"/>
<path d="M262.406 95.8182C262.406 96.534 262.986 97.1142 263.702 97.1142C264.418 97.1142 264.998 96.534 264.998 95.8182C264.998 95.1024 264.418 94.5222 263.702 94.5222C262.986 94.5222 262.406 95.1024 262.406 95.8182Z" fill="#263238"/>
<path d="M256.614 95.8182C256.614 96.534 257.194 97.1142 257.91 97.1142C258.626 97.1142 259.206 96.534 259.206 95.8182C259.206 95.1024 258.626 94.5222 257.91 94.5222C257.194 94.5222 256.614 95.1024 256.614 95.8182Z" fill="#263238"/>
</svg>
