<svg width="56" height="56" viewBox="0 0 56 56" fill="none" xmlns="http://www.w3.org/2000/svg">
<path fill-rule="evenodd" clip-rule="evenodd" d="M45.5 9.33333H10.5C9.85566 9.33333 9.33333 9.85567 9.33333 10.5V45.5C9.33333 46.1443 9.85567 46.6667 10.5 46.6667H45.5C46.1443 46.6667 46.6667 46.1443 46.6667 45.5V10.5C46.6667 9.85567 46.1443 9.33333 45.5 9.33333ZM10.5 7C8.56701 7 7 8.56701 7 10.5V45.5C7 47.433 8.56701 49 10.5 49H45.5C47.433 49 49 47.433 49 45.5V10.5C49 8.56701 47.433 7 45.5 7H10.5Z" fill="#FF5E00"/>
<path fill-rule="evenodd" clip-rule="evenodd" d="M23.9036 19.0515C21.9869 19.3826 20.59 21.0068 20.3624 22.9386L18.6667 37.3333H37.3333L35.6352 22.9191C35.4088 20.9969 34.0251 19.3755 32.1186 19.042C29.2596 18.5422 26.8778 18.5376 23.9036 19.0515ZM25.3519 24.089C25.4318 23.4497 24.9782 22.8666 24.3389 22.7867C23.6995 22.7068 23.1164 23.1603 23.0365 23.7997L21.981 32.2442C21.901 32.8835 22.3546 33.4666 22.9939 33.5465C23.6333 33.6264 24.2164 33.1729 24.2963 32.5335L25.3519 24.089Z" fill="#FF5E00"/>
<path fill-rule="evenodd" clip-rule="evenodd" d="M26.2201 21.0895C27.2361 21.8118 27.8326 23.0549 27.6671 24.3785L26.6117 32.8229C26.5023 33.6975 26.0792 34.456 25.4694 34.9999H34.709L33.318 23.1921C33.1985 22.1782 32.4967 21.4769 31.7168 21.3405C29.7671 20.9997 28.0887 20.912 26.2201 21.0895ZM35.6352 22.9191C35.4088 20.9969 34.0251 19.3755 32.1186 19.042C29.2596 18.5422 26.8778 18.5376 23.9036 19.0515C21.9869 19.3826 20.59 21.0068 20.3624 22.9386L18.6667 37.3333H37.3333L35.6352 22.9191ZM25.3519 24.089L24.2963 32.5335C24.2164 33.1729 23.6333 33.6264 22.9939 33.5465C22.3546 33.4666 21.901 32.8835 21.981 32.2442L23.0365 23.7997C23.1164 23.1603 23.6995 22.7068 24.3389 22.7867C24.9782 22.8666 25.4318 23.4497 25.3519 24.089Z" fill="#FF5E00"/>
<path fill-rule="evenodd" clip-rule="evenodd" d="M38.5 42H17.5V39.6666H38.5V42Z" fill="#FF5E00"/>
<path d="M15.1667 28C15.1667 28.3933 15.1844 28.7824 15.2189 29.1667H11.6667V26.8334H15.2189C15.1844 27.2177 15.1667 27.6068 15.1667 28Z" fill="#FF5E00"/>
<path d="M17.5145 20.599C17.0666 21.2323 16.6748 21.9079 16.3461 22.6187L13.2715 20.8437L14.4382 18.823L17.5145 20.599Z" fill="#FF5E00"/>
<path d="M22.6187 16.346C21.9079 16.6748 21.2323 17.0667 20.599 17.5144L18.823 14.4383L20.8437 13.2716L22.6187 16.346Z" fill="#FF5E00"/>
<path d="M28 15.1666C27.6067 15.1666 27.2176 15.1844 26.8333 15.2189V11.6666H29.1667V15.2189C28.7824 15.1844 28.3933 15.1666 28 15.1666Z" fill="#FF5E00"/>
<path d="M35.401 17.5144C34.7677 17.0667 34.0921 16.6748 33.3813 16.346L35.1563 13.2716L37.177 14.4383L35.401 17.5144Z" fill="#FF5E00"/>
<path d="M39.654 22.6187C39.3252 21.9079 38.9334 21.2323 38.4855 20.599L41.5618 18.823L42.7285 20.8437L39.654 22.6187Z" fill="#FF5E00"/>
<path d="M40.8333 28C40.8333 27.6068 40.8156 27.2177 40.7811 26.8334H44.3333V29.1667H40.7811C40.8156 28.7824 40.8333 28.3933 40.8333 28Z" fill="#FF5E00"/>
</svg>
