<svg width="50" height="50" viewBox="0 0 50 50" fill="none" xmlns="http://www.w3.org/2000/svg">
<path fill-rule="evenodd" clip-rule="evenodd" d="M19.7738 28.107C19.7742 28.6823 19.3082 29.1491 18.7329 29.1495C18.1576 29.15 17.6908 28.684 17.6904 28.1088C17.6899 27.5335 18.1558 27.0667 18.7312 27.0662C19.3065 27.0657 19.7732 27.5317 19.7738 28.107ZM24.9829 29.1444C24.9833 29.7197 24.5174 30.1865 23.9421 30.1869C23.3668 30.1874 22.9 29.7214 22.8996 29.1462C22.8991 28.5709 23.3651 28.1041 23.9403 28.1036C24.5156 28.1031 24.9824 28.5691 24.9829 29.1444ZM20.8205 34.3562C21.3957 34.3556 21.8618 33.889 21.8613 33.3137C21.8608 32.7384 21.3941 32.2723 20.8188 32.2728C20.2434 32.2733 19.7775 32.74 19.7779 33.3153C19.7784 33.8906 20.2452 34.3567 20.8205 34.3562ZM27.0688 32.2677C27.0693 32.843 26.6032 33.3098 26.0279 33.3102C25.4527 33.3107 24.9859 32.8447 24.9854 32.2694C24.985 31.6941 25.4509 31.2274 26.0263 31.2269C26.6016 31.2265 27.0683 31.6924 27.0688 32.2677ZM28.1147 37.4752C28.69 37.4747 29.156 37.0079 29.1555 36.4326C29.155 35.8574 28.6883 35.3914 28.113 35.3919C27.5377 35.3923 27.0717 35.8591 27.0722 36.4344C27.0727 37.0097 27.5394 37.4756 28.1147 37.4752ZM31.2354 32.2643C31.2359 32.8396 30.7699 33.3064 30.1946 33.3068C29.6194 33.3073 29.1526 32.8413 29.1521 32.266C29.1517 31.6907 29.6176 31.224 30.1929 31.2235C30.7682 31.223 31.235 31.689 31.2354 32.2643ZM22.9072 38.5212C23.4825 38.5206 23.9485 38.0539 23.948 37.4786C23.9476 36.9034 23.4808 36.4373 22.9055 36.4378C22.3302 36.4382 21.8643 36.905 21.8647 37.4803C21.8652 38.0556 22.332 38.5216 22.9072 38.5212ZM18.7389 36.4412C18.7394 37.0165 18.2733 37.4832 17.698 37.4838C17.1227 37.4842 16.656 37.0182 16.6555 36.4429C16.6551 35.8676 17.121 35.4009 17.6964 35.4004C18.2717 35.3999 18.7384 35.866 18.7389 36.4412ZM15.6113 33.3188C16.1866 33.3182 16.6526 32.8516 16.6521 32.2763C16.6517 31.701 16.1849 31.2349 15.6096 31.2354C15.0343 31.2359 14.5683 31.7026 14.5688 32.2779C14.5693 32.8532 15.036 33.3192 15.6113 33.3188Z" fill="#00979D"/>
<path fill-rule="evenodd" clip-rule="evenodd" d="M23.4375 6.24996C24.3004 6.24996 25 6.94951 25 7.81246V23.9583H27.0833V10.9375C27.0833 10.0745 27.7829 9.37496 28.6458 9.37496C29.5087 9.37496 30.2083 10.0745 30.2083 10.9375V27.1724C30.2083 29.156 32.7183 30.0171 33.9361 28.4513L37.2554 24.1837C37.8956 23.3606 39.1432 23.3715 39.769 24.2058C40.1566 24.7227 40.1908 25.4233 39.8555 25.9756L32.3514 38.3325C30.3085 41.6961 26.6584 43.75 22.723 43.75C16.5017 43.75 11.4583 38.7066 11.4583 32.4853V17.1875C11.4583 16.3245 12.1579 15.625 13.0208 15.625C13.8837 15.625 14.5833 16.3245 14.5833 17.1875V26.1641H16.6667V10.9375C16.6667 10.0745 17.3662 9.37496 18.2292 9.37496C19.0921 9.37496 19.7917 10.0745 19.7917 10.9375V23.9583H21.875V7.81246C21.875 6.94951 22.5746 6.24996 23.4375 6.24996ZM19.7955 7.64429C19.8833 5.70881 21.4803 4.16663 23.4375 4.16663C25.3947 4.16663 26.9917 5.70881 27.0795 7.64429C27.5541 7.41819 28.0852 7.29163 28.6458 7.29163C30.6594 7.29163 32.2917 8.92392 32.2917 10.9375V27.1724L35.6109 22.9046C37.0945 20.9973 39.9857 21.0226 41.4356 22.9558C42.334 24.1535 42.4133 25.7773 41.6361 27.0569L34.132 39.4138C31.7115 43.3996 27.3862 45.8333 22.723 45.8333C15.3511 45.8333 9.375 39.8571 9.375 32.4853V17.1875C9.375 15.1739 11.0073 13.5416 13.0208 13.5416C13.58 13.5416 14.1098 13.6675 14.5833 13.8925V10.9375C14.5833 8.92392 16.2156 7.29163 18.2292 7.29163C18.7898 7.29163 19.3209 7.41819 19.7955 7.64429Z" fill="#00979D"/>
</svg>
