<svg width="32" height="32" viewBox="0 0 32 32" fill="none" xmlns="http://www.w3.org/2000/svg">
<g clip-path="url(#clip0_86_223)">
<path d="M1.64103 5.74365H30.359C31.2653 5.74365 32 6.47838 32 7.38468V24.6154C32 25.5218 31.2653 26.2565 30.359 26.2565H1.64103C0.734728 26.2565 0 25.5218 0 24.6154V7.38468C0 6.47838 0.734728 5.74365 1.64103 5.74365Z" fill="#00989D"/>
<path d="M0.010459 15.413H1.5465L1.89284 14.6126H2.66822L3.01366 15.413H6.03594V14.8011L6.30572 15.4156H7.87466L8.14445 14.792V15.413H15.6554L15.6519 14.0991H15.7972C15.899 14.1025 15.9287 14.1115 15.9287 14.2725V15.413H19.8134V15.1072C20.1268 15.268 20.6141 15.413 21.2553 15.413H22.8896L23.2394 14.6126H24.0148L24.3568 15.413H27.5061V14.6527L27.9831 15.413H30.5068V10.387H28.0091V10.9805L27.6595 10.387H25.0966V10.9805L24.7755 10.387H21.3137C20.7343 10.387 20.2249 10.4645 19.8135 10.6804V10.387H17.4246V10.6804C17.1627 10.4578 16.8059 10.387 16.4092 10.387H7.68139L7.09579 11.6851L6.4944 10.387H3.74547V10.9805L3.44344 10.387H1.09903L0.0102539 12.7765V15.4129H0.010377L0.010459 15.413ZM9.70646 14.688H8.78486L8.78145 11.8657L7.47786 14.688H6.68853L5.38154 11.8632V14.688H3.55302L3.20759 13.8842H1.33571L0.986787 14.688H0.010336L1.62022 11.0844H2.95598L4.48496 14.4963V11.0844H5.95229L7.12882 13.529L8.2096 11.0844H9.70642L9.70646 14.688ZM2.90031 13.1363L2.285 11.6997L1.67311 13.1363H2.90031ZM13.3742 14.688H10.371V11.0844H13.3742V11.8348H11.27V12.4844H13.3237V13.223H11.2699V13.9427H13.3741L13.3742 14.688ZM17.6064 12.0549C17.6064 12.6295 17.2062 12.9263 16.973 13.0154C17.1696 13.0871 17.3377 13.2139 17.4177 13.3189C17.5446 13.4981 17.5665 13.6582 17.5665 13.9801V14.688H16.6597L16.6563 14.2335C16.6563 14.0167 16.6779 13.7049 16.5144 13.5315C16.3831 13.4047 16.1828 13.3772 15.8591 13.3772H14.8941V14.688H13.995V11.0844H16.0628C16.5222 11.0844 16.8608 11.096 17.1514 11.257C17.4358 11.418 17.6064 11.653 17.6064 12.0549ZM16.47 12.59C16.3464 12.6619 16.2003 12.6643 16.0252 12.6643H14.9331V11.8638H16.0401C16.1967 11.8638 16.3602 11.8706 16.4665 11.9288C16.5831 11.9813 16.6552 12.0931 16.6552 12.2474C16.6552 12.4049 16.5865 12.5317 16.47 12.59ZM19.0482 14.688H18.131V11.0844H19.0482V14.688ZM29.6968 14.688H28.4228L26.7189 11.9833V14.688H24.888L24.5381 13.8842H22.6706L22.3313 14.688H21.2791C20.8422 14.688 20.2888 14.5954 19.9755 14.2894C19.6596 13.9834 19.4952 13.569 19.4952 12.9137C19.4952 12.3793 19.5935 11.8907 19.9798 11.5046C20.2705 11.217 20.7257 11.0844 21.3451 11.0844H22.2155V11.8565H21.3634C21.0353 11.8565 20.85 11.9033 20.6716 12.07C20.5184 12.2218 20.4132 12.5086 20.4132 12.8863C20.4132 13.2723 20.4932 13.5507 20.6603 13.7326C20.7987 13.8752 21.0503 13.9184 21.2868 13.9184H21.6906L22.9577 11.0845H24.3047L25.8269 14.493V11.0846H27.1957L28.776 13.5943V11.0846H29.6968V14.688ZM24.2322 13.1364L23.6101 11.6998L22.9913 13.1364H24.2322ZM31.9877 20.4422C31.7694 20.7482 31.3438 20.9033 30.7678 20.9033H29.0316V20.1303H30.7607C30.9322 20.1303 31.0522 20.1087 31.1245 20.0411C31.1928 19.9806 31.2314 19.8953 31.2308 19.8061C31.2308 19.701 31.1872 19.6176 31.121 19.5677C31.0558 19.5126 30.9608 19.4877 30.8042 19.4877C29.9601 19.4602 28.907 19.5126 28.907 18.372C28.907 17.8493 29.2534 17.299 30.1968 17.299H31.9875V16.5819H30.3237C29.8216 16.5819 29.4568 16.6972 29.1985 16.8762V16.5818H26.7376C26.344 16.5818 25.882 16.6753 25.6636 16.8762V16.5818H21.2689V16.8762C20.9192 16.6345 20.3291 16.5818 20.0567 16.5818H17.1579V16.8762C16.8812 16.6195 16.266 16.5818 15.8908 16.5818H12.6466L11.9043 17.3516L11.209 16.5818H6.36262V21.6112H11.1175L11.8825 20.8291L12.6031 21.6112L15.534 21.6137V20.4306H15.8221C16.211 20.4363 16.6697 20.4212 17.0743 20.2537V21.611H19.4919V20.3002H19.6084C19.7573 20.3002 19.7719 20.3061 19.7719 20.4485V21.6108H27.1159C27.5822 21.6108 28.0695 21.4965 28.3395 21.289V21.6108H30.6689C31.1536 21.6108 31.627 21.5457 31.9872 21.3791L31.9873 20.4421L31.9877 20.4422ZM17.4261 18.5077C17.4261 19.5089 16.6464 19.7157 15.8606 19.7157H14.7388V20.9246H12.9915L11.8844 19.7314L10.734 20.9246H7.17288V17.3202H10.7887L11.8948 18.5017L13.0384 17.3202H15.911C16.6244 17.3202 17.4261 17.5094 17.4261 18.5077ZM10.2786 20.1665H8.06818V19.4494H10.0419V18.7139H8.06818V18.0586H10.3221L11.3054 19.109L10.2786 20.1665ZM13.84 20.5792L12.4597 19.1109L13.84 17.6894V20.5792ZM15.8813 18.9765H14.7195V18.0586H15.8917C16.2163 18.0586 16.4416 18.1854 16.4416 18.5005C16.4416 18.8123 16.2267 18.9765 15.8813 18.9765ZM21.9679 17.3202H24.9684V18.0656H22.8632V18.7209H24.917V19.4563H22.8632V20.1735L24.9684 20.1767V20.9246H21.9678L21.9679 17.3202ZM20.8143 19.2496C21.0144 19.3203 21.178 19.4471 21.2546 19.5521C21.3816 19.7282 21.4 19.8924 21.4036 20.2101V20.9246H20.501V20.4737C20.501 20.2568 20.5227 19.9358 20.3556 19.7681C20.2243 19.639 20.024 19.6082 19.6961 19.6082H18.7353V20.9247H17.8319V17.3202H19.9076C20.3627 17.3202 20.6942 17.3395 20.9893 17.4903C21.2729 17.6546 21.4514 17.8795 21.4514 18.2908C21.4514 18.866 21.0509 19.1596 20.8143 19.2496ZM20.3062 18.7939C20.1859 18.8623 20.0372 18.8682 19.8624 18.8682H18.7702V18.0587H19.8771C20.0372 18.0587 20.1974 18.062 20.3062 18.1238C20.4227 18.1822 20.4923 18.2939 20.4923 18.448C20.4923 18.6022 20.4226 18.7264 20.3062 18.7939ZM28.4219 19.0235C28.597 19.197 28.6907 19.4162 28.6907 19.7871C28.6907 20.5625 28.1852 20.9245 27.2784 20.9245H25.5275V20.1516H27.2715C27.442 20.1516 27.5629 20.13 27.6386 20.0623C27.7005 20.0066 27.7449 19.9256 27.7449 19.8273C27.7449 19.7222 27.6969 19.6389 27.6351 19.5889C27.5664 19.5339 27.4716 19.5089 27.315 19.5089C26.4743 19.4814 25.4214 19.5339 25.4214 18.3934C25.4214 17.8705 25.7641 17.3202 26.7067 17.3202H28.509V18.0874H26.8599C26.6965 18.0874 26.5902 18.0933 26.4997 18.1525C26.4013 18.2108 26.3648 18.2975 26.3648 18.4117C26.3648 18.5477 26.4483 18.6403 26.5615 18.6803C26.6563 18.7119 26.7582 18.7211 26.9113 18.7211L27.3952 18.7337C27.8832 18.745 28.2183 18.8259 28.4219 19.0235ZM31.9893 18.0586H30.3508C30.1872 18.0586 30.0784 18.0645 29.987 18.1237C29.8921 18.1821 29.8556 18.2687 29.8556 18.3831C29.8556 18.519 29.9357 18.6115 30.0522 18.6515C30.147 18.6832 30.2489 18.6924 30.3986 18.6924L30.8859 18.7049C31.3775 18.7165 31.7057 18.7975 31.9058 18.995C31.9424 19.0225 31.9641 19.0533 31.9892 19.0842V18.0586H31.9893Z" fill="#FFFFF0"/>
</g>
<defs>
<clipPath id="clip0_86_223">
<rect width="32" height="32" fill="white"/>
</clipPath>
</defs>
</svg>
