<svg width="50" height="50" viewBox="0 0 50 50" fill="none" xmlns="http://www.w3.org/2000/svg">
<path d="M6.25 12.7025C6.25 9.13891 9.13891 6.25 12.7025 6.25C14.1836 6.25 15.5491 6.74987 16.6378 7.58861C17.7265 6.74987 19.0919 6.25 20.573 6.25C22.2874 6.25 23.8454 6.9192 25.0001 8.00837C26.1547 6.9192 27.7127 6.25 29.4272 6.25C30.9082 6.25 32.2736 6.74986 33.3623 7.58856C34.4509 6.74986 35.8164 6.25 37.2974 6.25C40.861 6.25 43.75 9.13891 43.75 12.7025C43.75 14.1801 43.2524 15.5427 42.4173 16.6301C43.2564 17.8179 43.75 19.2687 43.75 20.8333C43.75 22.5059 43.1859 24.048 42.2392 25.2779C43.1812 26.3991 43.75 27.8471 43.75 29.4272C43.75 32.9908 40.8611 35.8797 37.2975 35.8797C35.8164 35.8797 34.451 35.3798 33.3623 34.5411C33.0953 34.7469 32.8117 34.9322 32.5136 35.0948C32.5054 35.1132 32.4964 35.1351 32.4866 35.1606C32.4212 35.3307 32.3542 35.5829 32.2917 35.9126V43.75H30.2083V35.8173C30.2083 35.7555 30.2139 35.694 30.2248 35.6331C30.3018 35.2046 30.4026 34.7759 30.5417 34.4137C30.6115 34.2322 30.702 34.0373 30.8235 33.8581C30.9408 33.685 31.1278 33.466 31.4125 33.3205C31.8595 33.092 32.2626 32.7883 32.6049 32.4258C32.8017 32.2174 33.0756 32.0993 33.3623 32.0993C33.649 32.0993 33.9229 32.2174 34.1197 32.4258C34.9177 33.271 36.0454 33.7964 37.2975 33.7964C39.7105 33.7964 41.6667 31.8402 41.6667 29.4272C41.6667 28.0985 41.075 26.9094 40.1371 26.1064C39.9147 25.9159 39.7826 25.6407 39.7733 25.348C39.7642 25.0553 39.8784 24.7723 40.0884 24.5682C41.0631 23.6206 41.6667 22.2983 41.6667 20.8333C41.6667 19.4706 41.1447 18.2323 40.288 17.3033C39.9042 16.8872 39.923 16.2405 40.3305 15.8475C41.1555 15.0516 41.6667 13.9376 41.6667 12.7025C41.6667 10.3674 39.8347 8.46005 37.5296 8.3394V8.37028C36.5389 8.37028 35.5192 8.86119 34.8574 9.66494C34.217 10.4427 33.9229 11.4954 34.3216 12.6915C34.5035 13.2373 34.2085 13.8272 33.6627 14.0091C33.117 14.191 32.5271 13.896 32.3451 13.3502C31.8889 11.9815 32.0017 10.6808 32.4844 9.58107C31.6953 8.80807 30.6174 8.33333 29.4272 8.33333C27.9503 8.33333 26.6443 9.06508 25.8518 10.1905C25.6567 10.4675 25.339 10.6324 25.0001 10.6324C24.6611 10.6324 24.3434 10.4675 24.1483 10.1905C23.3558 9.06508 22.0498 8.33333 20.573 8.33333C19.3208 8.33333 18.1931 8.85867 17.3952 9.70389C17.1984 9.91233 16.9244 10.0305 16.6377 10.0305C16.3511 10.0305 16.0771 9.91233 15.8803 9.70389C15.0824 8.85867 13.9547 8.33333 12.7025 8.33333C10.2895 8.33333 8.33333 10.2895 8.33333 12.7025C8.33333 13.9547 8.85867 15.0824 9.70389 15.8803C9.91234 16.0771 10.0305 16.3511 10.0305 16.6378C10.0305 16.9245 9.91234 17.1984 9.7039 17.3952C8.85868 18.1931 8.33334 19.3208 8.33334 20.573C8.33334 22.0498 9.06509 23.3558 10.1905 24.1483C10.4676 24.3434 10.6324 24.6611 10.6324 25.0001C10.6324 25.339 10.4676 25.6567 10.1905 25.8518C9.06509 26.6443 8.33334 27.9503 8.33334 29.4272C8.33334 31.4931 9.76823 33.2265 11.697 33.6803C12.1675 33.791 12.5 34.2109 12.5 34.6943V36.8057C12.5 37.3172 12.9146 37.7317 13.4259 37.7317C13.9373 37.7317 14.3519 37.3172 14.3519 36.8058V34.1225C14.3519 33.7495 14.5512 33.405 14.8747 33.2192C16.1898 32.4639 17.0718 31.0479 17.0718 29.4272C17.0718 27.9503 16.34 26.6443 15.2146 25.8518C15.1558 25.8103 15.1021 25.7633 15.0539 25.7119C14.3399 25.2422 13.4861 24.9999 12.4999 24.9999C11.9246 24.9999 11.4582 24.5335 11.4582 23.9582C11.4582 23.383 11.9247 22.9166 12.4999 22.9166C13.678 22.9166 14.7793 23.1756 15.7511 23.703C16.567 22.9084 17.0718 21.7996 17.0718 20.573C17.0718 19.3208 16.5465 18.1931 15.7013 17.3952C15.4928 17.1984 15.3746 16.9244 15.3746 16.6377C15.3746 16.351 15.4928 16.0771 15.7013 15.8803C15.7626 15.8223 15.8223 15.7626 15.8803 15.7013C16.0771 15.4927 16.351 15.3746 16.6377 15.3746C16.9244 15.3746 17.1984 15.4927 17.3952 15.7013C18.1931 16.5465 19.3208 17.0718 20.573 17.0718C22.0498 17.0718 23.3558 16.34 24.1483 15.2146C24.3434 14.9375 24.6611 14.7727 25.0001 14.7727C25.339 14.7727 25.6567 14.9375 25.8518 15.2146C26.6443 16.34 27.9503 17.0718 29.4272 17.0718C29.8524 17.0718 30.2617 17.0114 30.6479 16.8993C31.05 16.7825 31.483 16.9179 31.747 17.243C32.0109 17.5681 32.0545 18.0197 31.8577 18.3893C31.4701 19.117 31.25 19.9479 31.25 20.8333C31.25 21.7754 31.4993 22.6569 31.9353 23.4179C33.1219 24.0848 33.8989 24.7425 34.3568 25.5056C34.8975 26.407 34.8966 27.3154 34.8958 28.0453V28.1249C34.8958 28.7002 34.4295 29.1666 33.8542 29.1666C33.2789 29.1666 32.8125 28.7002 32.8125 28.1249C32.8125 27.3053 32.7909 26.9452 32.5703 26.5775C32.39 26.277 32.0167 25.8874 31.1643 25.3789C31.0851 25.3695 31.0061 25.3508 30.929 25.3226C30.462 25.1517 29.9567 25.0579 29.4272 25.0579C27.0141 25.0579 25.0579 27.0141 25.0579 29.4272C25.0579 31.1235 26.0245 32.596 27.4418 33.3205C27.552 33.3769 27.6508 33.4431 27.739 33.5145C27.9831 33.7122 28.125 34.0097 28.125 34.324V43.75H26.0417V34.921C24.2028 33.7856 22.9746 31.7506 22.9746 29.4272C22.9746 25.8635 25.8635 22.9746 29.4272 22.9746L29.4865 22.9749C29.2785 22.2973 29.1667 21.578 29.1667 20.8333C29.1667 20.2562 29.2339 19.6941 29.361 19.1548C27.6727 19.1378 26.1399 18.4719 25.0001 17.3967C23.8454 18.4859 22.2874 19.1551 20.573 19.1551C20.0121 19.1551 19.4677 19.0834 18.9487 18.9487C19.0834 19.4677 19.1551 20.0121 19.1551 20.573C19.1551 22.2874 18.4859 23.8454 17.3968 25.0001C18.4859 26.1547 19.1551 27.7127 19.1551 29.4272C19.1551 31.6011 18.0795 33.5229 16.4352 34.6909V36.8058C16.4352 38.4677 15.0879 39.815 13.4259 39.815C11.764 39.815 10.4167 38.4677 10.4167 36.8057V35.4627C7.98159 34.5399 6.25001 32.1868 6.25001 29.4272C6.25001 27.7127 6.91922 26.1547 8.00839 25.0001C6.91922 23.8454 6.25001 22.2874 6.25001 20.573C6.25001 19.0919 6.74989 17.7265 7.58862 16.6378C6.74989 15.5491 6.25 14.1836 6.25 12.7025Z" fill="#00979D"/>
</svg>
