<svg width="56" height="56" viewBox="0 0 56 56" fill="none" xmlns="http://www.w3.org/2000/svg">
<path fill-rule="evenodd" clip-rule="evenodd" d="M23.9553 12.2501C23.9553 15.1496 21.6048 17.5001 18.7053 17.5001C15.8058 17.5001 13.4553 15.1496 13.4553 12.2501C13.4553 9.35063 15.8058 7.00012 18.7053 7.00012C21.6048 7.00012 23.9553 9.35063 23.9553 12.2501ZM21.622 12.2501C21.622 13.8609 20.3161 15.1668 18.7053 15.1668C17.0945 15.1668 15.7886 13.8609 15.7886 12.2501C15.7886 10.6393 17.0945 9.33346 18.7053 9.33346C20.3161 9.33346 21.622 10.6393 21.622 12.2501Z" fill="#FF5E00"/>
<path d="M37.9165 8.26685L46.3248 16.6751L44.6749 18.325L43.1666 16.8166V23.3334H39.6665V20.4167C39.6665 19.4503 38.883 18.6667 37.9165 18.6667C36.95 18.6667 36.1665 19.4503 36.1665 20.4167V23.3334H32.6665V16.8166L31.158 18.325L29.5081 16.6751L37.9165 8.26685Z" fill="#FF5E00"/>
<path fill-rule="evenodd" clip-rule="evenodd" d="M20.7914 18.6667L20.828 18.6669H21.2329V18.6831C21.6641 18.7154 22.2005 18.8063 22.7676 19.0393C26.0605 20.3913 26.896 23.8014 27.3239 25.5482L27.3267 25.5595C27.5591 26.5081 27.5652 26.535 27.6982 27.138C27.8248 27.712 28.072 28.8325 28.7678 31.8901C29.1967 33.775 28.0165 35.6506 26.1317 36.0795C25.7357 36.1697 25.3405 36.1887 24.959 36.1453L25.658 39.6917C25.8669 40.7516 25.3098 41.9006 24.169 42.2623C22.9959 42.6345 20.8385 43.1667 18.083 43.1667C15.3274 43.1667 13.1699 42.6345 11.997 42.2623C10.8561 41.9006 10.299 40.7516 10.5079 39.6917L11.2068 36.1455C10.8256 36.1888 10.4305 36.1697 10.0349 36.0797C8.1501 35.6507 6.96986 33.7751 7.39878 31.8903C8.09208 28.8437 8.33986 27.7207 8.46686 27.1449L8.46826 27.1381C8.60128 26.5351 8.60748 26.5083 8.83989 25.5596L8.84267 25.5483C9.2706 23.8015 10.106 20.3914 13.3988 19.0394C14.1812 18.7181 14.905 18.6671 15.3743 18.667L20.7914 18.6667ZM18.8995 21.0002L15.3752 21.0003C15.0719 21.0004 14.6823 21.0347 14.2851 21.1978C12.2171 22.047 11.5704 24.2203 11.1062 26.1149C10.8782 27.0457 10.8746 27.0616 10.7502 27.6257L10.7484 27.6341L10.747 27.6409C10.6192 28.2201 10.371 29.345 9.67394 32.4081C9.53098 33.0363 9.92439 33.6616 10.5526 33.8045C10.9809 33.9019 11.4096 33.75 11.6836 33.4427L13.0935 26.6214L15.3785 27.0937L13.9535 33.9886L14.0064 34.0077L12.8112 40.0723C13.842 40.3898 15.7087 40.8334 18.083 40.8334C20.4572 40.8334 22.3238 40.3898 23.3548 40.0723L22.1591 34.0056L22.2121 33.9866L20.7879 27.0937L23.0729 26.6215L24.4822 33.4416C24.7561 33.7495 25.1853 33.9019 25.6139 33.8044C26.2422 33.6613 26.6356 33.0361 26.4926 32.4079C25.7956 29.3449 25.5474 28.2199 25.4197 27.6406L25.4163 27.6256C25.2919 27.0615 25.2884 27.0455 25.0604 26.1147C24.5963 24.2202 23.9495 22.0468 21.8814 21.1977C21.4844 21.0347 21.0951 21.0003 20.7918 21.0001L18.8995 21.0017V21.0002Z" fill="#FF5E00"/>
<path d="M13.8351 48.8939C12.9884 48.756 12.3664 48.0245 12.3664 47.1667V44.3615C13.9222 44.5453 15.3685 44.6631 16.7817 44.7165L15.776 47.722C15.5037 48.5355 14.6819 49.0318 13.8351 48.8939Z" fill="#FF5E00"/>
<path d="M20.4035 47.7607L19.3146 44.743C20.7676 44.7183 22.2342 44.6252 23.7997 44.4652V47.1667C23.7997 48.0169 23.1886 48.7441 22.3511 48.8906C21.5136 49.037 20.692 48.5604 20.4035 47.7607Z" fill="#FF5E00"/>
<path d="M38.4998 29.8502L48.6581 40.0085L47.0082 41.6584L44.9614 39.6116V48.013H40.6536V44.4232C40.6536 43.2336 39.6893 42.2693 38.4998 42.2693C37.3102 42.2693 36.3459 43.2336 36.3459 44.4232V48.013H32.0383V39.6116L29.9914 41.6584L28.3415 40.0085L38.4998 29.8502Z" fill="#FF5E00"/>
</svg>
