<svg width="50" height="50" viewBox="0 0 50 50" fill="none" xmlns="http://www.w3.org/2000/svg">
<path fill-rule="evenodd" clip-rule="evenodd" d="M18.4583 31.1396C18.6078 31.0961 18.7006 31.0499 18.75 31.0174V26.0416H20.8333V31.0174C20.8827 31.0499 20.9755 31.0961 21.125 31.1396C21.3023 31.1914 21.4936 31.2206 21.6503 31.2358C21.693 31.24 21.7313 31.2429 21.7639 31.245C21.752 29.5681 21.841 26.7178 24.2166 26.7178C27.6432 26.7178 30.0908 38.6786 28.6223 39.8991C27.1536 41.1195 24.2166 40.3873 22.7479 38.9227C21.6278 37.8056 21.6575 35.2777 21.7262 33.3293C21.6547 33.3261 21.5598 33.3202 21.4486 33.3093C21.2147 33.2866 20.8852 33.2399 20.5417 33.1396C20.3169 33.0741 20.0506 32.9757 19.7917 32.8223C19.5327 32.9757 19.2664 33.0741 19.0417 33.1396C18.6981 33.2399 18.3686 33.2866 18.1347 33.3093C18.0151 33.321 17.9144 33.3269 17.8412 33.33C17.8045 33.3315 17.7744 33.3324 17.752 33.3328H17.7476C17.8162 35.2808 17.8452 37.8063 16.7257 38.9227C15.2572 40.3873 12.32 41.1196 10.8514 39.8991C9.38285 38.6786 11.8305 26.7178 15.2572 26.7178C17.635 26.7178 17.7219 29.5736 17.7098 31.2499H17.7114C17.7196 31.2496 17.7343 31.2493 17.7545 31.2484C17.7953 31.2467 17.8573 31.2432 17.933 31.2358C18.0897 31.2206 18.281 31.1914 18.4583 31.1396ZM24.1317 28.8663L24.1379 28.8536C24.2923 28.9914 24.5134 29.2515 24.7735 29.6824C25.3249 30.5957 25.8439 31.9269 26.2451 33.3986C26.6427 34.857 26.8891 36.3229 26.9556 37.4477C26.9794 37.8485 26.9779 38.1695 26.962 38.4103C26.7664 38.4425 26.4787 38.4495 26.0818 38.3726C25.3307 38.2269 24.6217 37.849 24.2191 37.4476C24.2191 37.4476 24.1909 37.4198 24.1459 37.332C24.1004 37.2431 24.0477 37.1113 23.9971 36.9257C23.8933 36.5446 23.8276 36.0469 23.7989 35.4461C23.7707 34.8532 23.7811 34.2284 23.8014 33.6042C23.8067 33.4457 23.8127 33.281 23.8188 33.1151C23.8354 32.6709 23.8523 32.2166 23.8523 31.8438C23.8523 31.7056 23.8512 31.5664 23.8502 31.4271C23.8445 30.6645 23.8387 29.897 24.0038 29.2381C24.046 29.0699 24.0914 28.9487 24.1317 28.8663ZM15.3421 28.8663L15.3358 28.8536C15.1814 28.9914 14.9602 29.2515 14.7002 29.6824C14.1488 30.5957 13.6298 31.9269 13.2286 33.3986C12.831 34.857 12.5847 36.3229 12.5181 37.4477C12.4944 37.8485 12.4958 38.1695 12.5117 38.4103C12.7073 38.4425 12.995 38.4495 13.392 38.3726C14.143 38.2269 14.8521 37.849 15.2547 37.4476C15.2547 37.4476 15.2828 37.4198 15.3277 37.332C15.3733 37.2431 15.426 37.1113 15.4767 36.9257C15.5804 36.5446 15.6461 36.0469 15.6748 35.4461C15.703 34.8532 15.6926 34.2284 15.6723 33.6042C15.6671 33.4456 15.661 33.2809 15.6548 33.1149C15.6383 32.6708 15.6214 32.2166 15.6214 31.8438C15.6214 31.7057 15.6225 31.5667 15.6235 31.4276C15.6293 30.665 15.635 29.897 15.4699 29.2382C15.4277 29.0699 15.3823 28.9487 15.3421 28.8663Z" fill="#00979D"/>
<path d="M33.3333 14.5833C33.3333 15.1586 32.867 15.625 32.2917 15.625C31.7164 15.625 31.25 15.1586 31.25 14.5833C31.25 14.008 31.7164 13.5416 32.2917 13.5416C32.867 13.5416 33.3333 14.008 33.3333 14.5833Z" fill="#00979D"/>
<path d="M35.4167 17.7083C35.4167 18.2836 34.9503 18.75 34.375 18.75C33.7997 18.75 33.3333 18.2836 33.3333 17.7083C33.3333 17.133 33.7997 16.6666 34.375 16.6666C34.9503 16.6666 35.4167 17.133 35.4167 17.7083Z" fill="#00979D"/>
<path d="M37.5 20.8333C37.5 21.4086 37.0336 21.875 36.4583 21.875C35.883 21.875 35.4167 21.4086 35.4167 20.8333C35.4167 20.258 35.883 19.7916 36.4583 19.7916C37.0336 19.7916 37.5 20.258 37.5 20.8333Z" fill="#00979D"/>
<path d="M43.75 19.7917C43.75 20.367 43.2836 20.8333 42.7083 20.8333C42.133 20.8333 41.6667 20.367 41.6667 19.7917C41.6667 19.2164 42.133 18.75 42.7083 18.75C43.2836 18.75 43.75 19.2164 43.75 19.7917Z" fill="#00979D"/>
<path d="M43.75 14.5833C43.75 15.1586 43.2836 15.625 42.7083 15.625C42.133 15.625 41.6667 15.1586 41.6667 14.5833C41.6667 14.008 42.133 13.5416 42.7083 13.5416C43.2836 13.5416 43.75 14.008 43.75 14.5833Z" fill="#00979D"/>
<path d="M43.75 10.4167C43.75 10.992 43.2836 11.4583 42.7083 11.4583C42.133 11.4583 41.6667 10.992 41.6667 10.4167C41.6667 9.84138 42.133 9.375 42.7083 9.375C43.2836 9.375 43.75 9.84138 43.75 10.4167Z" fill="#00979D"/>
<path d="M39.5833 12.5C39.5833 13.0754 39.117 13.5417 38.5417 13.5417C37.9664 13.5417 37.5 13.0754 37.5 12.5C37.5 11.9247 37.9664 11.4584 38.5417 11.4584C39.117 11.4584 39.5833 11.9247 39.5833 12.5Z" fill="#00979D"/>
<path d="M39.5833 16.6667C39.5833 17.242 39.117 17.7083 38.5417 17.7083C37.9664 17.7083 37.5 17.242 37.5 16.6667C37.5 16.0914 37.9664 15.625 38.5417 15.625C39.117 15.625 39.5833 16.0914 39.5833 16.6667Z" fill="#00979D"/>
<path d="M31.25 19.7917C31.25 20.367 30.7836 20.8333 30.2083 20.8333C29.633 20.8333 29.1667 20.367 29.1667 19.7917C29.1667 19.2164 29.633 18.75 30.2083 18.75C30.7836 18.75 31.25 19.2164 31.25 19.7917Z" fill="#00979D"/>
<path d="M23.9583 17.7083C23.9583 18.2836 23.492 18.75 22.9167 18.75C22.3414 18.75 21.875 18.2836 21.875 17.7083C21.875 17.133 22.3414 16.6666 22.9167 16.6666C23.492 16.6666 23.9583 17.133 23.9583 17.7083Z" fill="#00979D"/>
<path d="M20.8333 16.6667C20.8333 17.242 20.367 17.7083 19.7917 17.7083C19.2164 17.7083 18.75 17.242 18.75 16.6667C18.75 16.0914 19.2164 15.625 19.7917 15.625C20.367 15.625 20.8333 16.0914 20.8333 16.6667Z" fill="#00979D"/>
<path fill-rule="evenodd" clip-rule="evenodd" d="M23.6697 25.0202C22.5192 25.0202 21.5864 24.0875 21.5864 22.9369V21.9508C21.5864 20.8003 22.5192 19.8675 23.6697 19.8675H24.7734C25.0012 19.8675 25.1994 19.7809 25.3293 19.6585C25.4554 19.5395 25.5048 19.4021 25.5055 19.2836V19.2759L25.5077 19.0291C25.5089 18.8791 25.5103 18.6782 25.5112 18.473C25.5122 18.2668 25.5126 18.0608 25.512 17.8991C25.5116 17.8176 25.511 17.7535 25.5102 17.7091C25.51 17.6991 25.5098 17.6911 25.5097 17.6849C25.483 17.273 25.5752 16.835 25.816 16.4404C26.0028 16.1344 26.234 15.9276 26.4312 15.7922C26.1689 15.1772 25.8941 14.5321 25.6333 13.8677C25.5391 13.6273 25.4902 13.3714 25.4895 13.113L25.4892 13.0974C25.4889 13.0798 25.4881 13.0487 25.4865 13.0068C25.4829 12.922 25.4758 12.7962 25.4613 12.6468C25.4304 12.3302 25.3736 11.9858 25.2855 11.7119C24.9819 10.7675 24.3614 9.91893 23.4917 9.30323C22.622 8.68759 21.5549 8.34265 20.4451 8.33333C19.3758 8.33265 18.3426 8.64874 17.4897 9.22418C16.6366 9.79978 16.0132 10.6005 15.6856 11.5006C15.3587 12.3991 15.3364 13.3674 15.6203 14.2768C15.9047 15.1877 16.4882 16.0114 17.3111 16.6204C17.8419 17.0133 18.1549 17.6346 18.1549 18.2949V22.9369C18.1549 24.0875 17.2222 25.0202 16.0716 25.0202H13.123C11.8407 25.017 10.6276 25.4908 9.73892 26.3101C8.86044 27.1199 8.37026 28.1981 8.33333 29.309V41.6667H32.2878V30.264C32.2878 30.2403 32.2881 30.2167 32.289 30.1931C32.311 29.5457 32.1976 28.8984 31.9527 28.2873C31.7076 27.6758 31.3341 27.1092 30.8478 26.6229C30.3615 26.1365 29.7721 25.7405 29.111 25.4632C28.4555 25.1882 27.7457 25.0369 27.0227 25.0202H23.6697ZM27.8348 22.9923C28.5518 23.0789 29.2532 23.2636 29.9168 23.542C30.8225 23.9219 31.6397 24.4683 32.321 25.1499C33.0025 25.8314 33.5345 26.6343 33.8865 27.5121C34.2383 28.39 34.403 29.3253 34.3711 30.264V43.75H6.25V29.2779C6.29596 27.5783 7.04139 25.9633 8.32681 24.7783C9.61225 23.5933 11.3356 22.9324 13.1283 22.9369H16.0716V18.2949C14.9049 17.4313 14.0518 16.2435 13.6317 14.8977C13.2115 13.5518 13.2451 12.1151 13.7279 10.7882C14.2107 9.46144 15.1185 8.3108 16.3246 7.49715C17.5305 6.68349 18.9745 6.24747 20.4545 6.25001C21.984 6.26122 23.4697 6.73518 24.6954 7.60285C25.921 8.47053 26.8226 9.68663 27.2689 11.0741C27.5728 12.0191 27.5728 13.1068 27.5728 13.1068C27.8286 13.7591 28.1006 14.3961 28.3725 15.0331L28.7565 15.9588C28.8998 16.2094 28.9971 16.4812 29.0444 16.7627C29.0548 16.9497 28.992 17.1336 28.8679 17.2793C28.8118 17.3451 28.745 17.401 28.6706 17.4453C28.5805 17.4989 28.4793 17.5353 28.3726 17.5516C28.3595 17.5516 28.3183 17.545 28.2614 17.5359C28.205 17.527 28.1332 17.5155 28.0577 17.5055C27.8352 17.4759 27.5796 17.4585 27.5888 17.5516C27.6042 17.7083 27.5888 19.2961 27.5888 19.2961C27.5854 19.8597 27.3943 20.4039 27.0486 20.8535L27.0449 20.8584C26.9587 20.9699 26.8632 21.0755 26.7585 21.1743C26.231 21.6717 25.5174 21.9508 24.7735 21.9508H23.6697V22.9369H27.0449C27.3096 22.9421 27.5732 22.9606 27.8348 22.9923ZM25.5092 17.6676C25.5092 17.6676 25.5092 17.6685 25.5093 17.671L25.5092 17.6676Z" fill="#00979D"/>
</svg>
