<svg width="50" height="50" viewBox="0 0 50 50" fill="none" xmlns="http://www.w3.org/2000/svg">
<path fill-rule="evenodd" clip-rule="evenodd" d="M24.9999 7.29171C18.1849 7.29171 12.6602 12.4218 12.6602 18.75H10.4167C10.4167 11.2712 16.9458 5.20837 24.9999 5.20837C33.054 5.20837 39.5831 11.2712 39.5831 18.75C39.5831 23.4388 37.0159 27.5702 33.1208 29.9993C30.4625 31.6571 28.3652 33.862 28.3652 36.366V36.4584C28.3652 41.0608 24.3473 44.7917 19.3909 44.7917C14.4346 44.7917 10.4167 41.0608 10.4167 36.4584V34.375H12.6602V36.4584C12.6602 39.9101 15.6736 42.7084 19.3909 42.7084C23.1082 42.7084 26.1217 39.9101 26.1217 36.4584V36.366C26.1217 32.7645 29.0699 30.016 31.87 28.2698C35.171 26.2112 37.3395 22.7156 37.3395 18.75C37.3395 12.4218 31.8149 7.29171 24.9999 7.29171ZM19.8842 17.7287C20.2833 15.9528 21.9295 14.5834 23.9583 14.5834C26.2956 14.5834 28.125 16.4008 28.125 18.5635H30.2083C30.2083 15.1792 27.374 12.5 23.9583 12.5C20.5427 12.5 17.7083 15.1792 17.7083 18.5635C17.7083 20.2711 18.3736 21.6368 19.8112 22.4259C20.5917 22.8542 21.1139 23.2183 21.4321 23.5105C21.5101 23.582 21.5689 23.6429 21.6129 23.6929C21.4205 23.7837 21.1075 23.887 20.6376 23.9769L21.0291 26.0232C21.7294 25.8892 22.3786 25.6898 22.8717 25.3737C23.386 25.0439 23.8779 24.4726 23.8111 23.6562C23.7544 22.9617 23.3018 22.3987 22.8409 21.9757C22.3487 21.5238 21.6647 21.0666 20.8137 20.5995C20.4787 20.4157 20.2162 20.1711 20.0411 19.8244C20.7627 19.8721 21.6522 19.9827 22.5282 20.2224C23.5106 20.4912 24.4003 20.9017 25.0315 21.4964C25.6234 22.0542 26.0305 22.8103 26.0415 23.9205C25.9068 25.339 25.5707 26.2549 25.1871 26.8484C24.8085 27.4338 24.3528 27.7546 23.88 27.9407C23.3885 28.1341 22.846 28.1936 22.3001 28.1936C22.029 28.1936 21.7695 28.1792 21.5184 28.1632L21.4229 28.157C21.2145 28.1434 20.987 28.1286 20.7956 28.1286C19.8065 28.1286 19.3054 28.8945 19.0741 29.3445C18.9139 29.6561 18.7557 30.0815 18.62 30.4468C18.5625 30.6014 18.509 30.7453 18.461 30.865C18.2635 31.359 18.0719 31.7197 17.8412 31.9572C17.6494 32.1549 17.4099 32.2917 16.9909 32.2917C16.4371 32.2917 16.1497 32.1669 16.0036 32.067C15.86 31.9688 15.77 31.8382 15.7103 31.6747C15.6466 31.5005 15.625 31.3059 15.625 31.138C15.625 31.0576 15.6299 30.9925 15.6343 30.9514C15.6364 30.9311 15.6382 30.9173 15.6392 30.9113C15.6395 30.9092 15.6396 30.9081 15.6396 30.9081L15.6392 30.9113L15.6384 30.9148L15.6381 30.9167C15.638 30.9172 15.6377 30.9187 14.613 30.7314C13.5883 30.5441 13.5882 30.5446 13.5881 30.5453L13.5879 30.5464L13.5875 30.5489L13.5865 30.5546L13.5841 30.5692C13.5822 30.5802 13.5801 30.5938 13.5777 30.6099C13.573 30.642 13.5675 30.6842 13.5622 30.735C13.5516 30.8361 13.5417 30.9743 13.5417 31.138C13.5417 31.458 13.5795 31.9138 13.7536 32.39C13.9317 32.8771 14.2578 33.397 14.8276 33.7866C15.3948 34.1746 16.1181 34.375 16.9909 34.375C17.9987 34.375 18.7699 33.9914 19.3359 33.4086C19.8633 32.8655 20.1769 32.1854 20.3955 31.6385C20.4954 31.3886 20.5721 31.1804 20.6386 30.9992C20.7421 30.718 20.8216 30.502 20.9269 30.2969C20.9432 30.2652 20.9577 30.2388 20.9704 30.2169C21.0568 30.2211 21.1584 30.2276 21.2828 30.2357L21.3858 30.2423C21.6448 30.2588 21.9593 30.2769 22.3001 30.2769C22.978 30.2769 23.8118 30.2064 24.6428 29.8793C25.4926 29.545 26.3057 28.9553 26.9366 27.9794C27.5578 27.0185 27.9682 25.7367 28.1207 24.0607C28.1235 24.0293 28.125 23.9979 28.125 23.9663C28.125 22.2394 27.4651 20.927 26.4601 19.9801C25.4861 19.0624 24.2356 18.5296 23.0779 18.213C21.911 17.8937 20.7605 17.7731 19.9131 17.7301C19.9034 17.7296 19.8939 17.7292 19.8842 17.7287ZM21.0336 30.1242C21.0336 30.1247 21.0305 30.1287 21.0242 30.1346C21.0304 30.1267 21.0336 30.1238 21.0336 30.1242Z" fill="#00979D"/>
</svg>
