<svg width="50" height="50" viewBox="0 0 50 50" fill="none" xmlns="http://www.w3.org/2000/svg">
<path fill-rule="evenodd" clip-rule="evenodd" d="M27.4926 19.2357C26.7483 18.9229 25.9307 18.75 25.0727 18.75C21.6209 18.75 18.8227 21.5482 18.8227 25C18.8227 28.4518 21.6209 31.25 25.0727 31.25C28.5245 31.25 31.3227 28.4518 31.3227 25C31.3227 24.7242 31.3049 24.4524 31.2702 24.186C31.8978 23.6145 32.2917 22.7907 32.2917 21.875C32.2917 20.1491 30.8926 18.75 29.1667 18.75C28.5508 18.75 27.9765 18.9281 27.4926 19.2357ZM25.0727 29.1667C22.7715 29.1667 20.906 27.3011 20.906 25C20.906 22.6989 22.7715 20.8333 25.0727 20.8333C25.4531 20.8333 25.8217 20.8843 26.1718 20.9798C26.0871 21.2634 26.0417 21.5639 26.0417 21.875C26.0417 23.6009 27.4407 25 29.1667 25C29.9031 25 30.5801 24.7452 31.1143 24.3191C30.5978 24.7312 29.9477 24.9839 29.2394 25C29.2394 27.3011 27.3739 29.1667 25.0727 29.1667ZM30.2083 21.875C30.2083 22.4503 29.742 22.9167 29.1667 22.9167C28.5913 22.9167 28.125 22.4503 28.125 21.875C28.125 21.2997 28.5913 20.8333 29.1667 20.8333C29.742 20.8333 30.2083 21.2997 30.2083 21.875Z" fill="#00979D"/>
<path fill-rule="evenodd" clip-rule="evenodd" d="M5.41254 21.7335C8.96245 17.7149 15.7097 12.5966 24.8144 12.5014C24.8761 12.5004 24.938 12.5 25 12.5H25.0303H25.0726C34.3079 12.5 41.1492 17.6771 44.7326 21.7335C46.3937 23.6141 46.3937 26.3859 44.7326 28.2665C41.1492 32.3229 34.3079 37.5 25.0726 37.5H25.0303H25C24.938 37.5 24.8761 37.4996 24.8144 37.4986C15.7097 37.4034 8.96245 32.2851 5.41255 28.2665C3.75136 26.3859 3.75135 23.6141 5.41254 21.7335ZM6.97392 23.1128C6.00868 24.2054 6.00868 25.7946 6.97392 26.8872C8.93115 29.1028 11.9016 31.641 15.7146 33.3686C13.7164 31.1529 12.5 28.2185 12.5 25C12.5 21.7815 13.7164 18.8471 15.7146 16.6314C11.9016 18.359 8.93115 20.8972 6.97392 23.1128ZM25.0296 14.5833C24.9663 14.5835 24.9032 14.5839 24.8402 14.5846C19.1609 14.6699 14.5833 19.3004 14.5833 25C14.5833 30.6996 19.1609 35.3301 24.8402 35.4154C24.9032 35.4161 24.9663 35.4165 25.0296 35.4167C30.7689 35.4007 35.4167 30.7431 35.4167 25C35.4167 19.2569 30.7689 14.5993 25.0296 14.5833ZM37.5 25C37.5 28.2718 36.243 31.2499 34.1856 33.4779C38.1164 31.7494 41.1723 29.15 43.1711 26.8872C44.1364 25.7946 44.1364 24.2054 43.1711 23.1128C41.1723 20.85 38.1164 18.2506 34.1856 16.5221C36.243 18.7501 37.5 21.7282 37.5 25Z" fill="#00979D"/>
</svg>
