<svg width="30" height="30" viewBox="0 0 30 30" fill="none" xmlns="http://www.w3.org/2000/svg">
<path d="M24.6875 5.3125V11.7306H23.2694V7.76188L17.0144 13.9734C17.4519 14.5776 17.7984 15.2336 18.0541 15.9416C18.3097 16.6495 18.4375 17.3773 18.4375 18.125C18.4375 19.9546 17.8012 21.5057 16.5287 22.7784C15.2562 24.0511 13.7053 24.6875 11.8759 24.6875C10.0468 24.6875 8.49563 24.0513 7.2225 22.7787C5.94917 21.5062 5.3125 19.9553 5.3125 18.1259C5.3125 16.2968 5.94885 14.7456 7.22156 13.4725C8.49427 12.1992 10.0454 11.5625 11.875 11.5625C12.625 11.5625 13.3461 11.6923 14.0384 11.9519C14.7307 12.2115 15.383 12.556 15.9953 12.9856L22.25 6.73063H18.2694V5.3125H24.6875ZM11.8794 12.9806C10.4533 12.9806 9.23875 13.4808 8.23563 14.4812C7.23229 15.4815 6.73063 16.6946 6.73063 18.1206C6.73063 19.5467 7.23083 20.7612 8.23125 21.7644C9.23146 22.7677 10.4446 23.2694 11.8706 23.2694C13.2967 23.2694 14.5112 22.7692 15.5144 21.7687C16.5177 20.7685 17.0194 19.5554 17.0194 18.1294C17.0194 16.7033 16.5192 15.4888 15.5188 14.4856C14.5185 13.4823 13.3054 12.9806 11.8794 12.9806Z" fill="#4B4B4B"/>
</svg>
