<svg width="128" height="128" viewBox="0 0 128 128" fill="none" xmlns="http://www.w3.org/2000/svg">
<path d="M56.328 84.8413L90.4413 50.728L86.6667 46.9533L56.328 77.292L41.128 62.092L37.3533 65.8667L56.328 84.8413ZM64.0173 112C57.38 112 51.1396 110.74 45.296 108.221C39.4533 105.702 34.3707 102.284 30.048 97.9653C25.7253 93.6471 22.3036 88.5689 19.7827 82.7307C17.2609 76.8933 16 70.6556 16 64.0173C16 57.38 17.2596 51.1396 19.7787 45.296C22.2978 39.4533 25.7164 34.3707 30.0347 30.048C34.3529 25.7253 39.4311 22.3036 45.2693 19.7827C51.1067 17.2609 57.3444 16 63.9827 16C70.62 16 76.8605 17.2596 82.704 19.7787C88.5467 22.2978 93.6293 25.7164 97.952 30.0347C102.275 34.3529 105.696 39.4311 108.217 45.2693C110.739 51.1067 112 57.3444 112 63.9827C112 70.62 110.74 76.8604 108.221 82.704C105.702 88.5467 102.284 93.6293 97.9653 97.952C93.6471 102.275 88.5689 105.696 82.7307 108.217C76.8933 110.739 70.6556 112 64.0173 112ZM64 106.667C75.9111 106.667 86 102.533 94.2667 94.2667C102.533 86 106.667 75.9111 106.667 64C106.667 52.0889 102.533 42 94.2667 33.7333C86 25.4667 75.9111 21.3333 64 21.3333C52.0889 21.3333 42 25.4667 33.7333 33.7333C25.4667 42 21.3333 52.0889 21.3333 64C21.3333 75.9111 25.4667 86 33.7333 94.2667C42 102.533 52.0889 106.667 64 106.667Z" fill="#FF5E00"/>
</svg>
