<svg width="56" height="56" viewBox="0 0 56 56" fill="none" xmlns="http://www.w3.org/2000/svg">
<path fill-rule="evenodd" clip-rule="evenodd" d="M45.1583 9.67508C45.614 10.1307 45.614 10.8694 45.1583 11.325L33.4504 23.0328C34.3917 23.0407 35.3688 23.0278 36.4072 23.0142C37.312 23.0023 38.2632 22.9898 39.2778 22.9898C42.0582 22.9898 43.9874 24.0827 45.1895 25.8209C46.3391 27.483 46.735 29.6056 46.8117 31.5609C46.889 33.5387 46.6444 35.4919 46.3872 36.9333C46.258 37.6583 46.1238 38.2632 46.0214 38.6893C45.9702 38.9024 45.9266 39.0714 45.8956 39.1886L45.889 39.2136V45.5C45.889 46.1444 45.3665 46.6667 44.7223 46.6667H39.6667C39.0223 46.6667 38.5 46.1444 38.5 45.5C38.5 44.5119 38.6491 43.7534 38.9306 43.1461C39.2205 42.5203 39.6081 42.1514 39.8915 41.9055C39.9656 41.8413 40.0211 41.7927 40.0625 41.7564C38.0578 40.6027 36.8807 39.6363 35.9528 38.4046C35.459 37.7491 35.0569 37.0465 34.6422 36.268C34.4825 35.9683 34.3244 35.6642 34.1582 35.3444C34.0018 35.0437 33.838 34.7287 33.6589 34.3903L25.6667 37.0387V43.4865C25.6667 44.2311 25.5487 45.0034 25.0588 45.6214C24.552 46.2608 23.8304 46.5084 23.1569 46.6185C22.493 46.727 21.6825 46.7311 20.7903 46.7171C20.6102 46.7143 20.4252 46.7107 20.2344 46.7067C20.1201 46.7043 20.0035 46.7017 19.8848 46.6991C19.1808 46.6837 18.3981 46.6667 17.5 46.6667C17.0215 46.6667 16.5147 46.4602 16.2069 45.9722C15.9518 45.5679 15.9406 45.1331 15.9637 44.8563C16.0114 44.2834 16.2678 43.6721 16.5651 43.1622C16.8749 42.6312 17.3036 42.0825 17.8174 41.6524C18.2987 41.2495 18.963 40.8621 19.7457 40.8349L19.7459 40.8313C19.7553 40.6781 19.7493 40.4716 19.7246 40.193C19.6983 39.8981 19.6482 39.524 19.5897 39.0897C19.4701 38.2001 19.3166 37.0577 19.2666 35.8246C18.2005 35.3672 17.3489 34.8571 16.7121 34.212C15.8944 33.3833 15.5189 32.424 15.3718 31.3385C15.2322 30.3102 15.2916 29.1057 15.3691 27.7581L15.3921 27.3636C15.4476 26.412 15.5099 25.3468 15.5389 24.1286C14.2712 24.4484 12.8745 24.5 11.6667 24.5C9.3098 24.5 8.16756 22.5025 7.65681 21.132C7.38058 20.3908 7.21928 19.6636 7.12665 19.1309C7.07989 18.862 7.04958 18.6366 7.03073 18.4757C7.02129 18.3951 7.01469 18.3304 7.01031 18.284L7.00534 18.2286L7.00396 18.2117L7.00353 18.2061L7.00337 18.2041C7.00337 18.2041 7.00325 18.2025 8.16669 18.1158L7.00325 18.2025C6.96376 17.6727 7.28721 17.1832 7.78999 17.0116L8.31924 16.8307C8.64584 16.719 9.096 16.5648 9.59028 16.395C10.3234 16.1432 11.1503 15.8581 11.8149 15.626C12.0094 15.0257 12.3705 14.4566 12.7506 13.9919C13.3486 13.2606 14.1755 12.5628 15.11 12.1258C16.0424 11.6897 17.2003 11.4642 18.3406 11.9059C19.4974 12.3539 20.3672 13.3832 20.9271 14.8906C21.8258 17.3105 22.8296 18.97 23.9273 20.1245C25.0125 21.2657 26.233 21.9589 27.6481 22.3849C28.4587 22.6287 29.3372 22.7862 30.2986 22.8849L43.5084 9.67508C43.964 9.21947 44.7027 9.21947 45.1583 9.67508ZM26.9758 24.6192C27.3908 24.744 27.8147 24.8486 28.2474 24.936L25.7668 27.4167H17.7263C17.7974 26.1994 17.8806 24.742 17.8884 23.0103C18.1622 22.7838 18.4136 22.5207 18.6318 22.215C19.1711 21.4595 19.4445 20.5329 19.4445 19.4544H17.1111C17.1111 20.126 16.9469 20.5593 16.7328 20.8592C16.5129 21.1673 16.175 21.4253 15.6862 21.6312C14.661 22.0629 13.2231 22.1667 11.6667 22.1667C10.9125 22.1667 10.3047 21.5554 9.84325 20.3172C9.66006 19.8257 9.53744 19.3234 9.45769 18.9073C9.72103 18.8171 10.0253 18.7128 10.3484 18.6017C11.3376 18.262 12.5093 17.8575 13.223 17.6046C13.6887 17.4396 14 16.9991 14 16.5049C14 16.4064 14.1107 16.0145 14.5567 15.4691C14.9673 14.9671 15.526 14.5071 16.0984 14.2394C16.6729 13.9706 17.1435 13.9445 17.498 14.0817C17.8359 14.2126 18.3273 14.5927 18.7397 15.703C19.7106 18.3171 20.857 20.2817 22.2364 21.7324C23.6285 23.1963 25.2126 24.0886 26.9758 24.6192ZM24.1331 35.0888L25.0833 34.7739V29.75H17.6216C17.6168 30.2397 17.6339 30.6563 17.6839 31.0249C17.7798 31.7315 17.9877 32.1825 18.3729 32.5729C18.7986 33.0042 19.524 33.4457 20.8287 33.9381C21.2828 34.1095 21.5833 34.5442 21.5833 35.0296C21.5833 36.4068 21.737 37.535 21.8756 38.5539C21.9435 39.0522 22.0078 39.5244 22.0487 39.9867C22.1017 40.5837 22.135 41.3515 21.8409 41.9898C21.6719 42.3568 21.3964 42.6821 20.9978 42.8984C20.6198 43.1034 20.2114 43.1667 19.8333 43.1667C19.7792 43.1667 19.6002 43.203 19.3153 43.4415C19.0454 43.6676 18.7813 43.9939 18.5807 44.3379L18.5789 44.341C19.0792 44.3476 19.5433 44.3578 19.967 44.367C20.2754 44.3737 20.5628 44.3799 20.8269 44.3841C21.7394 44.3984 22.3508 44.386 22.7806 44.3158C22.9859 44.2822 23.104 44.2419 23.1685 44.2111C23.1987 44.1968 23.2142 44.1859 23.2207 44.1809L23.2228 44.1793C23.2275 44.1753 23.2302 44.172 23.2302 44.172C23.2326 44.169 23.3333 44.0404 23.3333 43.4865V36.1962C23.3333 35.6933 23.6557 35.247 24.1331 35.0888ZM31.1866 25.2966L27.4167 29.0666V34.0007L33.8553 31.8672C34.3902 31.6899 34.9754 31.9204 35.2458 32.4147C35.6273 33.1121 35.9599 33.7517 36.2512 34.3116C36.4138 34.624 36.5634 34.9118 36.7015 35.1708C37.1014 35.9215 37.4349 36.4942 37.8164 37.0006C38.5507 37.9753 39.5443 38.8147 41.7849 40.0482C42.0659 40.2029 42.2708 40.4665 42.3514 40.7769C42.5263 41.45 42.5582 42.1007 42.2648 42.6996C42.042 43.1541 41.6499 43.4781 41.4763 43.6214C41.4707 43.626 41.465 43.6308 41.4598 43.635C41.4444 43.6477 41.4312 43.6588 41.4205 43.668C41.2445 43.8209 41.1374 43.9336 41.0475 44.1272C41.0221 44.1823 40.9954 44.25 40.9697 44.3334H43.5556V39.312L39.7734 31.0872L41.8934 30.1124L44.2807 35.304C44.4303 34.185 44.5294 32.9122 44.4801 31.6522C44.4108 29.8825 44.0533 28.28 43.2705 27.1483C42.5404 26.0927 41.3584 25.3231 39.2778 25.3231C38.3377 25.3231 37.4108 25.335 36.5101 25.3466C35.1447 25.3641 33.839 25.3809 32.6381 25.3543C32.1468 25.3434 31.6629 25.3253 31.1866 25.2966Z" fill="#FFB203"/>
</svg>
