<svg width="50" height="50" viewBox="0 0 50 50" fill="none" xmlns="http://www.w3.org/2000/svg">
<path fill-rule="evenodd" clip-rule="evenodd" d="M26.6083 8.33336V10.4886C26.6083 10.8927 26.3746 11.2604 26.0087 11.4319L23.1311 12.7806C22.6948 12.9851 22.1751 12.8636 21.8747 12.4868L19.9505 10.0737L18.2018 11.1926L19.9904 13.4358C20.1708 13.662 20.2491 13.9531 20.2062 14.2393C20.1639 14.5229 20.0063 14.7765 19.771 14.9402C19.7717 14.9398 19.7719 14.9396 19.771 14.9402L19.7701 14.9408L19.7691 14.9416M18.2502 17.156C18.4882 16.4286 18.8596 15.8795 19.1825 15.5044C19.3579 15.3008 19.5162 15.1519 19.6254 15.0576C19.6799 15.0105 19.7216 14.9776 19.7463 14.9586C19.7587 14.9492 19.7669 14.9432 19.7701 14.9408M18.2502 17.156C17.9439 16.5861 17.5298 16.0828 17.0809 15.647C16.9791 15.548 16.8742 15.4514 16.7668 15.357C17.0346 14.8646 17.3317 14.461 17.6041 14.1448C17.6554 14.0851 17.706 14.0284 17.7556 13.9747L18.3616 14.7347L19.176 14.0852L19.7649 14.9445C19.7647 14.9446 19.7651 14.9443 19.7649 14.9445C19.7646 14.9447 19.7649 14.9445 19.176 14.0852C18.5871 13.2259 18.5868 13.2262 18.5865 13.2265L18.5843 13.2279L18.5808 13.2303L18.5725 13.2361L18.5497 13.2525C18.5318 13.2654 18.5087 13.2824 18.481 13.3035C18.4257 13.3458 18.3518 13.4049 18.2639 13.4807C18.1243 13.6014 17.9482 13.7656 17.7556 13.9747L15.8522 11.5877C15.6682 11.357 15.5907 11.0591 15.6391 10.7679C15.6873 10.4769 15.8567 10.2198 16.1052 10.0608L19.6183 7.81298C20.0677 7.52546 20.6617 7.62389 20.9942 8.04098L22.9911 10.5454L22.247 10.8942L22.6891 11.8374L23.5035 11.1879L22.9911 10.5454L24.525 9.8265V10.4886H25.5667L25.1246 9.54547L24.525 9.8265V7.29171C24.525 6.71642 24.9914 6.25005 25.5667 6.25004L30.05 6.25C30.3262 6.25 30.5912 6.35974 30.7866 6.55509C30.9819 6.75045 31.0917 7.0154 31.0917 7.29167V9.92046C31.1951 9.99315 31.3101 10.0774 31.4334 10.1733C31.8962 10.5328 32.4907 11.0659 33.0394 11.7767C35.2435 11.2708 37.6722 11.1549 40.3173 11.2461L41.3607 11.2822L41.1019 18.3137L40.0632 18.2779C39.0515 18.243 38.1828 18.2276 37.4267 18.2375C37.5994 18.364 37.78 18.5092 37.9747 18.6814C42.6837 22.8467 41.6204 29.3161 38.7073 34.3472C37.2248 36.9076 35.2023 39.2339 32.9936 40.9298C30.8017 42.613 28.3262 43.75 25.9478 43.75C23.5634 43.75 21.1498 42.6071 19.0367 40.9323C16.9088 39.2458 14.9881 36.9455 13.5755 34.4465C12.1658 31.9525 11.2261 29.1961 11.1385 26.5903C11.0737 24.6657 11.4766 22.7965 12.5181 21.208C12.4995 21.1824 12.4787 21.1545 12.4559 21.1247C12.3134 20.9378 12.095 20.6794 11.8013 20.4084C11.2116 19.8642 10.3504 19.297 9.21045 19.1147C8.93256 19.0702 8.68447 18.9152 8.52268 18.6849C8.36089 18.4547 8.29915 18.1687 8.35154 17.8922L9.28437 12.9677C9.33912 12.6786 9.51354 12.4262 9.76454 12.2728C10.0155 12.1194 10.3197 12.0793 10.6019 12.1623L10.3078 13.1616C10.6019 12.1623 10.6017 12.1622 10.6019 12.1623L10.605 12.1632L10.6105 12.1649L10.6292 12.1704C10.6448 12.1752 10.6669 12.1819 10.695 12.1906C10.7511 12.2081 10.8316 12.2335 10.9328 12.267C11.1351 12.3336 11.4215 12.4321 11.7653 12.5615C12.4504 12.8192 13.3762 13.2042 14.3243 13.7109C15.1477 14.151 16.0182 14.6991 16.7668 15.357C16.5412 15.7715 16.3365 16.2489 16.1846 16.7901L18.1904 17.3529C18.2093 17.2859 18.2292 17.2203 18.2502 17.156ZM11.107 14.5398L10.5822 17.3102C11.7209 17.6842 12.597 18.3077 13.2143 18.8774C13.4459 19.0912 13.6437 19.2998 13.8084 19.4889C13.9132 19.4295 14.0272 19.366 14.1502 19.2991C14.7253 18.9858 15.4978 18.5943 16.4375 18.1852C16.261 17.8422 15.992 17.4935 15.6296 17.1416C15.0102 16.5401 14.1923 16.0027 13.3421 15.5482C12.5315 15.1149 11.7272 14.7757 11.107 14.5398ZM18.653 18.1848C18.5618 17.8207 18.4231 17.4778 18.2502 17.156L18.653 18.1848ZM18.653 18.1848C18.8703 18.1871 19.0865 18.1949 19.3003 18.2072C20.7675 18.2913 22.2772 18.5958 23.5974 18.9594C25.2451 15.9334 27.223 14.0899 30.034 12.7889C30.3037 12.664 30.5778 12.5478 30.856 12.44C30.6085 12.1897 30.366 11.9821 30.1554 11.8184C29.9656 11.671 29.8053 11.5621 29.6964 11.4921C29.642 11.4572 29.6007 11.4323 29.5753 11.4173C29.5627 11.4098 29.554 11.4048 29.5496 11.4023C29.5477 11.4013 29.5467 11.4006 29.5465 11.4005L29.5496 11.4023C29.2158 11.2195 29.0083 10.8692 29.0083 10.4886V8.33334L26.6083 8.33336M30.05 10.4886L29.5496 11.4023C29.5495 11.4022 29.5498 11.4024 29.5496 11.4023C29.5498 11.4024 29.55 11.4025 30.05 10.4886ZM22.6392 20.8602C21.5308 20.5758 20.3266 20.3527 19.181 20.2871C17.4354 20.187 16.0775 20.4669 15.3013 21.1534C13.7826 22.4969 13.148 24.3606 13.2206 26.5202C13.2941 28.7004 14.0935 31.1291 15.3892 33.4212C16.6819 35.7082 18.4327 37.7952 20.3307 39.2996C22.2433 40.8154 24.2098 41.6667 25.9478 41.6667C27.6919 41.6667 29.7274 40.8112 31.7248 39.2775C33.7055 37.7565 35.5507 35.6411 36.9044 33.3032C39.6637 28.5377 40.1464 23.3836 36.5944 20.2418C36.1616 19.859 35.8546 19.678 35.4619 19.4796C35.3697 19.4329 35.2691 19.3837 35.1594 19.3302C34.8308 19.1696 34.4204 18.969 33.9066 18.6765C33.7071 18.7426 33.5185 18.8173 33.3379 18.9008C32.2186 19.419 31.2115 20.2226 30.2595 21.7358C30.1749 21.8702 30.0765 21.9942 29.9667 22.106L27.7221 26.9624L27.524 27.6733C27.2041 28.8218 27.2878 30.0451 27.7611 31.1393L27.8835 31.4221L31.5481 30.9967L31.7883 33.0661L28.3418 33.4663L28.5657 36.7494L26.4873 36.8911L26.2078 32.7955L25.8492 31.9666C25.3616 30.8396 25.1693 29.6147 25.28 28.4057L23.0209 29.4274L21.6355 32.9293L19.6982 32.1629L20.7954 29.3896L17.4511 28.6017L17.9289 26.5739L22.1012 27.5569L25.9584 25.8125L27.464 22.5553C26.5135 22.1533 25.0714 21.5766 23.828 21.2128L22.637 20.8644L22.6392 20.8602ZM25.6231 19.6044C26.6712 19.9705 27.696 20.3898 28.3899 20.6851C28.3926 20.6862 28.4028 20.6905 28.4262 20.6826C28.4519 20.674 28.4783 20.6547 28.496 20.6265C29.6527 18.7879 30.9619 17.705 32.4628 17.0102C34.1409 16.2334 36.1534 16.0971 39.0962 16.1653L39.2016 13.3039C35.8881 13.2656 33.1724 13.6318 30.9091 14.6795C28.6494 15.7254 27.0304 17.1508 25.6231 19.6044Z" fill="#00979D"/>
</svg>
