<svg width="50" height="50" viewBox="0 0 50 50" fill="none" xmlns="http://www.w3.org/2000/svg">
<path fill-rule="evenodd" clip-rule="evenodd" d="M16.6558 14.6629C18.999 14.6629 20.8985 12.7796 20.8985 10.4565C20.8985 8.13329 18.999 6.25 16.6558 6.25C14.3126 6.25 12.413 8.13329 12.413 10.4565C12.413 12.7796 14.3126 14.6629 16.6558 14.6629ZM16.6558 12.5796C17.8593 12.5796 18.8112 11.6159 18.8112 10.4565C18.8112 9.29694 17.8593 8.33333 16.6558 8.33333C15.4523 8.33333 14.5004 9.29694 14.5004 10.4565C14.5004 11.6159 15.4523 12.5796 16.6558 12.5796Z" fill="#00989D"/>
<path fill-rule="evenodd" clip-rule="evenodd" d="M9.66144 17.266C10.6572 16.6686 11.7584 16.4209 12.8631 16.4209H20.507C21.6117 16.4209 22.7129 16.6686 23.7086 17.266C24.7024 17.8623 25.4184 18.7031 25.9172 19.6225C26.763 21.1819 27.0592 23.1037 27.1113 25.0466C29.9655 25.0789 32.2693 27.3983 32.2693 30.2546V35.4629C32.2693 36.6135 33.2038 37.5462 34.3566 37.5462C35.5094 37.5462 36.444 36.6135 36.444 35.4629L36.4444 23.7441H34.8039V22.2337H33.0146C32.0265 22.2337 31.2254 21.4007 31.2254 20.3731V18.1413L31.1802 17.1092L31.2254 17.1073V9.2622C31.2254 8.23458 32.0265 7.40153 33.0146 7.40153H35.6983L36.2047 6.85991C36.9073 6.10838 38.0678 6.10838 38.7703 6.85991L39.2767 7.40153H41.9604C42.9485 7.40153 43.7496 8.23458 43.7496 9.2622V20.3731C43.7496 21.4007 42.9485 22.2337 41.9604 22.2337H40.1715V23.7441H38.5317L38.5314 35.4629C38.5314 37.7641 36.6622 39.6296 34.3566 39.6296C32.0509 39.6296 30.1819 37.7641 30.1819 35.4629V30.2546C30.1819 28.5477 28.8106 27.1603 27.1076 27.1301C27.1079 27.156 27.1082 27.1823 27.1085 27.2089V27.2102L27.1086 27.2142C27.1139 27.6369 27.1201 28.1404 27.1201 28.6846C27.1201 30.2951 25.812 31.6007 24.1983 31.6007C23.9057 31.6007 23.6231 31.5577 23.3566 31.4778V34.4H23.349V40.8364C23.349 42.3953 22.1206 43.6784 20.5604 43.7495C19.0002 43.8205 17.6599 42.6544 17.5176 41.1021L16.7322 32.5304H16.5797L15.7942 41.1021C15.652 42.6544 14.3117 43.8205 12.7515 43.7495C11.1913 43.6784 9.96291 42.3953 9.96291 40.8364V34.4H9.95522V31.5045L9.95511 31.4947C9.70587 31.5637 9.44316 31.6007 9.17172 31.6007C7.55809 31.6007 6.25 30.2951 6.25 28.6846C6.25 28.1401 6.25622 27.6364 6.26144 27.2136L6.26147 27.2117C6.26318 27.073 6.26478 26.9433 6.26603 26.8233C6.26881 26.5571 6.26936 26.3586 6.268 26.2139C6.26656 26.0605 6.26305 25.9936 6.26147 25.9758L6.25409 25.893C6.25136 25.8624 6.25 25.8316 6.25 25.8008V25.7177C6.25002 23.5509 6.50973 21.3613 7.45292 19.6225C7.95168 18.7031 8.66769 17.8623 9.66144 17.266ZM23.364 28.6846C23.364 28.2827 23.3605 27.9108 23.3566 27.5691V25.8022C23.3581 25.7727 23.3597 25.7447 23.3616 25.7182C23.3632 25.6937 23.364 25.6691 23.3639 25.6446C23.3633 25.476 23.3608 25.3123 23.3566 25.1531V22.5016H21.2692V25.1471L21.2691 25.163V25.7795L21.2692 25.7954V27.5489L21.2691 27.5649V31.3628C21.2641 31.404 21.2616 31.4461 21.2616 31.4887V40.8364C21.2616 41.2815 20.9107 41.648 20.4652 41.6683C20.0197 41.6886 19.637 41.3556 19.5964 40.9123L18.7241 31.3938C18.6749 30.8575 18.2243 30.4471 17.6847 30.4471H15.6271C15.0875 30.4471 14.6369 30.8575 14.5877 31.3938L13.7155 40.9123C13.6749 41.3556 13.2921 41.6886 12.8466 41.6683C12.401 41.648 12.0503 41.2815 12.0503 40.8364V31.4887C12.0503 31.4457 12.0477 31.4033 12.0426 31.3616V22.5016H9.95522V28.9724C9.83789 29.2908 9.53025 29.5174 9.17172 29.5174C8.71092 29.5174 8.33736 29.1445 8.33736 28.6846C8.33736 28.1538 8.34344 27.6614 8.34868 27.2374C8.35038 27.0994 8.35201 26.9672 8.35329 26.845C8.3587 26.3263 8.35741 25.9797 8.34065 25.7914L8.33327 25.7086C8.33329 23.646 8.5967 21.8898 9.28853 20.6145C9.6423 19.9623 10.1173 19.4233 10.7369 19.0515C11.3571 18.6795 12.0732 18.5042 12.8631 18.5042H20.507C21.2968 18.5042 22.013 18.6795 22.6332 19.0515C23.2528 19.4233 23.7278 19.9623 24.0816 20.6145C24.7733 21.8898 25.0327 23.6551 25.0327 25.7177V25.7547L25.0295 25.7914C25.0127 25.9797 25.0114 26.3263 25.0168 26.845C25.018 26.9674 25.0197 27.0989 25.0214 27.2372L25.0215 27.2398C25.0267 27.6633 25.0327 28.1548 25.0327 28.6846C25.0327 29.1445 24.6592 29.5174 24.1983 29.5174C23.7376 29.5174 23.364 29.1445 23.364 28.6846ZM37.7505 8.8228C38.1453 9.24509 38.698 9.48486 39.2767 9.48486H41.6623V15.9203C41.3253 15.7829 40.9412 15.6877 40.5135 15.6732C39.8008 15.649 39.0485 15.8517 38.2801 16.3269C37.2516 16.9629 36.2888 17.1398 35.1848 17.1645C34.6816 17.1756 34.1669 17.1552 33.5903 17.1324L33.3128 17.1215V9.48486H35.6983C36.2771 9.48486 36.8298 9.24509 37.2246 8.8228L37.4875 8.5415L37.7505 8.8228ZM33.3128 19.2064L33.5053 19.214C34.0741 19.2367 34.6585 19.26 35.2314 19.2473C36.5735 19.2173 37.9367 18.99 39.3794 18.0979C39.8466 17.809 40.1968 17.747 40.4426 17.7553C40.6944 17.7638 40.921 17.8495 41.1288 17.9833C41.3414 18.1203 41.5162 18.2971 41.6413 18.4491L41.6623 18.4751V20.1504H33.3128V19.2064Z" fill="#00989D"/>
</svg>
