<svg width="50" height="50" viewBox="0 0 50 50" fill="none" xmlns="http://www.w3.org/2000/svg">
<path fill-rule="evenodd" clip-rule="evenodd" d="M20.8333 4.16663C21.4086 4.16663 21.875 4.633 21.875 5.20829V13.899C21.875 15.2804 21.3262 16.6052 20.3495 17.5819L19.8247 18.1068C18.8942 19.0373 18.8942 20.546 19.8247 21.4764C20.5499 22.2016 21.6577 22.3814 22.5751 21.9228L22.8276 21.7965C24.1951 21.1128 25.8049 21.1128 27.1724 21.7965L27.4249 21.9228C28.3423 22.3814 29.4501 22.2016 30.1753 21.4764C31.1058 20.546 31.1058 19.0373 30.1753 18.1068L29.6505 17.5819C28.6737 16.6052 28.125 15.2804 28.125 13.899V5.20829C28.125 4.633 28.5914 4.16663 29.1667 4.16663C29.742 4.16663 30.2083 4.633 30.2083 5.20829V6.98282C38.0298 9.23978 43.75 16.4518 43.75 25C43.75 33.5481 38.0298 40.7602 30.2083 43.0171V44.7916C30.2083 45.3669 29.742 45.8333 29.1667 45.8333C28.5914 45.8333 28.125 45.3669 28.125 44.7916V36.1009C28.125 34.7195 28.6737 33.3947 29.6505 32.418L30.1753 31.8931C31.1058 30.9627 31.1058 29.4539 30.1753 28.5235C29.4501 27.7983 28.3423 27.6185 27.4249 28.0771L27.1724 28.2034C25.8049 28.8871 24.1951 28.8871 22.8276 28.2034L22.5751 28.0771C21.6577 27.6185 20.5499 27.7983 19.8247 28.5235C18.8942 29.4539 18.8942 30.9627 19.8247 31.8931L20.3495 32.418C21.3262 33.3947 21.875 34.7195 21.875 36.1009V44.7916C21.875 45.3669 21.4086 45.8333 20.8333 45.8333C20.258 45.8333 19.7917 45.3669 19.7917 44.7916V43.0171C11.9702 40.7602 6.25 33.5481 6.25 25C6.25 16.4518 11.9702 9.23978 19.7917 6.98282V5.20829C19.7917 4.633 20.258 4.16663 20.8333 4.16663ZM19.7917 9.16326C13.1376 11.3504 8.33333 17.6141 8.33333 25C8.33333 32.3859 13.1376 38.6496 19.7917 40.8367V36.1009C19.7917 35.272 19.4624 34.4771 18.8764 33.8911L18.3515 33.3663C16.6074 31.6221 16.6074 28.7944 18.3515 27.0503C19.7108 25.691 21.7874 25.354 23.5068 26.2137L23.7593 26.34C24.5403 26.7305 25.4597 26.7305 26.2407 26.34L26.4932 26.2137C28.2126 25.354 30.2892 25.691 31.6485 27.0503C33.3926 28.7944 33.3926 31.6221 31.6485 33.3663L31.1236 33.8911C30.5376 34.4771 30.2083 35.272 30.2083 36.1009V40.8367C36.8624 38.6496 41.6667 32.3859 41.6667 25C41.6667 17.6141 36.8624 11.3504 30.2083 9.16326V13.899C30.2083 14.7279 30.5376 15.5228 31.1236 16.1088L31.6485 16.6336C33.3926 18.3778 33.3926 21.2055 31.6485 22.9496C30.2892 24.3089 28.2126 24.6459 26.4932 23.7862L26.2407 23.66C25.4597 23.2694 24.5403 23.2694 23.7593 23.66L23.5068 23.7862C21.7874 24.6459 19.7108 24.3089 18.3515 22.9496C16.6074 21.2055 16.6074 18.3778 18.3515 16.6336L18.8764 16.1088C19.4624 15.5228 19.7917 14.7279 19.7917 13.899V9.16326Z" fill="#00979D"/>
</svg>
