<svg width="56" height="56" viewBox="0 0 56 56" fill="none" xmlns="http://www.w3.org/2000/svg">
<path fill-rule="evenodd" clip-rule="evenodd" d="M14.6393 35.879C1.9644 30.533 6.9666 12.4884 15.7652 9.507C19.4152 8.2702 23.4428 12.3734 23.417 14.921C23.4058 16.0226 22.8374 17.0966 22.2452 18.2157C21.4677 19.6848 20.6492 21.2314 20.9967 23.0196C21.6091 26.1697 22.295 31.4848 20.5277 34.0078C18.7604 36.5309 16.9831 36.8676 14.6393 35.879ZM15.5461 33.7291C16.4592 34.1142 16.9078 34.0889 17.1539 34.0181C17.4064 33.9453 17.8995 33.6929 18.6166 32.6692C19.0514 32.0483 19.3475 30.7382 19.3214 28.7799C19.297 26.9411 19.0006 24.9788 18.7063 23.4648C18.2345 21.0378 19.2035 19.0103 19.8948 17.673C20.0138 17.4426 20.1226 17.2373 20.2227 17.0481C20.4535 16.612 20.6392 16.2613 20.8032 15.8853C21.0218 15.3842 21.0818 15.0873 21.0838 14.8975C21.0844 14.8369 21.0434 14.5283 20.7409 14.0204C20.4567 13.5434 20.0253 13.0354 19.4955 12.6037C18.3717 11.688 17.2843 11.4559 16.5141 11.7169C13.2357 12.8278 10.1537 17.1055 9.46114 22.1252C8.7967 26.9411 10.4424 31.5765 15.5461 33.7291Z" fill="#FF5E00"/>
<path fill-rule="evenodd" clip-rule="evenodd" d="M40.0719 9.507C48.8705 12.4884 53.8727 30.533 41.1978 35.879C38.854 36.8676 37.0767 36.5309 35.3094 34.0078C33.5421 31.4848 34.228 26.1697 34.8403 23.0196C35.1878 21.2314 34.3694 19.6848 33.5918 18.2157C32.9996 17.0966 32.4312 16.0226 32.4202 14.921C32.3944 12.3734 36.4219 8.2702 40.0719 9.507ZM38.6832 34.0181C38.9293 34.0889 39.3779 34.1142 40.291 33.7291C45.3947 31.5765 47.0404 26.9411 46.3759 22.1252C45.6834 17.1055 42.6014 12.8278 39.3231 11.7169C38.5527 11.4559 37.4653 11.688 36.3416 12.6037C35.8118 13.0354 35.3803 13.5434 35.0963 14.0204C34.7937 14.5283 34.7527 14.8369 34.7534 14.8975C34.7552 15.0873 34.8153 15.3842 35.034 15.8853C35.198 16.2613 35.3836 16.612 35.6144 17.0481C35.7146 17.2373 35.8232 17.4426 35.9423 17.673C36.6336 19.0103 37.6025 21.0378 37.1308 23.4648C36.8365 24.9788 36.5401 26.9411 36.5156 28.7799C36.4896 30.7382 36.7857 32.0483 37.2205 32.6692C37.9377 33.6929 38.4307 33.9453 38.6832 34.0181Z" fill="#FF5E00"/>
<path d="M33.3878 26.5766C33.4678 27.7405 33.4692 27.7403 33.4692 27.7403L33.4706 27.7402L33.4732 27.7401L33.4777 27.7398L33.4841 27.7392L33.4875 27.7388C33.4875 27.7388 33.4756 27.7402 33.4589 27.7429C33.4255 27.7483 33.3668 27.7595 33.2916 27.7808C33.1387 27.8241 32.9371 27.9036 32.7397 28.0441C32.4017 28.2848 31.9047 28.8194 31.9047 30.1683V47.0454C31.9047 47.0454 31.9047 47.0456 30.738 47.0456C29.5714 47.0456 29.5714 47.0449 29.5714 47.0449V30.1683C29.5714 28.1076 30.3992 26.8463 31.3861 26.1435C31.8512 25.8124 32.312 25.6331 32.6558 25.5358C32.8292 25.4867 32.9776 25.4571 33.0889 25.4391C33.1446 25.4301 33.1918 25.424 33.2285 25.42C33.247 25.4179 33.2629 25.4163 33.2761 25.4152L33.294 25.4137L33.3014 25.4131L33.3047 25.4128L33.3062 25.4127C33.3062 25.4127 33.3077 25.4126 33.3878 26.5766Z" fill="#FF5E00"/>
<path d="M22.4493 26.5766C22.3693 27.7405 22.3678 27.7403 22.3678 27.7403L22.3665 27.7402L22.3638 27.7401L22.3594 27.7398L22.3529 27.7392L22.3492 27.7388C22.3492 27.7388 22.3615 27.7402 22.3781 27.7429C22.4117 27.7483 22.4703 27.7595 22.5454 27.7808C22.6983 27.8241 22.8999 27.9036 23.0974 28.0441C23.4354 28.2848 23.9324 28.8194 23.9324 30.1683V47.0454C23.9324 47.0454 23.9324 47.0456 25.0991 47.0456C26.2657 47.0456 26.2657 47.0449 26.2657 47.0449V30.1683C26.2657 28.1076 25.4378 26.8463 24.4509 26.1435C23.986 25.8124 23.5251 25.6331 23.1812 25.5358C23.0079 25.4867 22.8595 25.4571 22.7482 25.4391C22.6924 25.4301 22.6453 25.424 22.6085 25.42C22.59 25.4179 22.5742 25.4163 22.5609 25.4152L22.543 25.4137L22.5357 25.4131L22.5324 25.4128L22.5308 25.4127C22.5308 25.4127 22.5293 25.4126 22.4493 26.5766Z" fill="#FF5E00"/>
</svg>
