<svg width="50" height="50" viewBox="0 0 50 50" fill="none" xmlns="http://www.w3.org/2000/svg">
<path fill-rule="evenodd" clip-rule="evenodd" d="M18.75 31.9864C17.7897 32.3838 16.7033 32.668 15.3005 32.668C13.3881 32.668 12.756 34.1976 12.0843 35.8232C11.3226 37.6666 10.5099 39.6332 7.72199 39.6332C2.47534 39.6332 3.76993 23.4874 6.89495 17.2374C10.02 10.9874 14.2963 10.4666 23.0408 10.4666C28.3974 10.4666 29.7557 11.2832 30.8081 11.9161C31.4738 12.3164 32.0171 12.6431 33.3723 12.6431C34.7713 12.6431 36.7301 12.2252 38.6888 11.8073C41.627 11.1804 44.5651 10.5536 45.6144 11.3372C47.3632 12.6431 42.1167 22.2202 36.87 22.2202C34.1695 22.2202 32.5501 24.1561 30.9783 26.0351C29.4964 27.8067 28.057 29.5275 25.7937 29.5275C23.6145 29.5275 22.1989 30.2132 20.8333 30.9438V41.1957H18.75V31.9864ZM9.05511 37.0894C8.8259 37.3242 8.49638 37.5499 7.72199 37.5499H7.7196C7.66477 37.5499 7.62241 37.5499 7.51385 37.4429C7.35877 37.2902 7.12832 36.9549 6.90485 36.3205C6.45526 35.0443 6.22427 33.1122 6.25227 30.8043C6.30841 26.1763 7.38356 20.9185 8.75833 18.1691C10.1287 15.4282 11.6074 14.1678 13.5611 13.4702C15.7198 12.6995 18.6114 12.5499 23.0408 12.5499C23.3706 12.5499 23.6828 12.5531 23.9783 12.5592C23.0584 13.7353 22.5572 15.0275 22.2882 16.1479C22.0727 17.0462 22.0012 17.8518 21.9833 18.4342C21.9743 18.7263 21.9787 18.9651 21.9857 19.1349C21.9893 19.2198 21.9934 19.2876 21.997 19.3364L22 19.3771L22.0016 19.3953L22.0032 19.4136L22.0038 19.4199L22.0042 19.4234C22.0042 19.4234 22.0043 19.4244 23.0407 19.3207C24.0773 19.2171 24.0773 19.2178 24.0773 19.2178L24.0749 19.1866C24.0728 19.1579 24.0699 19.1113 24.0673 19.0487C24.0621 18.9234 24.0583 18.735 24.0656 18.4982C24.0803 18.0226 24.1391 17.3633 24.3141 16.6341C24.6295 15.3197 25.3057 13.835 26.7339 12.741C28.172 12.925 28.8275 13.2039 29.2173 13.4055C29.392 13.4958 29.5397 13.5846 29.7398 13.7047L29.7999 13.7408C30.0144 13.8695 30.3071 14.0439 30.6506 14.2C31.4128 14.546 32.2509 14.7264 33.3723 14.7264C34.4574 14.7264 35.7153 14.5292 36.9057 14.3018C37.6219 14.1649 38.4083 13.9973 39.1673 13.8355C39.6528 13.7321 40.1275 13.6309 40.5649 13.5419C41.7606 13.2983 42.7869 13.1207 43.5887 13.0694C43.6289 13.0668 43.6679 13.0646 43.7055 13.0627C43.4438 13.8851 42.9075 14.9786 42.1458 16.0925C41.3635 17.2364 40.416 18.2956 39.4311 19.0477C38.4275 19.8143 37.5536 20.1369 36.87 20.1369C33.1994 20.1369 31.0204 22.7395 29.578 24.4623L29.4416 24.6252C28.6666 25.5506 28.0786 26.2526 27.4441 26.7658C26.8496 27.2466 26.3503 27.4442 25.7937 27.4442C23.6698 27.4442 22.1054 27.9931 20.8333 28.603V24.0082C20.8333 23.5964 21.0364 23.2126 21.3891 22.9041C21.7613 22.5783 22.1773 22.4457 22.3958 22.4457V20.3624C21.5727 20.3624 20.6866 20.7505 20.0172 21.3362C19.3466 21.923 18.781 22.8085 18.7512 23.9163H13.445C10.9561 23.9163 7.96958 25.0117 10.9561 27.2016C13.1226 28.7901 16.8604 27.5259 18.75 26.7118V29.6903C17.6886 30.2277 16.7242 30.5847 15.3005 30.5847C13.5294 30.5847 12.292 31.4097 11.4685 32.5028C10.863 33.3067 10.4458 34.3249 10.1472 35.0538C10.1419 35.0669 10.1366 35.0799 10.1313 35.0927C10.0946 35.1822 10.0598 35.2671 10.0266 35.3463C9.65776 36.2277 9.38415 36.7524 9.05511 37.0894Z" fill="#00989D"/>
</svg>
