<svg width="50" height="50" viewBox="0 0 50 50" fill="none" xmlns="http://www.w3.org/2000/svg">
<path d="M33.8542 28.125C34.7171 28.125 35.4167 27.4254 35.4167 26.5625C35.4167 25.6996 34.7171 25 33.8542 25C32.9912 25 32.2917 25.6996 32.2917 26.5625C32.2917 27.4254 32.9912 28.125 33.8542 28.125Z" fill="#00979D"/>
<path d="M23.7916 12.7193C25.107 12.3302 26.601 12.4116 27.9366 13.3572L22.3548 13.3568C22.8038 13.0877 23.2869 12.8687 23.7916 12.7193Z" fill="#00979D"/>
<path fill-rule="evenodd" clip-rule="evenodd" d="M22.3548 13.3568L27.9366 13.3572C29.3197 14.3312 30.1469 15.957 30.2042 17.6348C30.2954 20.2572 28.892 22.4788 27.2403 24.2845C25.9605 25.6837 24.414 26.9529 23.0942 28.0362C22.716 28.3465 22.3561 28.6419 22.0268 28.9204L21.3488 29.4938L20.6752 28.915C20.3123 28.6031 19.9106 28.2708 19.4867 27.9201C18.2021 26.8574 16.7129 25.6255 15.478 24.2803C13.8255 22.4801 12.4184 20.2667 12.5036 17.6366L12.5038 17.6348C12.561 15.9567 13.3884 14.3304 14.7721 13.3566L17.5614 13.3568L20.3506 13.3569C20.7086 13.5708 21.0451 13.8168 21.3536 14.0851C21.6616 13.8171 21.9975 13.5709 22.3548 13.3568ZM22.1568 16.2343C22.7305 15.5403 23.5416 14.9658 24.3827 14.717C25.1988 14.4755 26.0078 14.5439 26.7335 15.058L26.7364 15.06C27.5545 15.6357 28.0856 16.6402 28.122 17.7058C28.1851 19.5113 27.2243 21.2153 25.703 22.8784C24.5345 24.1559 23.1508 25.2923 21.8479 26.3625C21.6833 26.4976 21.5201 26.6318 21.3586 26.7649C21.1491 26.59 20.9364 26.414 20.7219 26.2365C19.4629 25.1946 18.1419 24.1014 17.0128 22.8715C15.4916 21.2143 14.5274 19.5182 14.5858 17.7049C14.6225 16.6397 15.1536 15.6355 15.9716 15.06C16.698 14.5481 17.5092 14.4794 18.326 14.7203C19.1674 14.9684 19.978 15.541 20.5511 16.2343L21.354 17.2054L22.1568 16.2343Z" fill="#00979D"/>
<path d="M20.3506 13.3569L17.5614 13.3568L14.7721 13.3566C16.1071 12.4163 17.6005 12.3343 18.9154 12.7221C19.4193 12.8706 19.9021 13.0888 20.3506 13.3569Z" fill="#00979D"/>
<path fill-rule="evenodd" clip-rule="evenodd" d="M43.7176 30.8084C44.0743 28.8561 41.3694 26.4227 41.3694 26.4227C40.4544 24.5265 40.4781 22.923 40.505 21.1026C40.5126 20.5872 40.5205 20.0539 40.5074 19.4921C40.4465 17.0464 39.6467 14.6691 38.2037 12.6447C36.6235 10.7176 34.5514 9.20772 32.1845 8.25896C29.1812 6.9321 25.9095 6.24644 22.5984 6.25001C18.2625 6.25001 14.1043 7.88961 11.0383 10.8081C7.97242 13.7266 6.25 17.6849 6.25 21.8122C6.25 26.778 9.18147 30.6089 12.9861 33.4525V40.1694C14.0657 42.3655 18.1383 43.923 20.5177 43.7346C24.0737 43.7346 25.5689 42.3333 26.1427 41.503C26.3843 41.1534 26.4626 40.9051 26.4626 40.9051V39.4227C26.4626 39.4227 27.2956 39.6959 28.5459 39.9427C32.3057 40.6846 39.8385 41.1868 39.8385 33.2984C39.8385 33.2984 43.3609 32.7608 43.7176 30.8084ZM39.493 27.3281L39.6712 27.6974L39.9723 27.9682L39.9736 27.9695L39.9747 27.9704L39.976 27.9716L39.9827 27.9778C39.9943 27.9885 40.0144 28.0074 40.042 28.0339C40.0972 28.087 40.1809 28.1693 40.2827 28.2754C40.4895 28.4909 40.7545 28.788 41.0034 29.1239C41.2583 29.4679 41.4555 29.7982 41.57 30.081C41.6312 30.2325 41.6535 30.3321 41.6618 30.3876C41.6483 30.4011 41.6306 30.4176 41.6078 30.4372C41.4578 30.5653 41.2047 30.7146 40.8555 30.8573C40.5196 30.9948 40.1754 31.0938 39.9065 31.1585C39.7751 31.1902 39.669 31.212 39.6001 31.2251C39.5658 31.2317 39.5412 31.2359 39.528 31.2382L39.5169 31.2401L37.7552 31.509V33.2984C37.7552 35.4479 37.0951 36.5105 36.3985 37.1031C35.6236 37.7624 34.4623 38.1295 33.0156 38.2234C31.5916 38.3159 30.1147 38.1283 28.9553 37.9C28.3845 37.7875 27.9105 37.6692 27.5839 37.5803C27.4209 37.536 27.2957 37.4994 27.2148 37.4749C27.1743 37.4627 27.1449 37.4535 27.1275 37.4481L27.1119 37.4431L27.1104 37.4427L27.1087 37.4422L24.3793 36.5469V40.3863C24.3086 40.4775 24.2047 40.5924 24.0567 40.715C23.6271 41.0705 22.6305 41.6513 20.5177 41.6513H20.4353L20.3532 41.6577C19.6093 41.7167 18.3489 41.489 17.1058 40.9403C16.0922 40.4928 15.4177 39.9782 15.0695 39.5651V32.4086L14.2334 31.7838C10.6993 29.1424 8.33333 25.8567 8.33333 21.8122C8.33333 18.2715 9.81 14.8536 12.4748 12.3171C15.143 9.77715 18.7828 8.33335 22.5984 8.33335H22.6006C25.6235 8.33009 28.6075 8.95623 31.3426 10.1646L31.3757 10.1792L31.4094 10.1927C33.4356 11.005 35.2009 12.2877 36.5477 13.911C37.7275 15.5896 38.3746 17.5428 38.4247 19.5425C38.4343 19.9572 38.4261 20.3943 38.4177 20.8515C38.3828 22.7275 38.3418 24.9421 39.493 27.3281Z" fill="#00979D"/>
</svg>
