<svg width="50" height="50" viewBox="0 0 50 50" fill="none" xmlns="http://www.w3.org/2000/svg">
<path fill-rule="evenodd" clip-rule="evenodd" d="M26.5106 8.46165C26.7469 8.98619 26.5132 9.60295 25.9886 9.83922C24.1806 10.6536 22.9237 12.4672 22.9167 14.5731L22.9168 14.5909L22.9167 14.6088C22.9263 17.4771 25.2545 19.7993 28.125 19.7993C30.8116 19.7993 33.0242 17.7644 33.3035 15.1525C33.3647 14.5805 33.878 14.1664 34.45 14.2275C35.0221 14.2888 35.4362 14.8021 35.375 15.3741C35.2102 16.9152 34.5657 18.3125 33.5937 19.414C35.1575 19.7655 36.5314 20.6193 37.5354 21.7952C37.9091 22.2327 37.8573 22.8902 37.4198 23.2638C36.9823 23.6373 36.3248 23.5856 35.9511 23.1481C34.9943 22.0275 33.5746 21.3199 31.9885 21.3199C29.1121 21.3199 26.7802 23.6517 26.7802 26.5283C26.7802 27.3922 26.9898 28.2053 27.361 28.9213C28.1714 28.8136 29.0184 29.103 29.5935 29.7671C29.858 30.0725 30.0969 30.3846 30.3132 30.7007C30.6658 31.2156 30.8004 31.8143 30.7382 32.3888C31.2123 32.6833 31.5918 33.1369 31.7873 33.7067C32.0202 34.3857 32.196 35.0424 32.3426 35.6155C32.4565 36.0605 32.4435 36.5078 32.3272 36.9193C32.5998 37.159 32.8248 37.4618 32.9772 37.8183C33.083 38.0659 33.156 38.1537 33.1748 38.1733C33.2452 38.2234 33.3123 38.2764 33.3759 38.3322C33.5706 38.2559 33.7779 38.2028 33.995 38.1767C34.181 38.1544 34.3971 38.1183 34.6468 38.0639C35.5132 37.8754 36.3725 38.1584 36.9571 38.7411C37.404 38.4721 37.732 38.0723 37.8953 37.5787C38.1026 36.9522 38.0845 36.0465 37.4868 34.8873C37.2231 34.376 37.424 33.7478 37.9352 33.4841C38.4466 33.2205 39.0748 33.4212 39.3384 33.9325C39.7628 34.7555 40.006 35.5631 40.0769 36.33C40.7116 35.5761 41.3816 34.5569 41.9292 33.2134C42.1462 32.6806 42.7542 32.4247 43.2869 32.6418C43.8197 32.859 44.0755 33.4669 43.8584 33.9996C43.2065 35.5992 42.3969 36.822 41.6165 37.7359C42.124 37.7961 42.6575 37.9212 43.2352 38.1216C43.7787 38.3103 44.0665 38.9037 43.8779 39.4472C43.6893 39.9908 43.0958 40.2785 42.5523 40.0898C41.5166 39.7305 40.7795 39.7165 40.0619 39.8652C39.3933 40.0037 38.7357 40.2786 37.818 40.6623L37.6867 40.7172C37.602 41.7934 36.8248 42.7328 35.7156 42.9742C35.3313 43.0579 34.9575 43.1225 34.5938 43.1662C33.8556 43.2548 33.1546 43.0141 32.637 42.5598C31.8765 42.8578 30.9858 42.7795 30.2687 42.2731C29.2753 41.5714 28.711 40.6233 28.3563 39.7934C28.1213 39.2436 28.0976 38.6573 28.2482 38.1244C27.8815 37.8023 27.6043 37.37 27.4741 36.8607C27.3359 36.3207 27.1998 35.821 27.034 35.3374C26.9104 34.9772 26.8735 34.6085 26.9119 34.2537C26.6253 34.0756 26.3699 33.8364 26.1669 33.5398C26.0531 33.3738 25.9297 33.2128 25.7947 33.0568C25.0729 32.2233 24.9966 31.0503 25.522 30.1476C24.5815 29.225 23.2946 28.6579 21.875 28.6579C20.2088 28.6579 18.7253 29.4403 17.772 30.6578C17.701 30.7607 17.6276 30.8618 17.5516 30.9609C16.9928 31.7909 16.6667 32.7905 16.6667 33.8662C16.6667 34.859 16.9434 35.784 17.4235 36.5718C17.7229 37.0631 17.5673 37.704 17.076 38.0034C16.5848 38.3028 15.9438 38.1471 15.6445 37.6559C14.971 36.5508 14.5833 35.2521 14.5833 33.8662C14.5833 33.6562 14.5922 33.4483 14.6096 33.2428C13.7346 33.6143 12.7721 33.8199 11.7616 33.8199C11.2557 33.8199 10.7609 33.7683 10.2825 33.6696C9.71905 33.5535 9.35647 33.0024 9.47264 32.439C9.58881 31.8756 10.1397 31.5131 10.7032 31.6292C11.0441 31.6994 11.3979 31.7366 11.7616 31.7366C13.4277 31.7366 14.9111 30.9542 15.8646 29.7367C15.9354 29.6337 16.009 29.5325 16.085 29.4334C16.6437 28.6035 16.9699 27.604 16.9699 26.5283C16.9699 23.6517 14.638 21.3199 11.7616 21.3199C10.2322 21.3199 8.85794 21.9778 7.90365 23.0291C7.517 23.455 6.85823 23.4869 6.43224 23.1003C6.00626 22.7136 5.97437 22.0548 6.36103 21.6289C7.35038 20.5389 8.66732 19.7487 10.1564 19.414C9.214 18.3461 8.57945 16.9999 8.39142 15.5144C8.31918 14.9437 8.72331 14.4224 9.29405 14.3502C9.86479 14.278 10.386 14.682 10.4582 15.2529C10.7827 17.8163 12.9731 19.7992 15.6251 19.7992C18.4955 19.7992 20.8236 17.4771 20.8333 14.609V14.591V14.5729C20.8263 12.5017 19.6104 10.7132 17.8497 9.87997C17.3297 9.63389 17.1076 9.01285 17.3537 8.49284C17.5998 7.97284 18.2208 7.75078 18.7408 7.99686C20.0435 8.6133 21.135 9.60512 21.875 10.8332C22.6383 9.56647 23.7757 8.5511 25.133 7.93969C25.6576 7.70342 26.2744 7.93712 26.5106 8.46165ZM19.0269 27.1517C19.9019 26.7802 20.8645 26.5745 21.875 26.5745C22.8856 26.5745 23.8483 26.7804 24.7232 27.152C24.7057 26.9463 24.6969 26.7383 24.6969 26.5283C24.6969 24.6791 25.3852 22.9907 26.5196 21.7054C24.5522 21.2633 22.8856 20.0261 21.875 18.3489C20.8644 20.0261 19.1978 21.2633 17.2304 21.7053C18.3648 22.9907 19.0532 24.6791 19.0532 26.5283C19.0532 26.7383 19.0443 26.9462 19.0269 27.1517ZM21.875 22.9287C21.5878 22.9287 21.3549 23.1615 21.3549 23.4488C21.3549 23.736 21.5878 23.9689 21.875 23.9689C22.1623 23.9689 22.3951 23.736 22.3951 23.4488C22.3951 23.1615 22.1623 22.9287 21.875 22.9287ZM19.2716 23.4488C19.2716 22.011 20.4372 20.8454 21.875 20.8454C23.3128 20.8454 24.4784 22.011 24.4784 23.4488C24.4784 24.8866 23.3128 26.0522 21.875 26.0522C20.4372 26.0522 19.2716 24.8866 19.2716 23.4488ZM29.0786 34.2495L29.2033 34.0967L29.4018 34.0924C29.5846 34.0886 29.7551 34.2032 29.8167 34.3828C30.0219 34.9808 30.1812 35.5725 30.3243 36.1317C30.3655 36.293 30.3101 36.458 30.1894 36.5631L30.0421 36.6911L29.8484 36.6636C29.6794 36.6395 29.5364 36.5164 29.4924 36.3444C29.3508 35.7909 29.1982 35.2261 29.0045 34.6614C28.9549 34.5168 28.9859 34.3632 29.0786 34.2495ZM30.7259 38.3804L30.533 38.3529L30.3848 38.4815C30.247 38.6012 30.1974 38.8001 30.272 38.9745C30.5423 39.607 30.9076 40.1737 31.4707 40.5715C31.6602 40.7053 31.9211 40.664 32.06 40.4809L32.1941 40.304L32.128 40.0921C32.1009 40.0051 32.0472 39.9274 31.9661 39.8701C31.5805 39.5978 31.2972 39.1885 31.0616 38.637C31.0008 38.495 30.8727 38.4013 30.7259 38.3804ZM33.9523 40.412L33.8186 40.5883L33.8847 40.8007C33.9449 40.994 34.1378 41.1227 34.3455 41.0978C34.6356 41.063 34.9441 41.01 35.2725 40.9386C35.5042 40.8882 35.6511 40.6594 35.6007 40.4278C35.5502 40.1961 35.3216 40.0492 35.0899 40.0996C34.7844 40.1661 34.5029 40.2141 34.2432 40.2453C34.1228 40.2597 34.0214 40.3212 33.9523 40.412ZM28.2502 32.5496L28.4473 32.5456L28.5731 32.3917C28.6911 32.2473 28.7036 32.0374 28.5943 31.8777C28.4205 31.6239 28.2295 31.3744 28.0186 31.131C27.8634 30.9517 27.5923 30.9322 27.4131 31.0874C27.2339 31.2427 27.2144 31.5138 27.3696 31.6931C27.5582 31.911 27.7296 32.1346 27.8858 32.3628C27.9702 32.486 28.1071 32.5525 28.2502 32.5496ZM33.1789 38.1772C33.1789 38.1771 33.1784 38.1765 33.176 38.1745C33.1773 38.1759 33.1782 38.1767 33.1789 38.1772Z" fill="#00979D"/>
</svg>
