<svg width="56" height="56" viewBox="0 0 56 56" fill="none" xmlns="http://www.w3.org/2000/svg">
<path fill-rule="evenodd" clip-rule="evenodd" d="M19.8333 5.83329C19.8333 5.18897 20.3557 4.66663 21 4.66663H35C35.6444 4.66663 36.1667 5.18897 36.1667 5.83329V10.5C36.1667 11.1443 35.6444 11.6666 35 11.6666H32.6667V16.3333C37.177 16.3333 40.8333 19.9896 40.8333 24.5V47.8333C40.8333 49.7663 39.2664 51.3333 37.3333 51.3333H18.6667C16.7336 51.3333 15.1667 49.7663 15.1667 47.8333V24.5C15.1667 19.9896 18.823 16.3333 23.3333 16.3333V11.6666H21C20.3557 11.6666 19.8333 11.1443 19.8333 10.5V5.83329ZM25.6667 11.6666H30.3333V17.5C30.3333 18.1443 30.8557 18.6666 31.5 18.6666H32.6667C35.4888 18.6666 37.8428 20.6707 38.3833 23.3333H17.6167C18.1572 20.6707 20.5112 18.6666 23.3333 18.6666H24.5C25.1444 18.6666 25.6667 18.1443 25.6667 17.5V11.6666ZM17.5 25.6666V47.8333C17.5 48.4776 18.0223 49 18.6667 49H37.3333C37.9777 49 38.5 48.4776 38.5 47.8333V25.6666H17.5ZM22.1667 6.99996V9.33329H33.8333V6.99996H22.1667ZM23.8751 34.8008L26.3501 37.2758L23.8756 39.7503L23.0503 38.925L21.4004 40.5749L22.2257 41.4002L23.8753 43.0505L24.7003 43.8747L26.3502 42.2248L25.5256 41.4002L28 38.9257L30.4749 41.4005L29.6499 42.2256L31.2998 43.8755L34.5996 40.5756L32.9497 38.9257L32.1249 39.7506L29.6499 37.2758L32.1253 34.8003L32.9498 35.6248L34.5997 33.9749L31.2999 30.6751L29.65 32.325L30.4754 33.1504L28 35.6259L25.525 33.1508L26.3501 32.3258L24.7002 30.6758L23.8751 31.5009L22.2252 33.1508L21.4003 33.9757L23.0503 35.6256L23.8751 34.8008Z" fill="#FF5E00"/>
</svg>
