<svg width="58" height="58" viewBox="0 0 58 58" fill="none" xmlns="http://www.w3.org/2000/svg">
<g clip-path="url(#clip0_190_2236)">
<rect width="58" height="58" rx="15" fill="#00989D"/>
<path d="M57.9938 4.081V53.9252C57.9938 55.8131 56.7103 57.3956 54.972 57.8629C54.6355 57.9502 54.2866 58 53.919 58H4.07476C3.1838 58 2.36137 57.7134 1.6947 57.2274C0.666667 56.4922 0 55.2835 0 53.9252V4.081C0 1.82555 1.82554 0 4.07476 0H53.919C56.1682 0 57.9938 1.82555 57.9938 4.081Z" fill="#DFDFD2"/>
<path d="M54.972 57.8629C54.6355 57.9501 54.2866 58 53.919 58H4.20561C5.57009 47.8878 9.15264 39.7944 11.433 36.4735C12.8972 34.3551 16.2368 31.9377 18.6667 31.5452C24.3302 30.6293 30.3987 30.1807 35.5576 30.7414C40.486 31.2835 44.7726 34.3551 46.9096 38.8287C49.6199 44.5109 53.6199 53.2149 54.972 57.8629Z" fill="#FF5E00"/>
<path d="M18.9707 16.9427C18.9707 16.9427 19.2162 21.3688 21.2087 21.5726C23.2012 21.7757 26.1327 19.2579 26.1327 19.2579L24.7589 14.276L18.9707 16.9427Z" fill="black"/>
<path d="M34.1788 15.6835C34.1788 15.6835 40.6822 13.5944 41.6523 10.8336C42.6224 8.07288 30.3333 12.2511 30.3333 12.2511L34.1788 15.6835Z" fill="#00989D"/>
<path d="M24.7595 25.162L25.2635 32.1987C25.2635 32.1987 26.5333 34.1838 30.5981 34.4779C33.6262 34.6966 34.6829 34.0031 34.6829 34.0031L34.2299 30.4903L33.7832 27.0648L26.4343 25.5165L24.7595 25.162Z" fill="#D9D6EC"/>
<path d="M26.4349 25.5165C26.4542 25.7059 26.5283 25.9289 26.6424 26.1844C28.2268 29.6386 32.481 30.3489 34.2299 30.4897L33.7832 27.0641L26.4349 25.5165Z" fill="black"/>
<path d="M35.1913 11.225C35.1913 11.225 38.9128 19.8979 37.519 24.7477C36.1252 29.5976 31.704 28.8032 29.0617 27.8468C26.4193 26.8898 25.2006 25.2574 25.2006 25.2574C25.2006 25.2574 22.7209 26.0798 21.0816 23.7683C19.4424 21.4568 20.4785 18.8213 21.8953 18.2256C23.3121 17.6294 24.985 18.6605 24.985 18.6605L23.6847 16.1384C23.6847 16.1384 29.309 3.40256 35.1913 11.225Z" fill="#D9D6EC"/>
<path d="M24.7589 22.4461C24.6966 22.4461 24.6343 22.4274 24.5794 22.3894L21.4311 20.1676C21.2903 20.0685 21.2567 19.8741 21.3558 19.7333C21.4554 19.5925 21.6492 19.5589 21.79 19.6579L24.9383 21.8797C25.0791 21.9788 25.1128 22.1732 25.0137 22.314C24.9533 22.4 24.8567 22.4461 24.7589 22.4461Z" fill="black"/>
<path d="M21.9078 22.4324C21.7701 22.4324 21.6442 22.3408 21.6075 22.2012C21.5632 22.0349 21.6617 21.8642 21.828 21.8199L23.8835 21.2716C24.0492 21.228 24.2199 21.3252 24.2648 21.4922C24.309 21.6586 24.2106 21.8293 24.0442 21.8735L21.9888 22.4218C21.9614 22.4293 21.9346 22.4324 21.9078 22.4324Z" fill="black"/>
<path d="M29.4056 15.3931C29.3402 15.3931 29.2741 15.3726 29.2181 15.3296C29.081 15.2255 29.0536 15.0305 29.1576 14.8934C29.5346 14.395 29.9801 14.1096 30.4804 14.0454C31.2305 13.952 31.8093 14.3981 31.8336 14.4174C31.9688 14.524 31.9925 14.7196 31.886 14.8548C31.7801 14.9894 31.5857 15.0143 31.4498 14.9078C31.4461 14.9046 31.0386 14.5969 30.5539 14.6641C30.228 14.7078 29.9246 14.9115 29.6536 15.2698C29.5931 15.3508 29.4997 15.3931 29.4056 15.3931Z" fill="black"/>
<path d="M36.1371 14.7744C36.0685 14.7744 35.9987 14.7514 35.9408 14.7046C35.595 14.4249 35.3981 14.4068 35.3065 14.4205C35.21 14.4361 35.1651 14.5021 35.1601 14.5102C35.0691 14.6517 34.8797 14.7003 34.7358 14.6143C34.5913 14.5283 34.5383 14.3489 34.6187 14.2018C34.6361 14.1694 34.8025 13.8841 35.1782 13.8105C35.524 13.7426 35.914 13.8803 36.3333 14.2205C36.4667 14.3289 36.4878 14.5252 36.3788 14.6585C36.3178 14.7352 36.2274 14.7744 36.1371 14.7744Z" fill="black"/>
<path d="M34.9196 21.9714C34.8928 21.9714 34.8654 21.9683 34.8386 21.9608C34.6723 21.9159 34.5738 21.7452 34.6187 21.5789C35.0486 19.9795 33.5146 17.8306 33.4984 17.8094C33.3975 17.6698 33.4293 17.4754 33.5682 17.3745C33.7072 17.2729 33.9022 17.3047 34.0031 17.4437C34.0735 17.5415 35.7271 19.853 35.2205 21.7402C35.1825 21.8798 35.0573 21.9714 34.9196 21.9714Z" fill="black"/>
<path d="M36.1358 18.1015C36 18.1015 35.8754 18.0118 35.8368 17.8747L35.3875 16.2866C35.3408 16.1208 35.4368 15.9483 35.6025 15.9022C35.7682 15.8542 35.9408 15.9514 35.9869 16.1171L36.4361 17.7053C36.4829 17.871 36.3869 18.043 36.2212 18.0897C36.1925 18.0978 36.1639 18.1015 36.1358 18.1015Z" fill="black"/>
<path d="M31.0411 18.2418C30.9053 18.2418 30.7801 18.1521 30.742 18.015L30.2935 16.4263C30.2467 16.2605 30.3427 16.0886 30.5084 16.0418C30.6729 15.9932 30.8461 16.0904 30.8928 16.2568L31.3414 17.8456C31.3882 18.0113 31.2922 18.1833 31.1265 18.23C31.0978 18.2381 31.0692 18.2418 31.0411 18.2418Z" fill="black"/>
<path d="M35.6872 12.4841C35.6872 12.4841 35.1732 11.7913 33.4411 11.7944C31.709 11.7981 30.7084 13.0268 30.7084 13.0268C30.7084 13.0268 30.5632 16.167 28.2218 17.7371C25.8804 19.3072 24.985 18.6604 24.985 18.6604L23.271 18.0667L21.9956 15.5813L26.8903 10.2112L32.7726 7.70032L35.6866 10.9408V12.4841H35.6872Z" fill="black"/>
<path d="M33.167 23.9894C32.6735 23.9894 31.385 23.8567 30.752 22.5377C30.6772 22.3826 30.7427 22.1963 30.8978 22.1222C31.0529 22.0468 31.2386 22.1128 31.3134 22.2679C31.8972 23.4835 33.2411 23.3664 33.2991 23.3614C33.4723 23.3483 33.6224 23.4698 33.6399 23.6399C33.6573 23.8106 33.5339 23.9633 33.3632 23.9807C33.3495 23.9826 33.2785 23.9894 33.167 23.9894Z" fill="black"/>
<path d="M35.9115 10.5707C35.9115 10.5707 33.4579 3.59691 24.7595 5.08912C16.0611 6.58133 18.9707 17.6405 18.9707 17.6405L22.9358 16.3533L35.9115 10.5707Z" fill="#00989D"/>
<path d="M38.4417 10.0791C38.4417 10.0791 35.3963 10.19 27.5502 13.823C24.8455 15.0754 22.4866 16.5383 22.4866 16.5383C22.4866 16.5383 31.5184 12.7445 35.0287 12.7875C36.3763 12.8043 37.2492 13.3084 37.2492 13.3084L38.4417 10.0791Z" fill="#00989D"/>
<path d="M32.0268 34.7116C30.0866 34.7116 27.4218 34.3159 25.0785 32.5801C24.9402 32.4779 24.9109 32.2823 25.0131 32.1446C25.1159 32.0069 25.3115 31.9776 25.4486 32.0798C29.4212 35.0218 34.5601 33.8437 34.6106 33.8312C34.7794 33.7926 34.9458 33.8947 34.9857 34.0617C35.0255 34.2287 34.9221 34.3969 34.7551 34.4368C34.6579 34.4611 33.572 34.7116 32.0268 34.7116Z" fill="#475F3D"/>
<path d="M45.1732 57.6885C45.01 57.6885 44.8735 57.562 44.8629 57.3969L44.2399 47.7103C44.2286 47.5389 44.3589 47.39 44.5308 47.3794C44.709 47.3583 44.8505 47.4984 44.8617 47.6704L45.4847 57.357C45.4959 57.5284 45.3657 57.6773 45.1938 57.6879C45.1863 57.6885 45.18 57.6885 45.1732 57.6885Z" fill="#475F3D"/>
</g>
<defs>
<clipPath id="clip0_190_2236">
<rect width="58" height="58" rx="15" fill="white"/>
</clipPath>
</defs>
</svg>
