<svg width="132" height="132" viewBox="0 0 132 132" fill="none" xmlns="http://www.w3.org/2000/svg">
<g clip-path="url(#clip0_190_2396)">
<rect width="132" height="132" rx="15" fill="#00979D"/>
<path d="M-2.9241 6.76039V125.225C-2.9241 128.601 -1.20634 131.577 1.39987 133.28C1.6368 133.458 1.90334 133.621 2.15508 133.754C2.5845 133.991 3.04356 134.198 3.50261 134.361C4.52437 134.732 5.62015 134.924 6.76038 134.924H125.225C126.217 134.924 127.179 134.776 128.083 134.495C132.036 133.28 134.909 129.593 134.909 125.225V6.76039C134.909 1.41469 130.57 -2.92407 125.225 -2.92407H6.76038C1.41467 -2.92407 -2.9241 1.41469 -2.9241 6.76039Z" fill="#DFDFD2"/>
<path d="M45.4539 113.053L73.2338 134.924H125.225C126.217 134.924 127.179 134.776 128.083 134.495C122.559 102.109 104.42 78.2981 81.8817 70.4794C77.069 68.8209 72.8191 68.9838 69.1023 70.435C51.3178 77.3355 45.4539 113.053 45.4539 113.053Z" fill="#00979D"/>
<path d="M3.50272 134.361C4.52447 134.731 5.62026 134.924 6.76048 134.924H102.983C101.399 110.446 99.8142 90.8404 98.5852 86.8274C96.1863 78.9051 80.0603 73.3373 69.1023 70.4349C63.2235 68.8801 58.8256 68.0804 58.8256 68.0804C58.8256 68.0804 36.8356 69.0134 19.6287 90.1741C11.3954 100.303 4.9539 117.658 3.50272 134.361Z" fill="#00979D"/>
<path d="M85.2903 15.9724C85.2903 15.9724 92.9298 24.6129 88.7302 34.1404C84.5306 43.6664 80.0275 16.8342 80.0275 16.8342L85.2903 15.9724Z" fill="#ADA9C4"/>
<path d="M59.6 54.7991L59.3098 71.9394C59.3098 71.9394 62.3173 76.9193 72.3305 77.9041C79.7893 78.6385 82.4429 76.9934 82.4429 76.9934L81.5485 68.2951L80.6659 59.8116L62.6268 55.5217L59.6 54.7991Z" fill="#F98875"/>
<path d="M62.6267 55.5233C62.6622 55.9927 59.8679 57.4661 60.1345 58.1044C63.8247 66.7315 77.5739 71.0673 81.8816 71.5278L80.6659 59.8147L62.6267 55.5233Z" fill="black"/>
<path d="M82.0356 16.8284C84.3886 18.7445 86.0353 21.3804 87.0097 24.2546C89.2501 30.8694 93.771 46.3142 90.8094 55.7854C86.9608 68.0924 75.8651 65.7882 69.2682 63.179C62.6712 60.5699 59.711 56.3229 59.711 56.3229C59.711 56.3229 53.4013 58.2702 49.4254 52.2611C45.4509 46.252 48.2452 39.5824 51.8598 38.1475C55.473 36.7126 59.6222 39.4506 59.6222 39.4506L56.5184 32.9247C56.5155 32.9247 69.0075 6.22138 82.0356 16.8284Z" fill="#F98875"/>
<path d="M58.7056 47.8083C58.9321 47.8083 59.1543 47.7062 59.2994 47.5107C59.5437 47.1819 59.4756 46.7185 59.1483 46.4741L52.889 41.8096C52.5603 41.5638 52.0968 41.6319 51.8524 41.9606C51.6081 42.2894 51.6762 42.7529 52.0035 42.9972L58.2628 47.6617C58.3976 47.761 58.5516 47.8083 58.7056 47.8083Z" fill="black"/>
<path d="M51.6687 47.5935C51.7265 47.5935 51.7842 47.5875 51.842 47.5727L56.9493 46.3496C57.3476 46.2548 57.5934 45.855 57.4972 45.4567C57.4009 45.0598 56.9967 44.8155 56.6043 44.9088L51.497 46.1319C51.0986 46.2282 50.8528 46.6265 50.9491 47.0248C51.032 47.3654 51.3341 47.5935 51.6687 47.5935Z" fill="black"/>
<path d="M87.0805 36.8251C87.1412 36.8251 87.202 36.8177 87.2642 36.8014C87.661 36.7007 87.8994 36.298 87.7987 35.9011L86.7918 31.9518C86.6911 31.5549 86.2868 31.315 85.8915 31.4172C85.4946 31.5179 85.2562 31.9207 85.3569 32.3176L86.3638 36.2669C86.4482 36.603 86.7503 36.8251 87.0805 36.8251Z" fill="black"/>
<path d="M76.2219 38.3045C76.2826 38.3045 76.3448 38.2971 76.4055 38.2808C76.8024 38.1801 77.0408 37.7773 76.9401 37.3805L75.9331 33.4312C75.8324 33.0343 75.4326 32.7915 75.0328 32.8966C74.6359 32.9973 74.3975 33.4001 74.4982 33.7969L75.5052 37.7462C75.5896 38.0824 75.8917 38.3045 76.2219 38.3045Z" fill="black"/>
<path d="M87.701 28.2039C88.0742 28.2039 88.3955 27.9225 88.437 27.5434C88.4814 27.1377 88.1882 26.7719 87.781 26.7275L84.5306 26.3751C84.1234 26.3292 83.7591 26.6239 83.7147 27.0311C83.6703 27.4383 83.9634 27.8026 84.3707 27.847L87.621 28.1994C87.6477 28.2024 87.6744 28.2039 87.701 28.2039Z" fill="#6C6B7C"/>
<path d="M72.9509 30.816C73.0456 30.816 73.1434 30.7983 73.2367 30.7583L77.6583 28.9073C78.0359 28.7488 78.2136 28.3149 78.0567 27.9388C77.8982 27.5612 77.4644 27.382 77.0882 27.542L72.6666 29.393C72.289 29.5514 72.1112 29.9853 72.2697 30.3614C72.3867 30.6457 72.6621 30.816 72.9509 30.816Z" fill="#6C6B7C"/>
<path d="M59.6192 39.4506C59.6192 39.4506 61.3961 46.5851 62.7644 45.7144C64.1326 44.8451 65.4121 34.558 64.3918 29.9542C63.3715 25.3504 62.6282 23.0359 62.6282 23.0359C62.6282 23.0359 81.3529 21.3714 86.2884 16.9216C91.224 12.4718 80.7976 9.60053 70.1344 11.6203C59.4711 13.6402 55.2656 17.6472 55.2656 17.6472C55.2656 17.6472 48.5842 16.6506 46.0876 20.7273C43.5909 24.8025 49.2743 40.2887 49.2743 40.2887C49.2743 40.2887 50.9565 36.4031 59.6192 39.4506Z" fill="#ADA9C4"/>
<path d="M95.3303 46.8192C95.3303 46.8192 90.0986 41.0263 87.4347 41.8955C84.7722 42.7648 83.8037 46.6578 83.8037 46.6578C83.8037 46.6578 80.6452 42.282 77.1579 43.514C73.6721 44.7446 66.1985 45.2007 66.12 46.4105C66.0415 47.6203 68.2035 48.0512 68.2035 48.0512C68.2035 48.0512 85.7969 50.0829 95.3303 46.8192Z" fill="#ADA9C4"/>
<path d="M59.6192 39.4506C59.6192 39.4506 59.9331 51.0186 59.708 56.3214C59.4844 61.6241 74.2258 69.8974 84.4093 65.3276C94.5928 60.7593 91.8 47.4158 91.8 47.4158L82.7241 48.2539C82.7241 48.2539 80.6318 47.0678 78.2536 46.5792C75.8754 46.0905 72.7065 47.3847 72.7065 47.3847L59.6192 39.4506Z" fill="#ADA9C4"/>
<path d="M81.2997 50.9166C81.6729 50.9166 81.9942 50.6337 82.0342 50.2547C82.0771 49.8474 81.7824 49.4832 81.3767 49.4402C81.3456 49.4358 78.2774 49.0804 77.1594 46.8444C76.9758 46.4786 76.5315 46.332 76.1657 46.5127C75.8 46.6963 75.6519 47.1405 75.834 47.5063C77.3193 50.4753 81.0628 50.8958 81.2212 50.9121C81.2494 50.9151 81.2745 50.9166 81.2997 50.9166Z" fill="black"/>
<path d="M77.0171 78.7082C82.0341 78.7082 85.9153 77.7309 86.2603 77.6421C86.6557 77.5399 86.8926 77.1356 86.7905 76.7403C86.6868 76.3449 86.2826 76.1109 85.8887 76.2101C85.7124 76.2546 68.0775 80.6762 59.2727 70.244C59.0091 69.93 58.5426 69.89 58.2287 70.1551C57.9163 70.4187 57.8763 70.8866 58.1398 71.1976C63.2827 77.2896 70.974 78.7082 77.0171 78.7082Z" fill="#00182E"/>
<path d="M89.4011 42.9333C89.5966 42.9333 89.795 42.923 89.9934 42.9037C91.7882 42.7245 93.3919 41.7605 94.5069 40.1894C95.5998 38.6494 96.0914 36.7051 95.893 34.7134C95.4783 30.5627 92.1687 27.4871 88.4919 27.8499C86.6972 28.029 85.0935 28.9916 83.9784 30.5642C82.8856 32.1042 82.3939 34.0485 82.5924 36.0402C82.9848 39.9658 85.976 42.9333 89.4011 42.9333ZM94.4196 34.8615C94.5824 36.4963 94.1841 38.0852 93.3001 39.3335C92.4368 40.5507 91.2107 41.2956 89.8468 41.4318C87.0052 41.7146 84.4004 39.2328 84.0673 35.8951C83.9044 34.2603 84.3027 32.6714 85.1868 31.423C86.0501 30.2058 87.2762 29.461 88.64 29.3247C91.4742 29.0256 94.0864 31.5223 94.4196 34.8615Z" fill="white"/>
<path d="M72.936 45.7605C73.1892 45.7605 73.4454 45.7471 73.7015 45.722C75.7125 45.522 77.525 44.5492 78.8044 42.9869C80.0838 41.4232 80.6791 39.4552 80.4777 37.4443C80.0646 33.295 76.3581 30.2594 72.2 30.6681C68.0508 31.0812 65.0107 34.7951 65.4238 38.9458C65.6237 40.9552 66.5966 42.7692 68.1589 44.0486C69.5242 45.1652 71.196 45.7605 72.936 45.7605ZM72.9552 32.1119C76.0397 32.1119 78.6919 34.4575 79.0043 37.5923C79.1657 39.2094 78.6874 40.7924 77.6582 42.0496C76.6291 43.3068 75.172 44.0872 73.5549 44.2486C71.9409 44.4144 70.3549 43.9317 69.0977 42.9025C67.8405 41.8733 67.0587 40.4162 66.8987 38.7992C66.5655 35.4615 69.0103 32.4747 72.3481 32.143C72.5509 32.1222 72.7538 32.1119 72.9552 32.1119Z" fill="white"/>
<path d="M65.6979 39.6134C65.9452 39.6134 66.1851 39.4905 66.3258 39.2654C66.542 38.9189 66.4383 38.4628 66.0903 38.2452C60.2619 34.5994 51.0083 38.0334 50.6174 38.18C50.2354 38.3251 50.0414 38.7516 50.1865 39.1351C50.3316 39.5172 50.7566 39.7097 51.1416 39.566C51.2305 39.532 60.1034 36.2416 65.3055 39.5009C65.4284 39.5764 65.5632 39.6134 65.6979 39.6134Z" fill="white"/>
<path d="M83.6927 45.4671C83.9651 45.4671 84.2258 45.3176 84.3561 45.0584C86.9356 39.9052 81.6181 34.5566 81.39 34.3315C81.0998 34.0442 80.6304 34.0457 80.3446 34.3374C80.0573 34.6276 80.0588 35.0956 80.349 35.3843C80.3979 35.4317 85.1305 40.2058 83.0322 44.3965C82.8486 44.7623 82.9982 45.2065 83.3639 45.3901C83.4691 45.442 83.5816 45.4671 83.6927 45.4671Z" fill="black"/>
<path d="M78.9155 36.6563C79.0191 36.6563 79.1257 36.6341 79.2264 36.5867C79.7847 36.3291 81.5765 35.6982 82.4576 36.1765C82.8174 36.3735 83.2661 36.2387 83.463 35.8819C83.6585 35.522 83.5267 35.0733 83.1683 34.8764C81.4758 33.9524 78.8903 35.1104 78.603 35.2451C78.2328 35.4184 78.0729 35.8582 78.2447 36.2284C78.3676 36.4979 78.6356 36.6563 78.9155 36.6563Z" fill="white"/>
<path d="M102.983 132.156C103.392 132.156 103.723 131.825 103.723 131.416V116.421C103.723 116.013 103.392 115.681 102.983 115.681C102.574 115.681 102.243 116.013 102.243 116.421V131.416C102.243 131.826 102.574 132.156 102.983 132.156Z" fill="#00182E"/>
</g>
<defs>
<clipPath id="clip0_190_2396">
<rect width="132" height="132" rx="15" fill="white"/>
</clipPath>
</defs>
</svg>
