<svg width="50" height="50" viewBox="0 0 50 50" fill="none" xmlns="http://www.w3.org/2000/svg">
<path fill-rule="evenodd" clip-rule="evenodd" d="M24.5408 11.5894C24.7484 11.4263 33.4171 4.68249 39.1467 11.3258C42.2921 14.9728 42.0254 18.7566 40.8582 22.462L36.7517 34.2256C35.5509 38.3157 34.6948 39.5783 32.591 41.3552C31.3423 42.4099 29.934 40.5882 28.4519 38.6708C27.1679 37.0097 25.8285 35.2769 24.4894 35.281C23.1281 35.2851 21.7672 37.0207 20.4651 38.6811C18.9633 40.5963 17.5399 42.4115 16.2845 41.3552C13.7496 39.2221 12.6379 36.2747 11.4759 31.5447C11.2523 30.6341 10.912 29.5419 10.5368 28.3374C8.96297 23.2859 6.77373 16.2587 9.98473 12.3601C13.9499 7.54607 18.875 6.77109 24.4883 11.5508L24.5408 11.5894ZM21.7709 12.0838C19.8289 10.7493 18.178 10.3249 16.8029 10.4331C15.1133 10.5659 13.3584 11.5411 11.5928 13.6847C10.265 15.2968 10.1298 18.0202 10.8457 21.5783C11.1867 23.2727 11.6841 24.9888 12.185 26.6187C12.293 26.9703 12.4028 27.3227 12.5117 27.6719C12.8911 28.8897 13.2586 30.0689 13.4992 31.0477C14.5629 35.3781 15.4882 37.7053 17.1667 39.345C17.5131 39.0228 17.9514 38.5052 18.5311 37.7706C18.6215 37.656 18.7152 37.5363 18.8118 37.413C19.4057 36.6547 20.1092 35.7565 20.8268 35.0385C21.5891 34.2758 22.8492 33.2026 24.4831 33.1976C26.1246 33.1926 27.3814 34.2832 28.1281 35.0406C28.8353 35.758 29.529 36.6564 30.1144 37.4146C30.2101 37.5386 30.3029 37.6588 30.3924 37.7739C30.9603 38.504 31.3905 39.0194 31.7307 39.3418C32.4055 38.7317 32.8431 38.2223 33.2218 37.5889C33.7106 36.7712 34.1659 35.6373 34.7527 33.6387C34.7625 33.6051 34.7732 33.5719 34.7848 33.5389L38.8805 21.8063C39.416 20.0983 39.688 18.5386 39.546 17.0729C39.4078 15.6451 38.8662 14.1906 37.569 12.6864C35.4184 10.1928 32.7764 10.1551 30.2837 10.9275C29.0284 11.3165 27.9018 11.8959 27.0767 12.3913C26.7671 12.5771 26.5061 12.7474 26.3036 12.8856L30.3047 15.8274C30.7681 16.1683 30.8676 16.8202 30.5268 17.2837C30.186 17.7472 29.534 17.8467 29.0705 17.5059L23.4197 13.3509C23.3415 13.3011 23.2658 13.2457 23.1934 13.1845L21.9871 12.2975C21.9028 12.2356 21.8306 12.1634 21.7709 12.0838ZM16.8014 39.6301L16.8054 39.6282C16.8026 39.6295 16.8014 39.6301 16.8014 39.6301Z" fill="#00979D"/>
</svg>
