<svg width="32" height="32" viewBox="0 0 32 32" fill="none" xmlns="http://www.w3.org/2000/svg">
<path d="M12.0288 20.0505L13.3974 12.0193H15.5865L14.2169 20.0505H12.0288ZM22.1257 12.1924C21.6921 12.0297 21.0124 11.8551 20.1638 11.8551C18.0006 11.8551 16.4771 12.9444 16.464 14.5055C16.4518 15.6595 17.5518 16.3033 18.3821 16.6875C19.2343 17.0812 19.5207 17.3322 19.5166 17.6837C19.5111 18.2221 18.8361 18.4679 18.2069 18.4679C17.3308 18.4679 16.8653 18.3462 16.1464 18.0464L15.8642 17.9188L15.557 19.7166C16.0683 19.9409 17.0138 20.1351 17.9955 20.1452C20.2966 20.1452 21.7905 19.0683 21.8075 17.4012C21.8156 16.4875 21.2324 15.7923 19.9695 15.2191C19.2043 14.8476 18.7357 14.5996 18.7407 14.2234C18.7407 13.8896 19.1373 13.5326 19.9945 13.5326C20.7102 13.5215 21.2288 13.6776 21.6329 13.8403L21.829 13.933L22.1257 12.1924ZM27.7589 12.0192H26.0674C25.5434 12.0192 25.1512 12.1622 24.9211 12.6852L21.6701 20.0452H23.9688C23.9688 20.0452 24.3445 19.0556 24.4295 18.8383C24.6807 18.8383 26.9138 18.8417 27.2331 18.8417C27.2985 19.1229 27.4994 20.0452 27.4994 20.0452H29.5307L27.7589 12.0189V12.0192ZM25.0751 17.2052C25.2562 16.7425 25.9473 14.9601 25.9473 14.9601C25.9344 14.9815 26.127 14.4951 26.2375 14.1936L26.3855 14.886C26.3855 14.886 26.8046 16.8031 26.8923 17.2051H25.0751V17.2052ZM10.1705 12.0192L8.02735 17.4961L7.79905 16.3831C7.40003 15.1001 6.157 13.71 4.76733 13.0141L6.72701 20.0377L9.04311 20.0351L12.4894 12.0191L10.1705 12.019" fill="#00989D"/>
<path d="M6.02759 12.0189H2.49771L2.46973 12.186C5.21594 12.8508 7.03301 14.4573 7.78747 16.3879L7.01992 12.6972C6.88745 12.1886 6.50312 12.0368 6.02767 12.0191" fill="#F2AE14"/>
</svg>
