<svg width="36" height="36" viewBox="0 0 36 36" fill="none" xmlns="http://www.w3.org/2000/svg">
<g clip-path="url(#clip0_190_2474)">
<path fill-rule="evenodd" clip-rule="evenodd" d="M30.7494 5.23158C27.4104 1.88687 22.8621 0 18.1228 0H18.0685C8.18982 7.03793e-05 0.150012 8.00185 0.150012 17.8381L0.150083 17.8391C0.150674 20.9689 0.978578 24.0434 2.5507 26.7541L0 36L9.50379 33.5178C12.1306 34.9423 15.0739 35.69 18.0654 35.6925H18.0656H18.0694C27.9705 35.6925 36 27.7024 36 17.85C36 13.1188 34.1086 8.57917 30.7484 5.23545L30.7494 5.23158ZM18.0746 32.6879C15.4045 32.6879 12.7799 31.9686 10.4861 30.6132L9.9401 30.2893L4.30027 31.7594L5.80017 26.2891L5.44767 25.7279C3.95201 23.3627 3.15506 20.6194 3.15506 17.8237C3.15506 9.63359 9.8297 2.99175 18.0601 2.99175C22.0216 2.99175 25.823 4.5617 28.618 7.35386C31.4139 10.1373 32.9846 13.9116 32.985 17.8471C32.985 26.042 26.3081 32.6879 18.0726 32.6879H18.0746ZM26.2494 21.574C25.7994 21.3486 23.599 20.274 23.191 20.1247C22.783 19.9754 22.483 19.8993 22.1785 20.3501C21.8741 20.8008 21.0205 21.7994 20.7596 22.0994C20.4986 22.3994 20.2361 22.4383 19.7921 22.2128C19.3481 21.9875 17.8976 21.5173 16.1921 19.9979C15.2098 19.0965 14.3659 18.0562 13.6876 16.9105C13.4251 16.4627 13.6591 16.2224 13.8871 16.0045C14.1151 15.7866 14.3371 15.4851 14.5576 15.2239C14.7439 14.999 14.8955 14.7476 15.0072 14.4781C15.0668 14.3552 15.0947 14.2196 15.0884 14.0833C15.0821 13.947 15.0419 13.8145 14.9713 13.6976C14.8498 13.4738 13.9497 11.2796 13.5897 10.3855C13.2297 9.49149 12.8562 9.63929 12.5803 9.61832C12.3043 9.59741 12.0207 9.60495 11.7252 9.60495C11.4975 9.61026 11.2732 9.66247 11.0667 9.7583C10.8602 9.85412 10.6759 9.99148 10.5254 10.1617C10.1218 10.605 8.96237 11.687 8.96237 13.8812C8.96237 16.0753 10.5658 18.1919 10.7908 18.4933C11.0159 18.7948 13.9497 23.2951 18.4497 25.225C19.5176 25.6817 20.3516 25.9564 20.9996 26.1683C21.5781 26.3417 22.1789 26.4298 22.7831 26.43C23.13 26.43 23.4776 26.4007 23.8192 26.3429C24.6802 26.2175 26.4681 25.2667 26.8446 24.2264C27.2211 23.186 27.2197 22.286 27.1071 22.1085C26.9946 21.9308 26.7037 21.801 26.2521 21.5725L26.2494 21.574Z" fill="#4B4B4B"/>
</g>
<defs>
<clipPath id="clip0_190_2474">
<rect width="36" height="36" fill="white"/>
</clipPath>
</defs>
</svg>
