<?xml version="1.0" encoding="UTF-8"?>
<svg width="24" height="24" viewBox="0 0 24 24" fill="none" xmlns="http://www.w3.org/2000/svg">
    <path d="M12 2C6.48 2 2 6.48 2 12C2 17.52 6.48 22 12 22C17.52 22 22 17.52 22 12C22 6.48 17.52 2 12 2ZM12 20C7.58 20 4 16.42 4 12C4 7.58 7.58 4 12 4C16.42 4 20 7.58 20 12C20 16.42 16.42 20 12 20Z" fill="currentColor"/>
    <path d="M15 6.5C15 8.43 13.43 10 11.5 10C9.57 10 8 8.43 8 6.5C8 4.57 9.57 3 11.5 3C13.43 3 15 4.57 15 6.5Z" fill="currentColor"/>
    <path d="M8.5 14C8.5 15.93 6.93 17.5 5 17.5C3.07 17.5 1.5 15.93 1.5 14C1.5 12.07 3.07 10.5 5 10.5C6.93 10.5 8.5 12.07 8.5 14Z" fill="currentColor"/>
</svg> 