<?xml version="1.0" encoding="UTF-8"?>
<svg width="24" height="24" viewBox="0 0 24 24" fill="none" xmlns="http://www.w3.org/2000/svg">
    <path d="M12 4C7.6 4 4 7.6 4 12C4 16.4 7.6 20 12 20C16.4 20 20 16.4 20 12C20 7.6 16.4 4 12 4ZM12 18C8.7 18 6 15.3 6 12C6 8.7 8.7 6 12 6C15.3 6 18 8.7 18 12C18 15.3 15.3 18 12 18Z" fill="currentColor"/>
    <path d="M12 8C10.3 8 9 9.3 9 11C9 11.6 9.4 12 10 12C10.6 12 11 11.6 11 11C11 10.4 11.4 10 12 10C12.6 10 13 10.4 13 11C13 11.6 12.6 12 12 12C11.4 12 11 12.4 11 13V15C11 15.6 11.4 16 12 16C12.6 16 13 15.6 13 15V13.7C14.2 13.1 15 12.1 15 11C15 9.3 13.7 8 12 8Z" fill="currentColor"/>
</svg> 