<?xml version="1.0" encoding="UTF-8"?>
<svg width="24" height="24" viewBox="0 0 24 24" fill="none" xmlns="http://www.w3.org/2000/svg">
    <path d="M4.5 12C5.88071 12 7 10.8807 7 9.5C7 8.11929 5.88071 7 4.5 7C3.11929 7 2 8.11929 2 9.5C2 10.8807 3.11929 12 4.5 12Z" fill="currentColor"/>
    <path d="M9 8C10.3807 8 11.5 6.88071 11.5 5.5C11.5 4.11929 10.3807 3 9 3C7.61929 3 6.5 4.11929 6.5 5.5C6.5 6.88071 7.61929 8 9 8Z" fill="currentColor"/>
    <path d="M15 8C16.3807 8 17.5 6.88071 17.5 5.5C17.5 4.11929 16.3807 3 15 3C13.6193 3 12.5 4.11929 12.5 5.5C12.5 6.88071 13.6193 8 15 8Z" fill="currentColor"/>
    <path d="M19.5 12C20.8807 12 22 10.8807 22 9.5C22 8.11929 20.8807 7 19.5 7C18.1193 7 17 8.11929 17 9.5C17 10.8807 18.1193 12 19.5 12Z" fill="currentColor"/>
    <path d="M17.34 14.86C16.47 13.84 15.74 12.97 14.86 11.95C14.4 11.41 13.81 11 13.15 11H10.85C10.19 11 9.6 11.41 9.14 11.95C8.26 12.97 7.53 13.84 6.66 14.86C6.23 15.34 6 15.96 6 16.61V17.81C6 18.47 6.31 19.09 6.83 19.5C7.34 19.92 7.97 20.09 8.6 19.97L10.5 19.5L11.42 21.34C11.59 21.75 11.98 22 12.42 22C12.86 22 13.25 21.75 13.42 21.34L14.35 19.5L16.25 19.97C16.88 20.09 17.51 19.92 18.02 19.5C18.54 19.09 18.85 18.47 18.85 17.81V16.61C18.85 15.96 18.62 15.34 18.19 14.86H17.34Z" fill="currentColor"/>
</svg> 